{"glyphs":{"0":{"ha":833,"x_min":100,"x_max":733,"o":"m 417 85 q 494 107 460 85 q 553 177 529 129 q 589 299 576 225 q 601 479 601 374 q 553 781 601 689 q 417 872 504 872 q 340 850 374 872 q 281 781 306 828 q 244 658 257 733 q 232 479 232 583 q 244 299 232 374 q 281 177 257 225 q 340 107 306 129 q 417 85 374 85 m 417 -17 q 180 111 260 -17 q 100 479 100 239 q 180 846 100 718 q 417 974 260 974 q 653 846 574 974 q 733 479 733 718 q 653 111 733 239 q 417 -17 574 -17 m 326 479 q 352 543 326 517 q 417 569 378 569 q 483 543 457 569 q 508 479 508 517 q 483 414 508 440 q 417 388 457 388 q 352 414 378 388 q 326 479 326 440 z "},"1":{"ha":833,"x_min":122,"x_max":736,"o":"m 413 817 l 183 678 l 122 767 l 428 957 l 540 957 l 540 103 l 736 103 l 736 0 l 178 0 l 178 103 l 413 103 l 413 817 z "},"2":{"ha":833,"x_min":104,"x_max":700,"o":"m 679 710 q 654 583 679 647 q 578 447 629 519 q 449 292 526 375 q 265 107 371 208 l 700 107 l 685 0 l 115 0 l 115 101 q 322 313 239 224 q 456 472 406 403 q 526 597 506 542 q 547 706 547 651 q 501 825 547 783 q 385 867 456 867 q 281 843 325 867 q 193 764 238 819 l 104 826 q 232 935 161 897 q 392 974 303 974 q 510 954 457 974 q 601 899 564 935 q 659 815 639 864 q 679 710 679 767 z "},"3":{"ha":833,"x_min":81,"x_max":715,"o":"m 715 275 q 691 160 715 213 q 623 67 667 107 q 517 6 579 28 q 379 -17 454 -17 q 216 15 296 -17 q 81 113 136 46 l 164 182 q 260 110 204 133 q 375 88 317 88 q 527 138 472 88 q 582 276 582 189 q 567 360 582 326 q 527 415 553 394 q 465 445 501 436 q 388 454 429 454 l 314 454 l 329 553 l 379 553 q 446 563 414 553 q 503 592 478 572 q 542 643 528 613 q 557 715 557 674 q 543 783 557 753 q 506 832 529 813 q 450 862 482 851 q 381 872 418 872 q 272 851 318 872 q 179 785 226 829 l 110 861 q 242 947 172 919 q 388 974 311 974 q 511 954 456 974 q 605 902 567 935 q 664 826 643 869 q 685 733 685 782 q 669 652 685 689 q 629 586 654 615 q 572 538 604 557 q 503 513 539 519 l 503 507 q 580 488 542 504 q 649 443 618 472 q 697 372 679 414 q 715 275 715 329 z "},"4":{"ha":833,"x_min":96,"x_max":732,"o":"m 611 229 l 611 0 l 488 0 l 488 229 l 96 229 l 96 319 l 376 974 l 483 929 l 231 331 l 488 331 l 500 581 l 611 581 l 611 331 l 732 331 l 732 229 l 611 229 z "},"5":{"ha":833,"x_min":107,"x_max":721,"o":"m 721 306 q 697 178 721 236 q 628 76 672 119 q 524 8 585 32 q 390 -17 464 -17 q 235 12 307 -17 q 107 107 163 40 l 193 179 q 282 109 233 131 q 389 88 331 88 q 535 147 482 88 q 588 307 588 207 q 574 401 588 363 q 538 463 561 439 q 482 497 514 486 q 413 507 450 507 q 346 499 381 507 q 279 475 311 490 l 179 475 l 179 957 l 683 957 l 668 856 l 301 856 l 301 574 q 378 600 339 593 q 450 607 417 607 q 560 586 510 607 q 645 526 610 565 q 701 431 681 486 q 721 306 721 375 z "},"6":{"ha":833,"x_min":101,"x_max":731,"o":"m 608 831 q 546 863 576 854 q 482 872 515 872 q 388 848 432 872 q 308 777 343 824 q 253 661 274 731 q 229 501 232 592 q 337 593 275 563 q 461 624 399 624 q 561 605 513 624 q 647 548 610 586 q 708 451 685 510 q 731 313 731 392 q 706 174 731 235 q 641 70 682 113 q 545 6 600 28 q 429 -17 490 -17 q 279 19 342 -17 q 177 117 217 56 q 119 258 138 178 q 101 429 101 339 q 128 651 101 550 q 205 823 156 751 q 325 934 254 894 q 483 974 396 974 q 577 960 533 974 q 664 917 621 947 l 608 831 m 438 522 q 323 486 379 522 q 231 393 267 450 q 281 167 233 249 q 429 85 329 85 q 558 144 515 85 q 600 308 600 204 q 587 409 600 368 q 552 475 574 450 q 501 511 531 500 q 438 522 471 522 z "},"7":{"ha":833,"x_min":131,"x_max":706,"o":"m 325 -14 l 206 22 l 576 853 l 131 853 l 131 957 l 706 957 l 706 861 l 325 -14 z "},"8":{"ha":833,"x_min":88,"x_max":746,"o":"m 707 736 q 665 615 707 671 q 540 517 622 558 q 691 410 636 475 q 746 257 746 344 q 723 149 746 199 q 657 62 700 99 q 552 4 614 25 q 414 -17 490 -17 q 275 4 336 -17 q 172 62 214 25 q 109 148 131 99 q 88 254 88 197 q 140 402 88 342 q 281 500 192 463 q 164 599 201 540 q 126 733 126 658 q 153 843 126 797 q 224 918 181 889 q 317 960 267 947 q 417 974 368 974 q 522 960 469 974 q 615 917 574 946 q 681 844 656 889 q 707 736 707 799 m 613 256 q 594 334 613 303 q 544 388 576 365 q 465 429 511 411 q 364 467 419 447 q 309 435 335 453 q 264 391 283 417 q 233 332 244 365 q 221 256 221 299 q 269 131 221 176 q 414 85 318 85 q 562 133 511 85 q 613 256 613 182 m 251 732 q 306 617 251 658 q 454 546 360 576 q 582 731 582 619 q 539 836 582 796 q 417 876 496 876 q 294 839 338 876 q 251 732 251 801 z "},"9":{"ha":833,"x_min":99,"x_max":733,"o":"m 181 65 q 475 217 367 114 q 596 465 583 321 l 593 467 q 509 385 564 419 q 375 351 454 351 q 266 374 317 351 q 178 436 215 396 q 119 533 140 476 q 99 658 99 589 q 124 790 99 731 q 194 889 150 849 q 295 951 238 929 q 417 974 353 974 q 552 946 493 974 q 651 869 611 918 q 713 751 692 819 q 733 601 733 682 q 701 360 733 463 q 603 183 668 258 q 439 57 538 108 q 210 -31 340 6 l 181 65 m 600 583 q 555 801 599 731 q 414 872 511 872 q 281 819 335 872 q 228 656 228 767 q 242 565 228 603 q 278 501 256 526 q 333 465 301 476 q 399 453 364 453 q 517 488 469 453 q 600 583 565 522 z "},"\u0000":{"ha":833,"x_min":0,"x_max":0,"o":""},"\r":{"ha":833,"x_min":0,"x_max":0,"o":""}," ":{"ha":833,"x_min":0,"x_max":0,"o":""},"!":{"ha":833,"x_min":319,"x_max":513,"o":"m 319 81 q 347 149 319 121 q 415 176 375 176 q 485 149 457 176 q 513 81 513 121 q 485 12 513 40 q 415 -17 457 -17 q 347 12 375 -17 q 319 81 319 40 m 358 319 l 343 957 l 485 957 l 471 319 l 358 319 z "},"\"":{"ha":833,"x_min":222,"x_max":611,"o":"m 244 663 l 222 1026 l 375 1026 l 353 663 l 244 663 m 481 663 l 458 1026 l 611 1026 l 589 663 l 481 663 z "},"#":{"ha":833,"x_min":71,"x_max":763,"o":"m 642 632 l 601 328 l 711 328 l 711 232 l 588 232 l 558 0 l 450 0 l 481 232 l 286 232 l 256 0 l 147 0 l 178 232 l 71 232 l 71 328 l 190 328 l 232 632 l 122 632 l 122 729 l 244 729 l 275 957 l 383 957 l 351 729 l 547 729 l 578 957 l 686 957 l 654 729 l 763 729 l 763 632 l 642 632 m 299 328 l 493 328 l 535 632 l 339 632 l 299 328 z "},"$":{"ha":833,"x_min":92,"x_max":750,"o":"m 385 -15 q 212 31 285 -8 q 92 115 139 69 l 165 197 q 263 124 210 153 q 385 90 317 96 l 385 464 q 193 569 258 506 q 128 731 128 633 q 144 815 128 774 q 192 888 160 856 q 273 942 225 921 q 385 971 321 964 l 385 1179 l 481 1179 l 481 971 q 628 931 564 963 q 738 860 693 900 l 663 782 q 481 868 582 856 l 481 560 q 583 517 535 542 q 669 458 632 493 q 728 376 707 424 q 750 265 750 329 q 733 169 750 215 q 682 85 715 122 q 598 23 649 49 q 481 -11 547 -3 l 481 -214 l 385 -214 l 385 -15 m 615 261 q 586 358 615 318 q 481 431 557 399 l 481 96 q 615 261 615 124 m 260 735 q 285 655 260 688 q 385 592 311 622 l 385 865 q 294 824 329 856 q 260 735 260 792 z "},"%":{"ha":833,"x_min":43,"x_max":789,"o":"m 149 761 q 153 714 149 738 q 168 672 157 690 q 198 642 179 653 q 246 631 217 631 q 293 642 275 631 q 321 671 311 653 q 334 713 331 689 q 338 763 338 738 q 334 811 338 788 q 321 853 331 835 q 293 883 311 872 q 246 894 275 894 q 198 883 217 894 q 168 853 179 872 q 153 811 157 835 q 149 761 149 788 m 449 763 q 433 675 449 714 q 391 608 418 636 q 326 566 364 581 q 246 551 289 551 q 165 566 201 551 q 101 608 128 581 q 58 674 74 636 q 43 761 43 713 q 58 849 43 810 q 101 917 74 889 q 165 959 128 944 q 246 974 201 974 q 326 959 289 974 q 391 917 364 944 q 433 851 418 890 q 449 763 449 811 m 492 194 q 496 146 492 169 q 510 103 500 122 q 540 73 521 85 q 588 61 558 61 q 635 72 617 61 q 665 102 654 83 q 679 145 675 121 q 683 194 683 169 q 679 242 683 219 q 665 284 675 265 q 635 314 654 303 q 588 325 617 325 q 540 314 558 325 q 510 285 521 303 q 496 243 500 267 q 492 194 492 219 m 789 194 q 774 106 789 146 q 732 40 758 67 q 668 -2 706 13 q 588 -17 631 -17 q 441 40 499 -17 q 383 194 383 96 q 441 349 383 292 q 588 406 499 406 q 668 391 631 406 q 732 349 706 376 q 774 282 758 321 q 789 194 789 243 m 128 -39 l 50 10 l 693 983 l 772 935 l 128 -39 z "},"&":{"ha":833,"x_min":72,"x_max":797,"o":"m 289 542 q 159 620 196 564 q 122 743 122 676 q 141 831 122 789 q 194 903 160 872 q 277 953 228 935 q 388 972 326 972 q 509 951 453 972 q 624 868 565 931 l 549 800 q 476 859 513 840 q 389 878 440 878 q 283 840 318 878 q 247 740 247 801 q 260 681 247 708 q 295 631 272 653 q 348 597 318 610 q 414 585 378 585 l 797 585 l 797 488 l 676 488 l 676 111 q 635 68 660 90 q 574 27 610 46 q 492 -4 539 8 q 385 -17 444 -17 q 244 8 303 -17 q 147 72 186 32 q 90 165 108 113 q 72 271 72 217 q 128 447 72 379 q 289 538 185 515 l 289 542 m 389 85 q 488 103 444 85 q 560 154 532 121 l 560 488 l 397 488 q 307 468 344 488 q 245 418 269 449 q 209 350 221 388 q 197 276 197 313 q 208 204 197 239 q 242 143 219 169 q 302 101 265 117 q 389 85 339 85 z "},"'":{"ha":833,"x_min":340,"x_max":493,"o":"m 363 663 l 340 1026 l 493 1026 l 471 663 l 363 663 z "},"(":{"ha":833,"x_min":225,"x_max":610,"o":"m 358 486 q 378 288 358 375 q 431 128 397 201 q 510 -9 464 56 q 610 -142 556 -74 l 528 -197 q 415 -59 469 -128 q 318 90 360 10 q 251 267 276 171 q 225 486 225 363 q 251 706 225 610 q 318 882 276 801 q 415 1031 360 963 q 528 1169 469 1100 l 610 1114 q 510 981 556 1046 q 431 844 464 917 q 378 685 397 771 q 358 486 358 599 z "},")":{"ha":833,"x_min":224,"x_max":608,"o":"m 475 486 q 456 685 475 599 q 403 844 436 771 q 324 981 369 917 q 224 1114 278 1046 l 306 1169 q 419 1031 364 1100 q 515 882 474 963 q 583 706 557 801 q 608 486 608 610 q 583 267 608 363 q 515 90 557 171 q 419 -59 474 10 q 306 -197 364 -128 l 224 -142 q 324 -9 278 -74 q 403 128 369 56 q 456 288 436 201 q 475 486 475 375 z "},"*":{"ha":833,"x_min":144,"x_max":689,"o":"m 457 813 l 651 896 l 689 778 l 485 733 l 631 582 l 529 506 l 418 686 l 314 503 l 210 574 l 350 733 l 144 778 l 182 896 l 375 813 l 354 1025 l 479 1025 l 457 813 z "},"+":{"ha":833,"x_min":156,"x_max":678,"o":"m 357 485 l 357 693 l 474 693 l 474 485 l 678 485 l 678 379 l 474 379 l 474 172 l 357 172 l 357 379 l 156 379 l 156 485 l 357 485 z "},",":{"ha":833,"x_min":282,"x_max":533,"o":"m 533 119 q 526 65 533 92 q 503 1 519 38 l 392 -253 l 282 -253 l 349 24 q 314 65 326 39 q 301 119 301 90 q 335 201 301 168 q 417 235 368 235 q 500 201 467 235 q 533 119 533 168 z "},"-":{"ha":833,"x_min":171,"x_max":663,"o":"m 171 381 l 171 489 l 663 489 l 663 381 l 171 381 z "},".":{"ha":833,"x_min":290,"x_max":542,"o":"m 290 110 q 300 159 290 136 q 326 199 310 182 q 366 225 343 215 q 415 235 389 235 q 506 199 469 235 q 542 110 542 163 q 506 20 542 57 q 415 -17 469 -17 q 326 20 363 -17 q 290 110 290 57 z "},"/":{"ha":833,"x_min":69,"x_max":764,"o":"m 172 -144 l 69 -99 l 663 1125 l 764 1076 l 172 -144 z "},":":{"ha":833,"x_min":300,"x_max":532,"o":"m 300 100 q 309 144 300 124 q 333 181 318 165 q 369 206 349 197 q 415 215 390 215 q 499 181 465 215 q 532 100 532 147 q 499 17 532 51 q 415 -17 465 -17 q 333 17 367 -17 q 300 100 300 51 m 300 599 q 333 681 300 647 q 415 714 367 714 q 499 681 465 714 q 532 599 532 647 q 499 516 532 550 q 415 482 465 482 q 369 491 390 482 q 333 516 349 500 q 309 553 318 532 q 300 599 300 575 z "},";":{"ha":833,"x_min":281,"x_max":532,"o":"m 300 599 q 333 681 300 647 q 415 714 367 714 q 499 681 465 714 q 532 599 532 647 q 499 516 532 550 q 415 482 465 482 q 369 491 390 482 q 333 516 349 500 q 309 553 318 532 q 300 599 300 575 m 532 119 q 525 65 532 92 q 501 1 518 38 l 390 -253 l 281 -253 l 347 24 q 313 65 325 39 q 300 119 300 90 q 333 201 300 168 q 415 235 367 235 q 499 201 465 235 q 532 119 532 168 z "},"<":{"ha":833,"x_min":119,"x_max":715,"o":"m 654 828 l 715 732 l 229 435 l 715 136 l 649 43 l 119 374 l 119 497 l 654 828 z "},"=":{"ha":833,"x_min":142,"x_max":692,"o":"m 142 244 l 142 353 l 692 353 l 692 244 l 142 244 m 142 511 l 142 619 l 692 619 l 692 511 l 142 511 z "},">":{"ha":833,"x_min":119,"x_max":715,"o":"m 715 497 l 715 374 l 186 43 l 119 136 l 606 435 l 119 732 l 181 828 l 715 497 z "},"?":{"ha":833,"x_min":119,"x_max":694,"o":"m 443 319 l 317 319 l 317 372 q 335 468 317 429 q 380 536 353 507 q 439 588 407 565 q 498 634 471 611 q 543 683 525 657 q 561 749 561 710 q 516 838 561 807 q 403 868 471 868 q 303 844 354 868 q 208 768 251 821 l 119 835 q 254 940 181 906 q 415 974 328 974 q 533 956 481 974 q 621 907 585 938 q 676 838 657 876 q 694 757 694 799 q 676 665 694 701 q 629 601 657 628 q 569 552 601 574 q 508 506 536 531 q 462 448 481 481 q 443 365 443 415 l 443 319 m 288 81 q 315 149 288 121 q 383 176 343 176 q 453 149 425 176 q 481 81 481 121 q 453 12 481 40 q 383 -17 425 -17 q 315 12 343 -17 q 288 81 288 40 z "},"@":{"ha":833,"x_min":11,"x_max":815,"o":"m 11 821 q 202 938 106 903 q 394 974 299 974 q 610 924 528 974 q 738 794 693 875 q 799 610 783 714 q 815 397 815 506 q 807 167 815 265 q 776 4 799 69 q 713 -94 753 -61 q 610 -126 672 -126 q 535 -106 567 -126 q 485 -55 504 -85 q 456 9 465 -25 q 446 71 446 43 l 440 71 q 415 22 431 46 q 376 -21 399 -1 q 322 -52 353 -40 q 250 -64 292 -64 q 153 -40 193 -64 q 88 26 113 -17 q 51 127 63 69 q 39 254 39 185 q 110 525 39 436 q 314 614 182 614 q 409 603 363 614 q 514 561 456 593 l 514 150 q 521 61 514 96 q 540 7 528 26 q 570 -20 553 -12 q 607 -28 588 -28 q 655 4 638 -28 q 680 92 672 36 q 689 226 688 149 q 690 394 690 303 q 679 581 690 494 q 636 732 668 668 q 547 832 604 796 q 394 868 489 868 q 247 842 325 868 q 81 740 168 817 l 11 821 m 318 522 q 194 456 228 522 q 161 254 161 389 q 166 163 161 204 q 183 91 171 121 q 216 45 196 61 q 267 29 236 29 q 325 42 301 29 q 364 74 349 56 q 388 113 379 93 q 403 149 397 133 l 403 503 q 318 522 364 522 z "},"A":{"ha":833,"x_min":24,"x_max":810,"o":"m 597 240 l 229 240 l 156 0 l 24 0 l 333 957 l 500 957 l 810 0 l 671 0 l 597 240 m 261 347 l 565 347 l 417 838 l 411 838 l 261 347 z "},"B":{"ha":833,"x_min":128,"x_max":754,"o":"m 615 271 q 599 358 615 324 q 556 412 583 392 q 493 440 529 432 q 415 447 457 447 l 260 447 l 260 107 l 410 107 q 481 113 444 107 q 548 138 518 119 q 597 188 578 156 q 615 271 615 219 m 578 707 q 529 819 578 786 q 394 853 481 853 l 260 853 l 260 553 l 406 553 q 533 589 489 553 q 578 707 578 625 m 754 274 q 723 142 754 194 q 640 58 692 90 q 524 13 589 26 q 392 0 458 0 l 128 0 l 128 957 l 371 957 q 497 946 435 957 q 606 907 558 935 q 683 833 654 879 q 713 715 713 786 q 698 634 713 669 q 660 574 683 599 q 606 533 636 549 q 546 511 576 518 l 546 506 q 619 484 582 499 q 686 442 656 469 q 735 374 717 415 q 754 274 754 333 z "},"C":{"ha":833,"x_min":76,"x_max":785,"o":"m 497 94 q 628 119 576 94 q 717 176 681 144 l 785 90 q 668 16 740 49 q 492 -17 596 -17 q 325 15 401 -17 q 193 110 249 47 q 107 266 138 174 q 76 479 76 358 q 110 692 76 600 q 199 847 143 785 q 331 942 256 910 q 490 974 406 974 q 649 949 585 974 q 771 879 714 924 l 699 794 q 604 848 654 831 q 499 865 554 865 q 390 845 442 865 q 300 780 339 825 q 239 661 261 735 q 217 479 217 588 q 238 302 217 375 q 297 183 260 229 q 386 116 335 138 q 497 94 438 94 z "},"D":{"ha":833,"x_min":111,"x_max":771,"o":"m 631 483 q 605 678 631 606 q 538 789 579 750 q 447 840 497 828 q 349 851 397 851 l 243 851 l 243 104 l 350 104 q 451 120 401 104 q 541 178 501 136 q 606 293 581 219 q 631 483 631 367 m 771 483 q 731 239 771 333 q 629 92 692 144 q 489 19 567 39 q 335 0 411 0 l 111 0 l 111 957 l 319 957 q 485 939 404 957 q 630 869 567 921 q 732 725 693 818 q 771 483 771 632 z "},"E":{"ha":833,"x_min":156,"x_max":719,"o":"m 288 851 l 288 539 l 640 539 l 640 433 l 288 433 l 288 104 l 719 104 l 719 0 l 156 0 l 156 957 l 708 957 l 693 851 l 288 851 z "},"F":{"ha":833,"x_min":174,"x_max":744,"o":"m 306 851 l 306 525 l 676 525 l 676 421 l 306 421 l 306 0 l 174 0 l 174 957 l 744 957 l 729 851 l 306 851 z "},"G":{"ha":833,"x_min":60,"x_max":753,"o":"m 438 -17 q 281 15 350 -17 q 162 108 211 46 q 86 263 113 169 q 60 479 60 356 q 94 695 60 603 q 184 849 128 788 q 313 942 240 911 q 463 974 385 974 q 550 967 511 974 q 622 946 589 960 q 684 913 656 932 q 742 867 713 893 l 664 786 q 572 846 619 826 q 464 865 525 865 q 366 846 414 865 q 281 781 318 826 q 222 661 244 735 q 200 479 200 588 q 216 303 200 376 q 263 182 232 229 q 340 113 294 135 q 447 92 386 92 q 622 136 542 92 l 622 419 l 442 419 l 426 526 l 753 526 l 753 68 q 613 8 688 32 q 438 -17 539 -17 z "},"H":{"ha":833,"x_min":111,"x_max":722,"o":"m 590 0 l 590 449 l 243 449 l 243 0 l 111 0 l 111 957 l 243 957 l 243 557 l 590 557 l 590 957 l 722 957 l 722 0 l 590 0 z "},"I":{"ha":833,"x_min":139,"x_max":694,"o":"m 694 853 l 483 853 l 483 104 l 694 104 l 694 0 l 139 0 l 139 104 l 350 104 l 350 853 l 139 853 l 139 957 l 694 957 l 694 853 z "},"J":{"ha":833,"x_min":150,"x_max":625,"o":"m 625 258 q 518 -14 625 103 q 182 -193 411 -131 l 150 -94 q 303 -33 239 -65 q 410 42 368 0 q 473 139 453 85 q 493 264 493 193 l 493 853 l 153 853 l 153 957 l 625 957 l 625 258 z "},"K":{"ha":833,"x_min":139,"x_max":818,"o":"m 271 0 l 139 0 l 139 957 l 271 957 l 271 0 m 278 511 l 642 957 l 792 957 l 429 519 l 818 0 l 656 0 l 278 511 z "},"L":{"ha":833,"x_min":182,"x_max":749,"o":"m 182 0 l 182 957 l 314 957 l 314 115 l 749 115 l 733 0 l 182 0 z "},"M":{"ha":833,"x_min":40,"x_max":793,"o":"m 668 0 l 640 490 q 635 631 638 560 q 633 751 633 703 q 634 789 633 774 q 635 811 635 804 l 631 811 l 479 171 l 353 171 l 194 811 l 189 811 l 189 588 q 186 490 189 536 l 163 0 l 40 0 l 94 957 l 269 957 l 417 318 l 422 318 l 563 957 l 739 957 l 793 0 l 668 0 z "},"N":{"ha":833,"x_min":111,"x_max":722,"o":"m 542 0 l 219 810 l 214 810 q 218 768 215 801 q 224 686 221 735 q 229 580 226 638 q 232 467 232 522 l 232 0 l 111 0 l 111 957 l 288 957 l 614 143 l 619 143 q 615 183 618 151 q 609 260 613 214 q 603 366 606 307 q 601 490 601 425 l 601 957 l 722 957 l 722 0 l 542 0 z "},"O":{"ha":833,"x_min":61,"x_max":772,"o":"m 772 478 q 750 277 772 368 q 683 121 728 186 q 571 19 638 56 q 417 -17 504 -17 q 263 19 329 -17 q 151 119 196 54 q 83 274 106 183 q 61 476 61 365 q 83 677 61 586 q 151 834 106 768 q 263 937 196 900 q 417 974 329 974 q 571 938 504 974 q 683 838 638 903 q 750 681 728 772 q 772 478 772 589 m 635 478 q 584 766 635 667 q 417 865 533 865 q 249 765 300 865 q 199 476 199 665 q 251 189 199 286 q 417 92 303 92 q 584 190 533 92 q 635 478 635 288 z "},"P":{"ha":833,"x_min":153,"x_max":776,"o":"m 636 660 q 619 751 636 714 q 574 810 603 788 q 504 844 544 833 q 417 854 464 854 l 285 854 l 285 456 l 417 456 q 504 465 464 456 q 574 497 544 474 q 619 559 603 519 q 636 660 636 599 m 776 661 q 749 519 776 578 q 672 422 721 460 q 555 368 624 385 q 406 351 486 351 l 285 351 l 285 0 l 153 0 l 153 957 l 403 957 q 676 885 576 957 q 776 661 776 813 z "},"Q":{"ha":833,"x_min":61,"x_max":829,"o":"m 772 478 q 730 213 772 326 q 586 42 688 100 l 588 38 q 670 11 633 28 q 736 -32 707 -6 q 788 -97 765 -58 q 829 -189 811 -136 l 696 -240 q 649 -142 674 -185 q 590 -72 624 -100 q 510 -28 556 -43 q 403 -14 465 -14 q 256 21 319 -14 q 149 119 192 56 q 83 274 106 183 q 61 476 61 365 q 83 677 61 586 q 151 834 106 768 q 263 937 196 900 q 417 974 329 974 q 571 938 504 974 q 683 838 638 903 q 750 681 728 772 q 772 478 772 589 m 635 478 q 584 766 635 667 q 417 865 533 865 q 249 765 300 865 q 199 476 199 665 q 251 189 199 286 q 417 92 303 92 q 584 190 533 92 q 635 478 635 288 z "},"R":{"ha":833,"x_min":135,"x_max":801,"o":"m 750 686 q 733 589 750 632 q 684 513 715 546 q 611 458 653 481 q 521 422 569 435 l 801 0 l 644 0 l 389 406 l 267 406 l 267 0 l 135 0 l 135 957 l 386 957 q 658 889 567 957 q 750 686 750 821 m 610 686 q 558 815 610 776 q 399 854 507 854 l 267 854 l 267 507 l 400 507 q 555 548 500 507 q 610 686 610 589 z "},"S":{"ha":833,"x_min":56,"x_max":750,"o":"m 750 267 q 726 152 750 204 q 658 63 703 100 q 548 4 613 25 q 401 -17 483 -17 q 203 16 289 -17 q 56 107 117 49 l 132 192 q 246 118 182 144 q 397 92 310 92 q 478 102 439 92 q 547 134 517 113 q 594 188 576 156 q 613 263 613 219 q 603 322 613 296 q 570 368 593 347 q 507 407 547 389 q 407 444 467 425 q 282 491 338 465 q 188 550 226 517 q 128 626 149 583 q 108 724 108 668 q 132 825 108 779 q 197 904 156 871 q 297 956 239 938 q 424 974 354 974 q 599 944 524 974 q 733 863 675 915 l 658 779 q 549 844 607 824 q 429 865 490 865 q 356 857 390 865 q 297 832 322 849 q 258 790 272 815 q 243 729 243 764 q 254 676 243 699 q 292 633 265 653 q 361 594 318 613 q 469 557 404 576 q 578 517 526 539 q 667 463 629 496 q 728 383 706 431 q 750 267 750 335 z "},"T":{"ha":833,"x_min":53,"x_max":781,"o":"m 481 846 l 481 0 l 349 0 l 349 846 l 53 846 l 53 957 l 781 957 l 767 846 l 481 846 z "},"U":{"ha":833,"x_min":96,"x_max":738,"o":"m 738 311 q 715 178 738 238 q 651 74 693 118 q 550 7 610 31 q 415 -17 490 -17 q 281 7 340 -17 q 180 74 221 31 q 117 178 139 118 q 96 311 96 238 l 96 957 l 228 957 l 228 317 q 276 149 228 204 q 415 94 324 94 q 604 317 604 94 l 604 957 l 738 957 l 738 311 z "},"V":{"ha":833,"x_min":31,"x_max":803,"o":"m 422 151 l 669 957 l 803 957 l 488 0 l 346 0 l 31 957 l 172 957 l 417 151 l 422 151 z "},"W":{"ha":833,"x_min":6,"x_max":828,"o":"m 686 0 l 519 0 l 417 699 l 411 699 l 293 0 l 119 0 l 6 957 l 138 957 l 210 151 l 215 151 l 342 846 l 494 846 l 597 156 l 603 156 l 707 957 l 828 957 l 686 0 z "},"X":{"ha":833,"x_min":38,"x_max":794,"o":"m 63 957 l 213 957 l 410 601 l 415 601 l 621 957 l 763 957 l 489 517 l 794 0 l 644 0 l 413 419 l 407 419 l 179 0 l 38 0 l 332 510 l 63 957 z "},"Y":{"ha":833,"x_min":28,"x_max":806,"o":"m 483 368 l 483 0 l 350 0 l 350 367 l 28 957 l 174 957 l 418 489 l 422 489 l 668 957 l 806 957 l 483 368 z "},"Z":{"ha":833,"x_min":94,"x_max":738,"o":"m 242 113 l 738 113 l 722 0 l 94 0 l 94 106 l 594 846 l 144 846 l 144 957 l 738 957 l 738 850 l 242 113 z "},"[":{"ha":833,"x_min":251,"x_max":581,"o":"m 251 -161 l 251 1133 l 581 1133 l 581 1026 l 372 1026 l 372 -56 l 581 -56 l 581 -161 l 251 -161 z "},"\\":{"ha":833,"x_min":69,"x_max":764,"o":"m 69 1076 l 171 1125 l 764 -99 l 661 -144 l 69 1076 z "},"]":{"ha":833,"x_min":253,"x_max":582,"o":"m 253 -161 l 253 -56 l 461 -56 l 461 1026 l 253 1026 l 253 1133 l 582 1133 l 582 -161 l 253 -161 z "},"^":{"ha":833,"x_min":97,"x_max":736,"o":"m 360 1167 l 474 1167 l 736 732 l 600 732 l 415 1056 l 232 732 l 97 732 l 360 1167 z "},"_":{"ha":833,"x_min":-4,"x_max":838,"o":"m -4 -253 l -4 -143 l 838 -143 l 838 -253 l -4 -253 z "},"`":{"ha":833,"x_min":251,"x_max":581,"o":"m 542 886 l 251 1003 l 317 1111 l 581 954 l 542 886 z "},"a":{"ha":833,"x_min":86,"x_max":728,"o":"m 669 165 q 683 101 669 121 q 728 72 697 82 l 697 -17 q 612 14 649 -10 q 558 86 575 38 q 457 8 519 33 q 328 -17 394 -17 q 151 45 217 -17 q 86 210 86 107 q 176 385 86 324 q 435 446 267 446 l 542 446 l 542 503 q 497 613 542 581 q 371 644 451 644 q 285 635 335 644 q 179 607 236 626 l 146 701 q 275 738 214 726 q 390 749 336 749 q 600 685 531 749 q 669 510 669 622 l 669 165 m 363 79 q 463 106 415 79 q 542 181 510 132 l 542 361 l 442 361 q 275 322 324 361 q 226 215 226 282 q 363 79 226 79 z "},"b":{"ha":833,"x_min":135,"x_max":743,"o":"m 263 639 q 355 720 303 692 q 469 749 407 749 q 594 722 542 749 q 679 644 646 694 q 728 524 713 594 q 743 367 743 453 q 724 213 743 283 q 669 92 706 143 q 578 12 632 40 q 453 -17 524 -17 q 256 75 326 -17 l 247 0 l 135 0 l 135 1026 l 263 1042 l 263 639 m 422 85 q 558 153 510 85 q 606 367 606 222 q 563 578 606 510 q 439 647 521 647 q 336 613 381 647 q 263 533 292 578 l 263 176 q 332 109 290 133 q 422 85 374 85 z "},"c":{"ha":833,"x_min":118,"x_max":715,"o":"m 467 92 q 561 106 513 92 q 654 154 610 121 l 715 67 q 596 4 664 25 q 465 -17 528 -17 q 317 10 382 -17 q 208 87 253 38 q 141 206 164 136 q 118 363 118 276 q 142 516 118 446 q 210 638 165 586 q 319 719 254 690 q 467 749 383 749 q 601 729 538 749 q 715 667 664 710 l 653 581 q 562 628 608 614 q 467 643 515 643 q 315 574 374 643 q 256 363 256 506 q 272 239 256 290 q 315 155 288 188 q 382 107 343 122 q 467 92 421 92 z "},"d":{"ha":833,"x_min":90,"x_max":699,"o":"m 411 647 q 276 578 324 647 q 228 365 228 508 q 271 153 228 222 q 397 85 314 85 q 499 119 456 85 q 571 197 542 153 l 571 557 q 501 624 542 600 q 411 647 460 647 m 378 749 q 571 664 497 749 l 571 1042 l 699 1026 l 699 0 l 586 0 l 575 94 q 483 10 535 38 q 368 -17 431 -17 q 244 11 297 -17 q 158 89 192 39 q 107 209 124 139 q 90 365 90 279 q 110 519 90 449 q 166 640 129 589 q 256 719 203 690 q 378 749 310 749 z "},"e":{"ha":833,"x_min":104,"x_max":731,"o":"m 238 322 q 305 144 246 200 q 447 88 364 88 q 546 102 497 88 q 642 156 594 117 l 700 71 q 582 7 649 31 q 444 -17 515 -17 q 299 11 363 -17 q 192 89 236 39 q 126 209 149 139 q 104 365 104 279 q 126 519 104 449 q 190 640 149 589 q 291 719 232 690 q 424 749 350 749 q 649 652 568 749 q 731 388 731 556 q 730 351 731 368 q 728 322 729 335 l 238 322 m 424 647 q 297 591 349 647 q 238 417 244 535 l 607 417 q 557 589 604 531 q 424 647 510 647 z "},"f":{"ha":833,"x_min":114,"x_max":761,"o":"m 557 1042 q 668 1031 619 1042 q 761 1001 717 1021 l 721 908 q 645 931 685 924 q 564 939 606 939 q 414 819 414 939 l 414 676 l 661 676 l 647 578 l 414 578 l 414 0 l 286 0 l 286 578 l 114 578 l 114 676 l 286 676 l 286 818 q 306 910 286 869 q 363 981 326 951 q 449 1026 399 1010 q 557 1042 499 1042 z "},"g":{"ha":833,"x_min":69,"x_max":767,"o":"m 196 -35 q 187 -60 190 -46 q 183 -92 183 -75 q 233 -168 183 -140 q 392 -196 282 -196 q 493 -187 453 -196 q 558 -162 533 -178 q 592 -127 582 -147 q 603 -83 603 -107 q 566 -13 603 -37 q 428 15 529 11 q 217 54 289 21 q 144 164 144 88 q 163 231 144 199 q 218 288 182 263 q 132 372 163 319 q 101 492 101 425 q 122 593 101 546 q 180 674 142 640 q 272 728 218 708 q 393 749 326 749 q 501 753 453 749 q 591 767 550 758 q 665 788 632 776 q 729 814 699 800 l 767 699 q 669 680 721 683 q 561 676 618 676 l 561 672 q 647 600 615 647 q 678 490 678 553 q 658 392 678 438 q 602 314 639 347 q 513 262 565 281 q 396 243 461 243 q 344 246 371 243 q 294 256 318 249 q 272 228 281 244 q 264 199 264 213 q 271 169 264 182 q 297 148 278 157 q 352 134 317 139 q 444 128 388 129 q 658 74 583 124 q 732 -76 732 24 q 705 -175 732 -133 q 632 -244 678 -217 q 524 -283 586 -271 q 392 -296 463 -296 q 244 -283 306 -296 q 144 -245 183 -269 q 88 -188 106 -221 q 69 -115 69 -156 q 74 -63 69 -90 q 97 -8 79 -36 l 196 -35 m 232 492 q 275 374 232 419 q 393 328 318 328 q 510 373 468 328 q 551 493 551 418 q 511 615 551 572 q 393 657 471 657 q 274 610 317 657 q 232 492 232 563 z "},"h":{"ha":833,"x_min":135,"x_max":700,"o":"m 135 0 l 135 1025 l 263 1039 l 263 639 q 368 720 307 692 q 494 749 429 749 q 651 692 601 749 q 700 532 700 635 l 700 0 l 572 0 l 572 524 q 543 619 572 590 q 451 649 514 649 q 394 638 422 649 q 342 611 367 628 q 297 573 318 594 q 263 531 276 551 l 263 0 l 135 0 z "},"i":{"ha":833,"x_min":163,"x_max":718,"o":"m 514 99 l 718 99 l 718 0 l 163 0 l 163 99 l 386 99 l 386 633 l 169 633 l 169 732 l 514 732 l 514 99 m 540 993 q 515 931 540 956 q 450 906 490 906 q 385 931 410 906 q 361 993 361 956 q 385 1054 361 1029 q 450 1079 410 1079 q 515 1054 490 1079 q 540 993 540 1029 z "},"j":{"ha":833,"x_min":125,"x_max":538,"o":"m 525 86 q 497 -53 525 7 q 421 -160 469 -114 q 306 -238 372 -206 q 164 -296 240 -271 l 125 -197 q 226 -155 176 -178 q 313 -99 275 -132 q 374 -24 351 -67 q 397 78 397 19 l 397 633 l 160 633 l 160 732 l 525 732 l 525 86 m 538 993 q 513 931 538 956 q 447 906 488 906 q 383 931 407 906 q 358 993 358 956 q 383 1054 358 1029 q 447 1079 407 1079 q 513 1054 488 1079 q 538 993 538 1029 z "},"k":{"ha":833,"x_min":135,"x_max":779,"o":"m 135 0 l 135 1026 l 263 1042 l 263 0 l 135 0 m 275 400 l 583 732 l 743 732 l 431 403 l 779 0 l 615 0 l 275 400 z "},"l":{"ha":833,"x_min":65,"x_max":689,"o":"m 689 22 q 613 -5 663 7 q 511 -17 564 -17 q 349 40 410 -17 q 289 197 289 96 l 289 928 l 65 928 l 65 1026 l 417 1026 l 417 186 q 449 111 417 133 q 535 89 482 89 q 595 96 564 89 q 656 114 626 103 l 689 22 z "},"m":{"ha":833,"x_min":67,"x_max":767,"o":"m 183 0 l 67 0 l 67 732 l 165 732 l 174 649 q 241 720 204 692 q 332 749 278 749 q 410 730 374 749 q 463 653 447 711 q 531 722 493 696 q 624 749 568 749 q 677 740 651 749 q 723 709 703 732 q 755 647 743 686 q 767 544 767 607 l 767 0 l 650 0 l 650 525 q 642 619 650 590 q 596 649 635 649 q 533 629 564 649 q 474 565 503 610 l 474 0 l 360 0 l 360 525 q 351 619 360 590 q 304 649 343 649 q 242 629 272 649 q 183 565 213 610 l 183 0 z "},"n":{"ha":833,"x_min":135,"x_max":700,"o":"m 135 0 l 135 732 l 244 732 l 254 632 q 364 719 299 689 q 494 749 429 749 q 651 692 601 749 q 700 532 700 635 l 700 0 l 572 0 l 572 449 q 568 540 572 503 q 551 602 564 578 q 515 638 539 626 q 451 649 492 649 q 394 638 422 649 q 342 611 367 628 q 297 573 318 594 q 263 531 276 551 l 263 0 l 135 0 z "},"o":{"ha":833,"x_min":97,"x_max":736,"o":"m 600 367 q 555 578 600 510 q 418 646 510 646 q 280 578 326 646 q 233 365 233 510 q 279 154 233 222 q 417 86 325 86 q 554 154 508 86 q 600 367 600 222 m 97 365 q 118 521 97 450 q 179 642 139 592 q 280 721 219 693 q 418 749 340 749 q 556 722 496 749 q 656 644 615 694 q 716 524 696 594 q 736 367 736 454 q 715 211 736 282 q 654 90 694 140 q 554 11 614 39 q 417 -17 494 -17 q 279 10 339 -17 q 179 88 219 38 q 118 208 139 138 q 97 365 97 278 z "},"p":{"ha":833,"x_min":135,"x_max":736,"o":"m 135 -296 l 135 732 l 244 732 l 254 632 q 351 719 294 689 q 471 749 407 749 q 594 722 543 749 q 676 644 644 694 q 722 524 708 594 q 736 367 736 453 q 719 213 736 283 q 666 92 701 143 q 578 12 631 40 q 454 -17 525 -17 q 263 67 332 -17 l 263 -281 l 135 -296 m 424 88 q 556 155 511 88 q 600 367 600 222 q 561 578 600 510 q 439 647 522 647 q 336 613 381 647 q 263 533 292 578 l 263 176 q 332 110 290 133 q 424 88 374 88 z "},"q":{"ha":833,"x_min":97,"x_max":699,"o":"m 410 647 q 233 365 233 647 q 274 155 233 222 q 396 88 314 88 q 498 120 454 88 q 571 197 542 153 l 571 557 q 501 624 543 600 q 410 647 460 647 m 699 -296 l 571 -281 l 571 89 q 479 9 531 35 q 367 -17 428 -17 q 242 10 293 -17 q 158 88 190 38 q 112 208 126 138 q 97 365 97 279 q 115 519 97 449 q 169 640 133 589 q 257 719 204 690 q 378 749 310 749 q 579 654 504 749 l 589 732 l 699 732 l 699 -296 z "},"r":{"ha":833,"x_min":128,"x_max":728,"o":"m 628 0 l 128 0 l 128 99 l 296 99 l 296 633 l 128 633 l 128 732 l 407 732 l 422 592 q 510 709 454 669 q 631 749 565 749 q 676 747 657 749 q 728 738 696 744 l 704 611 q 658 621 676 618 q 615 624 639 624 q 550 608 581 624 q 494 565 519 592 q 451 502 469 538 q 424 429 433 467 l 424 99 l 628 99 l 628 0 z "},"s":{"ha":833,"x_min":85,"x_max":694,"o":"m 382 86 q 510 116 464 86 q 557 197 557 146 q 551 243 557 224 q 526 278 544 263 q 473 306 507 293 q 382 333 439 318 q 283 365 328 347 q 207 406 239 382 q 158 464 175 431 q 140 546 140 497 q 160 629 140 592 q 218 693 181 667 q 308 734 256 719 q 424 749 360 749 q 566 727 503 749 q 678 671 629 706 l 621 585 q 533 631 581 614 q 426 647 486 647 q 306 623 340 647 q 272 554 272 599 q 281 515 272 531 q 313 485 290 499 q 370 458 335 471 q 460 431 406 446 q 556 399 513 415 q 630 357 599 382 q 678 296 661 332 q 694 207 694 260 q 668 105 694 147 q 598 35 642 63 q 498 -4 554 8 q 382 -17 442 -17 q 207 13 281 -17 q 85 83 133 42 l 156 164 q 258 107 199 128 q 382 86 317 86 z "},"t":{"ha":833,"x_min":121,"x_max":739,"o":"m 739 38 q 646 -2 700 13 q 538 -17 592 -17 q 351 47 415 -17 q 288 210 288 110 l 288 635 l 121 635 l 121 732 l 288 732 l 288 897 l 415 913 l 415 732 l 667 732 l 651 635 l 415 635 l 415 211 q 447 119 415 149 q 551 89 478 89 q 627 99 592 89 q 690 125 663 108 l 739 38 z "},"u":{"ha":833,"x_min":135,"x_max":699,"o":"m 263 732 l 263 215 q 291 114 263 144 q 381 83 319 83 q 490 117 439 83 q 571 196 542 150 l 571 732 l 699 732 l 699 0 l 589 0 l 579 97 q 474 13 536 42 q 346 -17 411 -17 q 187 40 239 -17 q 135 200 135 97 l 135 732 l 263 732 z "},"v":{"ha":833,"x_min":79,"x_max":754,"o":"m 490 0 l 342 0 l 79 732 l 215 732 l 417 118 l 421 118 l 622 732 l 754 732 l 490 0 z "},"w":{"ha":833,"x_min":22,"x_max":811,"o":"m 686 0 l 513 0 l 422 518 l 417 518 l 322 0 l 153 0 l 22 732 l 150 732 l 239 97 l 244 97 l 351 639 l 494 639 l 594 100 l 600 100 l 689 732 l 811 732 l 686 0 z "},"x":{"ha":833,"x_min":72,"x_max":761,"o":"m 410 306 l 217 0 l 72 0 l 340 386 l 104 732 l 254 732 l 415 468 l 421 468 l 583 732 l 728 732 l 493 392 l 761 0 l 607 0 l 415 306 l 410 306 z "},"y":{"ha":833,"x_min":81,"x_max":753,"o":"m 497 -4 q 450 -112 478 -62 q 383 -201 422 -162 q 289 -264 343 -239 q 161 -296 235 -289 l 143 -196 q 237 -170 199 -186 q 301 -131 275 -154 q 344 -74 328 -107 q 376 0 361 -42 l 333 0 l 81 732 l 217 732 l 417 103 l 422 103 l 621 732 l 753 732 l 497 -4 z "},"z":{"ha":833,"x_min":138,"x_max":696,"o":"m 293 107 l 696 107 l 681 0 l 138 0 l 138 96 l 539 624 l 169 624 l 169 732 l 692 732 l 692 635 l 293 107 z "},"{":{"ha":833,"x_min":203,"x_max":629,"o":"m 203 538 q 308 574 275 538 q 342 682 342 610 l 342 940 q 363 1048 342 1006 q 423 1115 385 1090 q 514 1151 461 1140 q 629 1161 567 1161 l 629 1063 q 508 1040 554 1063 q 463 954 463 1017 l 463 678 q 424 544 463 588 q 317 489 385 500 l 317 483 q 424 430 385 472 q 463 294 463 388 l 463 18 q 508 -68 463 -46 q 629 -90 554 -90 l 629 -189 q 514 -178 567 -189 q 423 -143 461 -168 q 363 -76 385 -118 q 342 32 342 -33 l 342 289 q 308 398 342 361 q 203 435 275 435 l 203 538 z "},"|":{"ha":833,"x_min":358,"x_max":474,"o":"m 358 1121 l 474 1121 l 474 -142 l 358 -142 l 358 1121 z "},"}":{"ha":833,"x_min":204,"x_max":631,"o":"m 631 435 q 525 398 558 435 q 492 289 492 361 l 492 32 q 470 -76 492 -33 q 410 -143 449 -118 q 319 -178 372 -168 q 204 -189 267 -189 l 204 -90 q 325 -68 279 -90 q 371 18 371 -46 l 371 294 q 410 430 371 388 q 517 483 449 472 l 517 489 q 410 544 449 500 q 371 678 371 588 l 371 954 q 325 1040 371 1017 q 204 1063 279 1063 l 204 1161 q 319 1151 267 1161 q 410 1115 372 1140 q 470 1048 449 1090 q 492 940 492 1006 l 492 682 q 525 574 492 610 q 631 538 558 538 l 631 435 z "},"~":{"ha":833,"x_min":57,"x_max":776,"o":"m 549 314 q 464 335 500 314 q 398 383 428 357 q 341 431 368 410 q 281 453 314 453 q 204 419 236 453 q 144 336 172 386 l 57 379 q 94 444 74 411 q 141 502 114 476 q 203 544 168 528 q 285 561 239 561 q 373 540 336 561 q 439 492 410 518 q 494 444 468 465 q 553 422 521 422 q 628 456 596 422 q 689 539 661 489 l 776 494 q 740 431 760 463 q 692 372 719 399 q 630 330 665 346 q 549 314 594 314 z "},"":{"ha":833,"x_min":94,"x_max":738,"o":"m 242 113 l 738 113 l 722 0 l 94 0 l 94 106 l 594 846 l 144 846 l 144 957 l 738 957 l 738 850 l 242 113 m 439 1157 l 614 1271 l 668 1208 l 481 1054 l 396 1054 l 207 1208 l 263 1271 l 439 1157 z "},"":{"ha":833,"x_min":138,"x_max":696,"o":"m 293 107 l 696 107 l 681 0 l 138 0 l 138 96 l 539 624 l 169 624 l 169 732 l 692 732 l 692 635 l 293 107 m 425 974 l 599 1100 l 654 1039 l 467 871 l 382 871 l 193 1039 l 251 1100 l 425 974 z "}," ":{"ha":833,"x_min":0,"x_max":0,"o":""},"¡":{"ha":833,"x_min":319,"x_max":513,"o":"m 513 597 q 484 529 513 557 q 415 501 456 501 q 347 529 375 501 q 319 597 319 557 q 347 666 319 638 q 415 694 375 694 q 484 666 456 694 q 513 597 513 638 m 469 358 l 489 -275 l 343 -275 l 361 358 l 469 358 z "},"¢":{"ha":833,"x_min":143,"x_max":690,"o":"m 469 92 q 547 105 510 92 q 629 153 585 118 l 690 64 q 608 14 650 31 q 521 -10 565 -3 l 521 -214 l 411 -214 l 411 -8 q 210 108 278 10 q 143 363 143 206 q 160 502 143 438 q 211 617 178 567 q 295 699 244 667 q 413 740 346 731 l 413 950 l 521 950 l 521 742 q 608 719 565 736 q 690 669 650 701 l 628 586 q 547 631 583 619 q 469 643 510 643 q 331 574 381 643 q 281 363 281 506 q 331 155 281 218 q 469 92 382 92 z "},"£":{"ha":833,"x_min":99,"x_max":735,"o":"m 213 714 q 231 817 213 769 q 283 900 249 865 q 368 954 318 935 q 482 974 418 974 q 624 945 560 974 q 735 851 688 917 l 650 788 q 576 849 615 831 q 488 868 538 868 q 340 704 340 868 l 340 540 l 624 540 l 624 456 l 340 456 l 340 290 q 326 186 340 233 q 263 113 311 139 l 263 107 l 722 107 l 707 0 l 99 0 l 99 101 q 163 133 140 114 q 197 174 186 151 q 210 225 208 197 q 213 286 213 253 l 213 456 l 100 456 l 100 540 l 213 540 l 213 714 z "},"¤":{"ha":833,"x_min":47,"x_max":786,"o":"m 247 724 q 418 769 321 769 q 586 724 517 769 l 708 846 l 786 768 l 667 647 q 703 569 690 613 q 717 475 717 525 q 703 379 717 422 q 665 300 689 336 l 786 181 l 708 103 l 585 224 q 418 179 515 179 q 247 224 319 179 l 125 101 l 47 179 l 169 301 q 133 381 146 338 q 121 475 121 424 q 133 568 121 525 q 168 646 146 611 l 47 769 l 125 847 l 247 724 m 418 281 q 547 332 504 281 q 590 475 590 383 q 547 618 590 567 q 418 669 504 669 q 288 618 332 669 q 244 475 244 567 q 288 332 244 383 q 418 281 332 281 z "},"¥":{"ha":833,"x_min":50,"x_max":783,"o":"m 315 481 l 50 957 l 193 957 l 418 522 l 424 522 l 649 957 l 783 957 l 517 481 l 679 481 l 679 396 l 483 396 l 483 279 l 679 279 l 679 194 l 483 194 l 483 0 l 350 0 l 350 194 l 157 194 l 157 279 l 350 279 l 350 396 l 157 396 l 157 481 l 315 481 z "},"¦":{"ha":833,"x_min":358,"x_max":474,"o":"m 358 1121 l 474 1121 l 474 626 l 358 626 l 358 1121 m 358 353 l 474 353 l 474 -142 l 358 -142 l 358 353 z "},"§":{"ha":833,"x_min":143,"x_max":689,"o":"m 143 443 q 176 544 143 500 q 256 617 210 589 q 195 683 217 646 q 174 768 174 721 q 194 853 174 815 q 251 918 215 892 q 336 959 288 944 q 440 974 385 974 q 573 953 517 974 q 676 899 629 932 l 618 814 q 535 857 576 842 q 435 872 493 872 q 341 847 376 872 q 306 778 306 821 q 313 738 306 754 q 338 706 319 721 q 390 677 357 692 q 476 644 424 663 q 638 561 588 608 q 689 432 689 514 q 656 329 689 374 q 578 257 624 285 q 638 192 615 229 q 660 106 660 154 q 640 20 660 58 q 583 -44 619 -18 q 497 -85 547 -71 q 388 -99 447 -99 q 251 -78 310 -99 q 146 -22 192 -57 l 204 63 q 290 18 246 33 q 392 3 333 3 q 489 28 450 3 q 528 97 528 53 q 521 137 528 119 q 495 169 514 154 q 443 198 476 183 q 357 229 410 213 q 194 313 246 267 q 143 443 143 360 m 268 460 q 278 411 268 431 q 314 375 288 392 q 385 341 340 358 q 501 299 431 324 q 549 356 532 325 q 565 415 565 386 q 556 462 565 443 q 519 497 546 481 q 448 531 493 514 q 332 575 403 549 q 284 518 300 549 q 268 460 268 488 z "},"¨":{"ha":833,"x_min":190,"x_max":642,"o":"m 271 908 q 213 931 236 908 q 190 988 190 954 q 213 1044 190 1021 q 271 1067 236 1067 q 327 1044 304 1067 q 350 988 350 1021 q 327 931 350 954 q 271 908 304 908 m 561 908 q 505 931 528 908 q 482 988 482 954 q 505 1044 482 1021 q 561 1067 528 1067 q 619 1044 596 1067 q 642 988 642 1021 q 619 931 642 954 q 561 908 596 908 z "},"©":{"ha":833,"x_min":38,"x_max":796,"o":"m 429 428 q 494 440 465 428 q 546 475 522 453 l 593 406 q 524 360 564 379 q 425 340 483 340 q 261 408 325 340 q 197 604 197 475 q 215 717 197 668 q 265 800 233 767 q 337 851 296 833 q 424 868 378 868 q 513 854 476 868 q 586 813 550 840 l 535 744 q 429 785 485 785 q 340 743 376 785 q 303 604 303 701 q 338 470 303 513 q 429 428 372 428 m 418 242 q 549 270 493 242 q 642 347 604 299 q 697 462 679 396 q 715 603 715 528 q 697 744 715 678 q 642 860 679 811 q 549 938 604 910 q 418 967 493 967 q 287 938 343 967 q 193 860 231 910 q 138 744 156 811 q 119 603 119 678 q 138 462 119 528 q 193 347 156 396 q 287 270 231 299 q 418 242 343 242 m 418 168 q 257 202 328 168 q 138 295 186 236 q 63 433 89 354 q 38 603 38 513 q 63 773 38 693 q 138 912 89 853 q 257 1005 186 971 q 418 1039 328 1039 q 578 1005 508 1039 q 697 912 649 971 q 771 773 746 853 q 796 603 796 693 q 771 433 796 513 q 697 295 746 354 q 578 202 649 236 q 418 168 508 168 z "},"ª":{"ha":833,"x_min":139,"x_max":694,"o":"m 638 576 q 649 529 638 544 q 683 507 660 514 l 656 426 q 581 451 611 432 q 536 508 551 469 q 452 447 501 468 q 350 426 403 426 q 197 477 254 426 q 139 611 139 528 q 218 753 139 704 q 440 803 297 803 l 521 803 l 521 842 q 486 924 521 900 q 386 947 451 947 q 313 940 357 947 q 218 914 268 932 l 185 1000 q 301 1033 247 1024 q 403 1042 356 1042 q 581 990 524 1042 q 638 846 638 938 l 638 576 m 379 514 q 457 534 419 514 q 521 590 494 554 l 521 721 l 444 721 q 307 694 349 721 q 265 617 265 667 q 295 540 265 565 q 379 514 325 514 m 146 0 l 146 110 l 694 110 l 694 0 l 146 0 z "},"«":{"ha":833,"x_min":110,"x_max":722,"o":"m 429 119 l 353 71 l 110 361 l 110 451 l 353 743 l 429 694 l 244 407 l 429 119 m 722 119 l 646 71 l 401 361 l 401 451 l 646 743 l 722 694 l 538 407 l 722 119 z "},"¬":{"ha":833,"x_min":156,"x_max":678,"o":"m 678 182 l 563 182 l 563 381 l 156 381 l 156 488 l 678 488 l 678 182 z "},"­":{"ha":833,"x_min":199,"x_max":635,"o":"m 199 381 l 199 489 l 635 489 l 635 381 l 199 381 z "},"®":{"ha":833,"x_min":61,"x_max":771,"o":"m 417 328 q 278 356 343 328 q 165 431 213 383 q 89 544 117 479 q 61 682 61 608 q 89 821 61 756 q 165 935 117 886 q 278 1011 213 983 q 417 1039 343 1039 q 555 1011 490 1039 q 667 935 619 983 q 743 821 715 886 q 771 682 771 756 q 743 544 771 608 q 667 431 715 479 q 555 356 619 383 q 417 328 490 328 m 417 396 q 527 418 476 396 q 615 479 578 440 q 674 570 653 518 q 694 682 694 622 q 674 794 694 742 q 615 886 653 847 q 527 948 578 925 q 417 971 476 971 q 306 948 357 971 q 217 886 254 925 q 158 794 179 847 q 138 682 138 742 q 158 570 138 622 q 217 479 179 518 q 306 418 254 440 q 417 396 357 396 m 568 765 q 542 694 568 721 q 476 656 517 667 l 594 492 l 500 492 l 397 642 l 358 642 l 358 492 l 278 492 l 278 883 l 396 883 q 568 765 568 883 m 485 765 q 399 821 485 821 l 358 821 l 358 704 l 401 704 q 463 718 442 704 q 485 765 485 732 z "},"¯":{"ha":833,"x_min":226,"x_max":606,"o":"m 606 947 l 226 947 l 226 1043 l 606 1043 l 606 947 z "},"°":{"ha":833,"x_min":92,"x_max":547,"o":"m 319 690 q 404 723 368 690 q 440 822 440 756 q 404 922 440 889 q 319 954 368 954 q 235 922 272 954 q 199 824 199 890 q 235 723 199 756 q 319 690 272 690 m 319 603 q 235 617 276 603 q 163 660 194 632 q 111 729 131 688 q 92 824 92 771 q 111 916 92 875 q 163 985 131 957 q 235 1027 194 1013 q 319 1042 276 1042 q 404 1027 363 1042 q 477 985 446 1013 q 528 916 508 957 q 547 822 547 875 q 528 728 547 769 q 477 660 508 688 q 404 617 446 632 q 319 603 363 603 z "},"±":{"ha":833,"x_min":156,"x_max":678,"o":"m 476 381 l 476 208 l 357 208 l 357 381 l 156 381 l 156 486 l 357 486 l 357 694 l 476 694 l 476 486 l 678 486 l 678 381 l 476 381 m 156 0 l 156 108 l 678 108 l 678 0 l 156 0 z "},"²":{"ha":833,"x_min":213,"x_max":619,"o":"m 606 832 q 594 772 606 799 q 555 721 582 746 q 483 670 528 696 q 375 613 439 644 l 619 613 l 607 525 l 221 525 l 221 601 q 356 684 303 651 q 439 741 408 717 q 481 785 469 765 q 493 826 493 804 q 472 874 493 857 q 414 892 451 892 q 349 877 381 892 q 286 826 317 863 l 213 882 q 419 979 297 979 q 558 938 510 979 q 606 832 606 897 z "},"³":{"ha":833,"x_min":203,"x_max":629,"o":"m 629 657 q 573 556 629 594 q 414 517 517 517 q 301 535 357 517 q 203 597 246 553 l 269 653 q 339 612 301 625 q 417 599 376 599 q 494 616 469 599 q 518 665 518 633 q 494 716 518 701 q 422 731 471 731 l 357 731 l 368 793 l 417 793 q 479 805 457 793 q 501 844 501 817 q 419 899 501 899 q 347 887 382 899 q 276 847 313 875 l 219 907 q 319 963 268 947 q 428 979 371 979 q 562 946 514 979 q 610 860 610 913 q 589 801 610 824 q 521 771 568 779 l 521 767 q 600 735 571 760 q 629 657 629 710 z "},"´":{"ha":833,"x_min":251,"x_max":581,"o":"m 251 954 l 515 1110 l 581 1003 l 290 886 l 251 954 z "},"µ":{"ha":833,"x_min":119,"x_max":714,"o":"m 247 732 l 247 321 q 251 224 247 267 q 266 153 254 182 q 301 108 278 124 q 365 93 325 93 q 474 125 428 93 q 550 200 519 157 l 550 732 l 678 732 l 678 236 q 690 104 678 164 q 714 0 701 44 l 594 -17 q 574 38 583 3 q 563 100 565 72 q 478 15 531 47 q 371 -17 425 -17 q 236 42 278 -17 l 231 40 q 242 -19 238 11 q 246 -78 246 -50 l 246 -281 l 119 -296 l 119 732 l 247 732 z "},"¶":{"ha":833,"x_min":56,"x_max":776,"o":"m 661 -296 l 661 854 l 510 854 l 510 -281 l 394 -296 l 394 397 q 247 420 310 399 q 141 479 183 442 q 77 567 99 517 q 56 675 56 617 q 78 786 56 735 q 144 876 100 838 q 255 935 189 914 q 408 957 321 957 l 776 957 l 776 -281 l 661 -296 z "},"·":{"ha":833,"x_min":290,"x_max":542,"o":"m 290 469 q 300 519 290 496 q 326 558 310 542 q 366 585 343 575 q 415 594 389 594 q 506 558 469 594 q 542 469 542 522 q 506 380 542 417 q 415 343 469 343 q 326 380 363 343 q 290 469 290 417 z "},"¸":{"ha":833,"x_min":256,"x_max":576,"o":"m 469 -196 q 438 -149 469 -160 q 349 -137 406 -137 l 361 22 l 446 22 l 446 -78 q 546 -119 515 -85 q 576 -196 576 -153 q 563 -256 576 -231 q 524 -299 549 -282 q 469 -326 500 -317 q 403 -335 438 -335 q 322 -325 360 -335 q 256 -300 283 -315 l 294 -229 q 339 -246 314 -240 q 388 -251 364 -251 q 447 -239 424 -251 q 469 -196 469 -226 z "},"¹":{"ha":833,"x_min":274,"x_max":560,"o":"m 456 525 l 456 853 l 325 782 l 274 854 l 475 971 l 560 971 l 560 525 l 456 525 z "},"º":{"ha":833,"x_min":131,"x_max":701,"o":"m 576 735 q 534 896 576 844 q 417 947 492 947 q 299 896 342 947 q 256 735 256 844 q 299 572 256 624 q 417 521 342 521 q 534 572 492 521 q 576 735 576 624 m 131 735 q 151 859 131 803 q 208 956 171 915 q 299 1019 246 996 q 417 1042 351 1042 q 535 1020 482 1042 q 624 958 588 999 q 681 861 661 918 q 701 735 701 804 q 681 610 701 667 q 624 513 661 553 q 535 449 588 472 q 417 426 482 426 q 299 449 351 426 q 208 511 246 471 q 151 608 171 551 q 131 735 131 665 m 143 0 l 143 110 l 692 110 l 692 0 l 143 0 z "},"»":{"ha":833,"x_min":110,"x_max":722,"o":"m 294 407 l 110 694 l 186 743 l 429 451 l 429 361 l 186 71 l 110 119 l 294 407 m 586 407 l 401 694 l 478 743 l 722 451 l 722 361 l 478 71 l 401 119 l 586 407 z "},"¼":{"ha":833,"x_min":7,"x_max":804,"o":"m 729 78 l 729 0 l 624 0 l 624 78 l 375 78 l 375 147 l 561 460 l 651 424 l 494 163 l 624 163 l 633 281 l 729 281 l 729 163 l 804 163 l 804 78 l 729 78 m 219 525 l 219 853 l 89 782 l 38 854 l 239 971 l 324 971 l 324 525 l 219 525 m 51 254 l 7 332 l 750 688 l 793 610 l 51 254 z "},"½":{"ha":833,"x_min":0,"x_max":821,"o":"m 213 525 l 213 853 l 82 782 l 31 854 l 232 971 l 317 971 l 317 525 l 213 525 m 44 254 l 0 332 l 743 688 l 786 610 l 44 254 m 807 307 q 795 247 807 274 q 756 196 783 221 q 685 145 729 171 q 576 88 640 119 l 821 88 l 808 0 l 422 0 l 422 76 q 557 159 504 126 q 640 216 610 192 q 683 260 671 240 q 694 301 694 279 q 674 349 694 332 q 615 367 653 367 q 550 352 582 367 q 488 301 518 338 l 414 357 q 621 454 499 454 q 759 413 711 454 q 807 307 807 372 z "},"¾":{"ha":833,"x_min":15,"x_max":814,"o":"m 442 657 q 385 556 442 594 q 226 517 329 517 q 114 535 169 517 q 15 597 58 553 l 82 653 q 151 612 114 625 q 229 599 189 599 q 306 616 282 599 q 331 665 331 633 q 307 716 331 701 q 235 731 283 731 l 169 731 l 181 793 l 229 793 q 292 805 269 793 q 314 844 314 817 q 232 899 314 899 q 160 887 194 899 q 89 847 125 875 l 32 907 q 132 963 81 947 q 240 979 183 979 q 374 946 326 979 q 422 860 422 913 q 401 801 422 824 q 333 771 381 779 l 333 767 q 413 735 383 760 q 442 657 442 710 m 60 254 l 15 332 l 758 688 l 801 610 l 60 254 m 739 78 l 739 0 l 633 0 l 633 78 l 385 78 l 385 147 l 571 460 l 661 424 l 504 163 l 633 163 l 643 281 l 739 281 l 739 163 l 814 163 l 814 78 l 739 78 z "},"¿":{"ha":833,"x_min":139,"x_max":714,"o":"m 546 597 q 517 529 546 557 q 449 501 489 501 q 381 529 408 501 q 353 597 353 557 q 381 666 353 638 q 449 694 408 694 q 517 666 489 694 q 546 597 546 638 m 390 358 l 517 358 l 517 306 q 499 210 517 249 q 453 142 481 171 q 394 90 426 113 q 335 44 363 67 q 290 -6 308 21 q 272 -71 272 -33 q 317 -160 272 -129 q 431 -190 363 -190 q 531 -167 479 -190 q 625 -90 582 -143 l 714 -157 q 579 -262 653 -228 q 418 -296 506 -296 q 301 -278 353 -296 q 213 -229 249 -260 q 158 -160 176 -199 q 139 -79 139 -121 q 158 13 139 -24 q 204 77 176 50 q 265 126 232 104 q 325 172 297 147 q 372 230 353 197 q 390 313 390 263 l 390 358 z "},"À":{"ha":833,"x_min":24,"x_max":810,"o":"m 597 240 l 229 240 l 156 0 l 24 0 l 333 957 l 500 957 l 810 0 l 671 0 l 597 240 m 261 347 l 565 347 l 417 838 l 411 838 l 261 347 m 539 1049 l 249 1163 l 315 1269 l 576 1117 l 539 1049 z "},"Á":{"ha":833,"x_min":24,"x_max":810,"o":"m 597 240 l 229 240 l 156 0 l 24 0 l 333 957 l 500 957 l 810 0 l 671 0 l 597 240 m 261 347 l 565 347 l 417 838 l 411 838 l 261 347 m 253 1119 l 515 1271 l 581 1164 l 292 1051 l 253 1119 z "},"Â":{"ha":833,"x_min":24,"x_max":810,"o":"m 597 240 l 229 240 l 156 0 l 24 0 l 333 957 l 500 957 l 810 0 l 671 0 l 597 240 m 261 347 l 565 347 l 417 838 l 411 838 l 261 347 m 242 1054 l 186 1117 l 375 1271 l 460 1271 l 647 1117 l 593 1054 l 417 1167 l 242 1054 z "},"Ã":{"ha":833,"x_min":24,"x_max":810,"o":"m 597 240 l 229 240 l 156 0 l 24 0 l 333 957 l 500 957 l 810 0 l 671 0 l 597 240 m 261 347 l 565 347 l 417 838 l 411 838 l 261 347 m 489 1074 q 437 1084 458 1074 q 399 1107 415 1094 q 367 1130 382 1119 q 336 1140 353 1140 q 297 1124 313 1140 q 265 1079 282 1108 l 186 1114 q 244 1200 207 1163 q 343 1238 282 1238 q 396 1227 374 1238 q 435 1204 418 1217 l 465 1181 q 496 1171 479 1171 q 535 1186 519 1171 q 567 1231 550 1201 l 646 1196 q 586 1110 624 1147 q 489 1074 549 1074 z "},"Ä":{"ha":833,"x_min":24,"x_max":810,"o":"m 597 240 l 229 240 l 156 0 l 24 0 l 333 957 l 500 957 l 810 0 l 671 0 l 597 240 m 261 347 l 565 347 l 417 838 l 411 838 l 261 347 m 269 1068 q 213 1090 236 1068 q 190 1147 190 1113 q 213 1203 190 1181 q 269 1225 236 1225 q 327 1203 304 1225 q 350 1147 350 1181 q 327 1090 350 1113 q 269 1068 304 1068 m 561 1068 q 503 1090 526 1068 q 481 1147 481 1113 q 503 1203 481 1181 q 561 1225 526 1225 q 618 1203 594 1225 q 642 1147 642 1181 q 618 1090 642 1113 q 561 1068 594 1068 z "},"Å":{"ha":833,"x_min":24,"x_max":810,"o":"m 597 240 l 229 240 l 156 0 l 24 0 l 333 957 l 500 957 l 810 0 l 671 0 l 597 240 m 261 347 l 565 347 l 417 838 l 411 838 l 261 347 m 342 1174 q 362 1116 342 1138 q 417 1094 382 1094 q 470 1116 450 1094 q 490 1174 490 1138 q 470 1231 490 1210 q 417 1251 450 1251 q 362 1231 382 1251 q 342 1174 342 1210 m 575 1174 q 531 1069 575 1111 q 417 1026 488 1026 q 302 1069 346 1026 q 258 1174 258 1111 q 302 1277 258 1235 q 417 1319 346 1319 q 531 1277 488 1319 q 575 1174 575 1235 z "},"Æ":{"ha":833,"x_min":-17,"x_max":843,"o":"m 456 240 l 182 240 l 117 0 l -17 0 l 260 957 l 786 957 l 771 853 l 451 853 l 519 538 l 774 538 l 774 433 l 539 433 l 608 104 l 843 104 l 843 0 l 504 0 l 456 240 m 213 347 l 433 347 l 338 840 l 331 840 l 213 347 z "},"Ç":{"ha":833,"x_min":76,"x_max":785,"o":"m 532 -196 q 500 -149 532 -160 q 411 -137 468 -137 l 421 -11 q 281 38 344 0 q 172 137 218 75 q 101 285 126 199 q 76 479 76 371 q 110 692 76 600 q 199 847 143 785 q 331 942 256 910 q 490 974 406 974 q 649 949 585 974 q 771 879 714 924 l 699 794 q 604 848 654 831 q 499 865 554 865 q 390 845 442 865 q 300 780 339 825 q 239 661 261 735 q 217 479 217 588 q 238 302 217 375 q 297 183 260 229 q 386 116 335 138 q 497 94 438 94 q 628 119 576 94 q 717 176 681 144 l 785 90 q 673 18 740 50 q 508 -17 606 -14 l 508 -78 q 608 -119 578 -85 q 639 -196 639 -153 q 625 -256 639 -231 q 587 -299 611 -282 q 531 -326 563 -317 q 465 -335 500 -335 q 384 -325 422 -335 q 318 -300 346 -315 l 357 -229 q 401 -246 376 -240 q 449 -251 426 -251 q 509 -239 486 -251 q 532 -196 532 -226 z "},"È":{"ha":833,"x_min":156,"x_max":719,"o":"m 288 851 l 288 539 l 640 539 l 640 433 l 288 433 l 288 104 l 719 104 l 719 0 l 156 0 l 156 957 l 708 957 l 693 851 l 288 851 m 557 1049 l 267 1163 l 333 1269 l 594 1117 l 557 1049 z "},"É":{"ha":833,"x_min":156,"x_max":719,"o":"m 288 851 l 288 539 l 640 539 l 640 433 l 288 433 l 288 104 l 719 104 l 719 0 l 156 0 l 156 957 l 708 957 l 693 851 l 288 851 m 282 1117 l 544 1268 l 610 1161 l 321 1049 l 282 1117 z "},"Ê":{"ha":833,"x_min":156,"x_max":719,"o":"m 288 851 l 288 539 l 640 539 l 640 433 l 288 433 l 288 104 l 719 104 l 719 0 l 156 0 l 156 957 l 708 957 l 693 851 l 288 851 m 256 1054 l 200 1117 l 389 1271 l 474 1271 l 661 1117 l 607 1054 l 431 1167 l 256 1054 z "},"Ë":{"ha":833,"x_min":156,"x_max":719,"o":"m 288 851 l 288 539 l 640 539 l 640 433 l 288 433 l 288 104 l 719 104 l 719 0 l 156 0 l 156 957 l 708 957 l 693 851 l 288 851 m 283 1068 q 227 1090 250 1068 q 204 1147 204 1113 q 227 1203 204 1181 q 283 1225 250 1225 q 341 1203 318 1225 q 364 1147 364 1181 q 341 1090 364 1113 q 283 1068 318 1068 m 575 1068 q 517 1090 540 1068 q 494 1147 494 1113 q 517 1203 494 1181 q 575 1225 540 1225 q 632 1203 608 1225 q 656 1147 656 1181 q 632 1090 656 1113 q 575 1068 608 1068 z "},"Ì":{"ha":833,"x_min":139,"x_max":694,"o":"m 694 853 l 483 853 l 483 104 l 694 104 l 694 0 l 139 0 l 139 104 l 350 104 l 350 853 l 139 853 l 139 957 l 694 957 l 694 853 m 543 1049 l 253 1163 l 319 1269 l 581 1117 l 543 1049 z "},"Í":{"ha":833,"x_min":139,"x_max":694,"o":"m 694 853 l 483 853 l 483 104 l 694 104 l 694 0 l 139 0 l 139 104 l 350 104 l 350 853 l 139 853 l 139 957 l 694 957 l 694 853 m 253 1117 l 515 1268 l 581 1161 l 292 1049 l 253 1117 z "},"Î":{"ha":833,"x_min":139,"x_max":694,"o":"m 694 853 l 483 853 l 483 104 l 694 104 l 694 0 l 139 0 l 139 104 l 350 104 l 350 853 l 139 853 l 139 957 l 694 957 l 694 853 m 242 1054 l 186 1117 l 375 1271 l 460 1271 l 647 1117 l 593 1054 l 417 1167 l 242 1054 z "},"Ï":{"ha":833,"x_min":139,"x_max":694,"o":"m 694 853 l 483 853 l 483 104 l 694 104 l 694 0 l 139 0 l 139 104 l 350 104 l 350 853 l 139 853 l 139 957 l 694 957 l 694 853 m 271 1068 q 215 1090 238 1068 q 192 1147 192 1113 q 215 1203 192 1181 q 271 1225 238 1225 q 328 1203 306 1225 q 351 1147 351 1181 q 328 1090 351 1113 q 271 1068 306 1068 m 563 1068 q 505 1090 528 1068 q 482 1147 482 1113 q 505 1203 482 1181 q 563 1225 528 1225 q 619 1203 596 1225 q 643 1147 643 1181 q 619 1090 643 1113 q 563 1068 596 1068 z "},"Ð":{"ha":833,"x_min":19,"x_max":779,"o":"m 779 483 q 740 239 779 333 q 638 92 700 144 q 497 19 575 39 q 343 0 419 0 l 119 0 l 119 442 l 19 442 l 19 539 l 119 539 l 119 957 l 328 957 q 494 939 413 957 q 638 869 575 921 q 740 725 701 818 q 779 483 779 632 m 639 483 q 613 678 639 606 q 547 789 588 750 q 456 840 506 828 q 357 851 406 851 l 251 851 l 251 539 l 490 539 l 490 442 l 251 442 l 251 104 l 358 104 q 460 120 410 104 q 549 178 510 136 q 614 293 589 219 q 639 483 639 367 z "},"Ñ":{"ha":833,"x_min":111,"x_max":722,"o":"m 542 0 l 219 810 l 214 810 q 218 768 215 801 q 224 686 221 735 q 229 580 226 638 q 232 467 232 522 l 232 0 l 111 0 l 111 957 l 288 957 l 614 143 l 619 143 q 615 183 618 151 q 609 260 613 214 q 603 366 606 307 q 601 490 601 425 l 601 957 l 722 957 l 722 0 l 542 0 m 489 1074 q 437 1084 458 1074 q 399 1107 415 1094 q 367 1130 382 1119 q 336 1140 353 1140 q 297 1124 313 1140 q 265 1079 282 1108 l 186 1114 q 244 1200 207 1163 q 343 1238 282 1238 q 396 1227 374 1238 q 435 1204 418 1217 l 465 1181 q 496 1171 479 1171 q 535 1186 519 1171 q 567 1231 550 1201 l 646 1196 q 586 1110 624 1147 q 489 1074 549 1074 z "},"Ò":{"ha":833,"x_min":61,"x_max":772,"o":"m 772 478 q 750 277 772 368 q 683 121 728 186 q 571 19 638 56 q 417 -17 504 -17 q 263 19 329 -17 q 151 119 196 54 q 83 274 106 183 q 61 476 61 365 q 83 677 61 586 q 151 834 106 768 q 263 937 196 900 q 417 974 329 974 q 571 938 504 974 q 683 838 638 903 q 750 681 728 772 q 772 478 772 589 m 635 478 q 584 766 635 667 q 417 865 533 865 q 249 765 300 865 q 199 476 199 665 q 251 189 199 286 q 417 92 303 92 q 584 190 533 92 q 635 478 635 288 m 540 1049 l 250 1163 l 317 1269 l 578 1117 l 540 1049 z "},"Ó":{"ha":833,"x_min":61,"x_max":772,"o":"m 772 478 q 750 277 772 368 q 683 121 728 186 q 571 19 638 56 q 417 -17 504 -17 q 263 19 329 -17 q 151 119 196 54 q 83 274 106 183 q 61 476 61 365 q 83 677 61 586 q 151 834 106 768 q 263 937 196 900 q 417 974 329 974 q 571 938 504 974 q 683 838 638 903 q 750 681 728 772 q 772 478 772 589 m 635 478 q 584 766 635 667 q 417 865 533 865 q 249 765 300 865 q 199 476 199 665 q 251 189 199 286 q 417 92 303 92 q 584 190 533 92 q 635 478 635 288 m 256 1117 l 518 1268 l 583 1161 l 294 1049 l 256 1117 z "},"Ô":{"ha":833,"x_min":61,"x_max":772,"o":"m 772 478 q 750 277 772 368 q 683 121 728 186 q 571 19 638 56 q 417 -17 504 -17 q 263 19 329 -17 q 151 119 196 54 q 83 274 106 183 q 61 476 61 365 q 83 677 61 586 q 151 834 106 768 q 263 937 196 900 q 417 974 329 974 q 571 938 504 974 q 683 838 638 903 q 750 681 728 772 q 772 478 772 589 m 635 478 q 584 766 635 667 q 417 865 533 865 q 249 765 300 865 q 199 476 199 665 q 251 189 199 286 q 417 92 303 92 q 584 190 533 92 q 635 478 635 288 m 242 1054 l 186 1117 l 375 1271 l 460 1271 l 647 1117 l 593 1054 l 417 1167 l 242 1054 z "},"Õ":{"ha":833,"x_min":61,"x_max":772,"o":"m 772 478 q 750 277 772 368 q 683 121 728 186 q 571 19 638 56 q 417 -17 504 -17 q 263 19 329 -17 q 151 119 196 54 q 83 274 106 183 q 61 476 61 365 q 83 677 61 586 q 151 834 106 768 q 263 937 196 900 q 417 974 329 974 q 571 938 504 974 q 683 838 638 903 q 750 681 728 772 q 772 478 772 589 m 635 478 q 584 766 635 667 q 417 865 533 865 q 249 765 300 865 q 199 476 199 665 q 251 189 199 286 q 417 92 303 92 q 584 190 533 92 q 635 478 635 288 m 490 1074 q 438 1084 460 1074 q 400 1107 417 1094 q 369 1130 383 1119 q 338 1140 354 1140 q 299 1124 314 1140 q 267 1079 283 1108 l 188 1114 q 246 1200 208 1163 q 344 1238 283 1238 q 397 1227 375 1238 q 436 1204 419 1217 l 467 1181 q 497 1171 481 1171 q 536 1186 521 1171 q 568 1231 551 1201 l 647 1196 q 588 1110 625 1147 q 490 1074 550 1074 z "},"Ö":{"ha":833,"x_min":61,"x_max":772,"o":"m 772 478 q 750 277 772 368 q 683 121 728 186 q 571 19 638 56 q 417 -17 504 -17 q 263 19 329 -17 q 151 119 196 54 q 83 274 106 183 q 61 476 61 365 q 83 677 61 586 q 151 834 106 768 q 263 937 196 900 q 417 974 329 974 q 571 938 504 974 q 683 838 638 903 q 750 681 728 772 q 772 478 772 589 m 635 478 q 584 766 635 667 q 417 865 533 865 q 249 765 300 865 q 199 476 199 665 q 251 189 199 286 q 417 92 303 92 q 584 190 533 92 q 635 478 635 288 m 271 1068 q 215 1090 238 1068 q 192 1147 192 1113 q 215 1203 192 1181 q 271 1225 238 1225 q 328 1203 306 1225 q 351 1147 351 1181 q 328 1090 351 1113 q 271 1068 306 1068 m 563 1068 q 505 1090 528 1068 q 482 1147 482 1113 q 505 1203 482 1181 q 563 1225 528 1225 q 619 1203 596 1225 q 643 1147 643 1181 q 619 1090 643 1113 q 563 1068 596 1068 z "},"×":{"ha":833,"x_min":175,"x_max":658,"o":"m 339 413 l 175 576 l 253 656 l 417 490 l 581 656 l 658 576 l 494 413 l 658 249 l 581 171 l 417 335 l 253 171 l 175 249 l 339 413 z "},"Ø":{"ha":833,"x_min":61,"x_max":772,"o":"m 228 39 q 103 210 144 97 q 61 476 61 322 q 83 677 61 586 q 151 834 106 768 q 263 937 196 900 q 417 974 329 974 q 504 963 460 974 l 556 1138 l 665 1108 l 606 917 q 731 744 689 857 q 772 478 772 631 q 750 277 772 368 q 683 121 728 186 q 571 19 638 56 q 417 -17 504 -17 q 372 -14 393 -17 q 331 -7 350 -11 l 278 -182 l 168 -153 l 228 39 m 635 478 q 618 687 635 604 q 558 814 601 769 l 351 99 q 382 94 367 96 q 417 92 397 92 q 584 190 533 92 q 635 478 635 288 m 199 476 q 216 269 199 350 q 275 143 233 188 l 482 857 q 417 865 453 865 q 249 765 300 865 q 199 476 199 665 z "},"Ù":{"ha":833,"x_min":96,"x_max":738,"o":"m 738 311 q 715 178 738 238 q 651 74 693 118 q 550 7 610 31 q 415 -17 490 -17 q 281 7 340 -17 q 180 74 221 31 q 117 178 139 118 q 96 311 96 238 l 96 957 l 228 957 l 228 317 q 276 149 228 204 q 415 94 324 94 q 604 317 604 94 l 604 957 l 738 957 l 738 311 m 529 1049 l 239 1163 l 306 1269 l 567 1117 l 529 1049 z "},"Ú":{"ha":833,"x_min":96,"x_max":738,"o":"m 738 311 q 715 178 738 238 q 651 74 693 118 q 550 7 610 31 q 415 -17 490 -17 q 281 7 340 -17 q 180 74 221 31 q 117 178 139 118 q 96 311 96 238 l 96 957 l 228 957 l 228 317 q 276 149 228 204 q 415 94 324 94 q 604 317 604 94 l 604 957 l 738 957 l 738 311 m 265 1117 l 528 1268 l 593 1161 l 304 1049 l 265 1117 z "},"Û":{"ha":833,"x_min":96,"x_max":738,"o":"m 738 311 q 715 178 738 238 q 651 74 693 118 q 550 7 610 31 q 415 -17 490 -17 q 281 7 340 -17 q 180 74 221 31 q 117 178 139 118 q 96 311 96 238 l 96 957 l 228 957 l 228 317 q 276 149 228 204 q 415 94 324 94 q 604 317 604 94 l 604 957 l 738 957 l 738 311 m 242 1054 l 186 1117 l 375 1271 l 460 1271 l 647 1117 l 593 1054 l 417 1167 l 242 1054 z "},"Ü":{"ha":833,"x_min":96,"x_max":738,"o":"m 738 311 q 715 178 738 238 q 651 74 693 118 q 550 7 610 31 q 415 -17 490 -17 q 281 7 340 -17 q 180 74 221 31 q 117 178 139 118 q 96 311 96 238 l 96 957 l 228 957 l 228 317 q 276 149 228 204 q 415 94 324 94 q 604 317 604 94 l 604 957 l 738 957 l 738 311 m 269 1068 q 213 1090 236 1068 q 190 1147 190 1113 q 213 1203 190 1181 q 269 1225 236 1225 q 327 1203 304 1225 q 350 1147 350 1181 q 327 1090 350 1113 q 269 1068 304 1068 m 561 1068 q 503 1090 526 1068 q 481 1147 481 1113 q 503 1203 481 1181 q 561 1225 526 1225 q 618 1203 594 1225 q 642 1147 642 1181 q 618 1090 642 1113 q 561 1068 594 1068 z "},"Ý":{"ha":833,"x_min":28,"x_max":806,"o":"m 483 368 l 483 0 l 350 0 l 350 367 l 28 957 l 174 957 l 418 489 l 422 489 l 668 957 l 806 957 l 483 368 m 267 1117 l 529 1268 l 594 1161 l 306 1049 l 267 1117 z "},"Þ":{"ha":833,"x_min":142,"x_max":775,"o":"m 636 490 q 576 646 636 599 q 418 693 517 693 l 274 693 l 274 281 l 419 281 q 507 290 467 281 q 576 324 547 300 q 620 389 604 349 q 636 490 636 429 m 775 493 q 748 349 775 410 q 672 251 721 289 q 556 194 624 213 q 407 176 488 176 l 274 176 l 274 0 l 142 0 l 142 957 l 274 957 l 274 796 l 404 796 q 678 722 581 796 q 775 493 775 649 z "},"ß":{"ha":833,"x_min":128,"x_max":778,"o":"m 128 740 q 202 965 128 889 q 411 1042 276 1042 q 512 1027 467 1042 q 589 985 557 1013 q 639 922 621 958 q 657 840 657 885 q 633 758 657 790 q 580 700 608 725 q 527 651 551 675 q 503 596 503 628 q 523 543 503 565 q 574 500 543 521 q 640 457 604 479 q 707 404 676 435 q 758 332 738 374 q 778 232 778 290 q 757 125 778 171 q 701 47 736 79 q 617 -1 665 15 q 517 -17 569 -17 q 417 -5 461 -17 q 338 31 374 7 l 388 118 q 444 94 413 103 q 504 86 475 86 q 609 121 571 86 q 647 226 647 156 q 627 300 647 269 q 578 355 607 331 q 513 400 549 379 q 449 446 478 421 q 399 502 419 471 q 379 579 379 533 q 403 660 379 629 q 457 715 428 690 q 510 765 486 740 q 535 829 535 790 q 528 867 535 847 q 508 904 522 888 q 469 931 493 921 q 410 942 444 942 q 295 897 335 942 q 256 749 256 853 l 256 0 l 128 0 l 128 740 z "},"à":{"ha":833,"x_min":86,"x_max":728,"o":"m 669 165 q 683 101 669 121 q 728 72 697 82 l 697 -17 q 612 14 649 -10 q 558 86 575 38 q 457 8 519 33 q 328 -17 394 -17 q 151 45 217 -17 q 86 210 86 107 q 176 385 86 324 q 435 446 267 446 l 542 446 l 542 503 q 497 613 542 581 q 371 644 451 644 q 285 635 335 644 q 179 607 236 626 l 146 701 q 275 738 214 726 q 390 749 336 749 q 600 685 531 749 q 669 510 669 622 l 669 165 m 363 79 q 463 106 415 79 q 542 181 510 132 l 542 361 l 442 361 q 275 322 324 361 q 226 215 226 282 q 363 79 226 79 m 535 864 l 249 993 l 314 1100 l 575 933 l 535 864 z "},"á":{"ha":833,"x_min":86,"x_max":728,"o":"m 669 165 q 683 101 669 121 q 728 72 697 82 l 697 -17 q 612 14 649 -10 q 558 86 575 38 q 457 8 519 33 q 328 -17 394 -17 q 151 45 217 -17 q 86 210 86 107 q 176 385 86 324 q 435 446 267 446 l 542 446 l 542 503 q 497 613 542 581 q 371 644 451 644 q 285 635 335 644 q 179 607 236 626 l 146 701 q 275 738 214 726 q 390 749 336 749 q 600 685 531 749 q 669 510 669 622 l 669 165 m 363 79 q 463 106 415 79 q 542 181 510 132 l 542 361 l 442 361 q 275 322 324 361 q 226 215 226 282 q 363 79 226 79 m 249 933 l 510 1099 l 575 992 l 290 864 l 249 933 z "},"â":{"ha":833,"x_min":86,"x_max":728,"o":"m 669 165 q 683 101 669 121 q 728 72 697 82 l 697 -17 q 612 14 649 -10 q 558 86 575 38 q 457 8 519 33 q 328 -17 394 -17 q 151 45 217 -17 q 86 210 86 107 q 176 385 86 324 q 435 446 267 446 l 542 446 l 542 503 q 497 613 542 581 q 371 644 451 644 q 285 635 335 644 q 179 607 236 626 l 146 701 q 275 738 214 726 q 390 749 336 749 q 600 685 531 749 q 669 510 669 622 l 669 165 m 363 79 q 463 106 415 79 q 542 181 510 132 l 542 361 l 442 361 q 275 322 324 361 q 226 215 226 282 q 363 79 226 79 m 235 871 l 176 932 l 365 1100 l 450 1100 l 638 932 l 582 871 l 408 997 l 235 871 z "},"ã":{"ha":833,"x_min":86,"x_max":728,"o":"m 669 165 q 683 101 669 121 q 728 72 697 82 l 697 -17 q 612 14 649 -10 q 558 86 575 38 q 457 8 519 33 q 328 -17 394 -17 q 151 45 217 -17 q 86 210 86 107 q 176 385 86 324 q 435 446 267 446 l 542 446 l 542 503 q 497 613 542 581 q 371 644 451 644 q 285 635 335 644 q 179 607 236 626 l 146 701 q 275 738 214 726 q 390 749 336 749 q 600 685 531 749 q 669 510 669 622 l 669 165 m 363 79 q 463 106 415 79 q 542 181 510 132 l 542 361 l 442 361 q 275 322 324 361 q 226 215 226 282 q 363 79 226 79 m 482 903 q 430 913 451 903 q 392 936 408 924 q 360 959 375 949 q 329 969 346 969 q 290 953 306 969 q 258 908 275 938 l 179 944 q 238 1030 200 993 q 336 1067 276 1067 q 389 1056 367 1067 q 428 1033 411 1046 l 458 1010 q 489 1000 472 1000 q 528 1016 513 1000 q 560 1061 543 1032 l 639 1026 q 580 940 618 978 q 482 903 542 903 z "},"ä":{"ha":833,"x_min":86,"x_max":728,"o":"m 669 165 q 683 101 669 121 q 728 72 697 82 l 697 -17 q 612 14 649 -10 q 558 86 575 38 q 457 8 519 33 q 328 -17 394 -17 q 151 45 217 -17 q 86 210 86 107 q 176 385 86 324 q 435 446 267 446 l 542 446 l 542 503 q 497 613 542 581 q 371 644 451 644 q 285 635 335 644 q 179 607 236 626 l 146 701 q 275 738 214 726 q 390 749 336 749 q 600 685 531 749 q 669 510 669 622 l 669 165 m 363 79 q 463 106 415 79 q 542 181 510 132 l 542 361 l 442 361 q 275 322 324 361 q 226 215 226 282 q 363 79 226 79 m 268 899 q 210 921 233 899 q 188 976 188 943 q 210 1033 188 1011 q 268 1056 233 1056 q 324 1033 301 1056 q 347 976 347 1011 q 324 921 347 943 q 268 899 301 899 m 558 899 q 502 921 525 899 q 479 976 479 943 q 502 1033 479 1011 q 558 1056 525 1056 q 616 1033 593 1056 q 639 976 639 1011 q 616 921 639 943 q 558 899 593 899 z "},"å":{"ha":833,"x_min":86,"x_max":728,"o":"m 669 165 q 683 101 669 121 q 728 72 697 82 l 697 -17 q 612 14 649 -10 q 558 86 575 38 q 457 8 519 33 q 328 -17 394 -17 q 151 45 217 -17 q 86 210 86 107 q 176 385 86 324 q 435 446 267 446 l 542 446 l 542 503 q 497 613 542 581 q 371 644 451 644 q 285 635 335 644 q 179 607 236 626 l 146 701 q 275 738 214 726 q 390 749 336 749 q 600 685 531 749 q 669 510 669 622 l 669 165 m 363 79 q 463 106 415 79 q 542 181 510 132 l 542 361 l 442 361 q 275 322 324 361 q 226 215 226 282 q 363 79 226 79 m 339 1003 q 359 946 339 967 q 413 925 379 925 q 467 946 447 925 q 486 1003 486 967 q 467 1060 486 1039 q 413 1081 447 1081 q 359 1060 379 1081 q 339 1003 339 1039 m 571 1003 q 527 899 571 942 q 413 857 483 857 q 298 899 342 857 q 254 1003 254 942 q 298 1108 254 1065 q 413 1150 342 1150 q 527 1108 483 1150 q 571 1003 571 1065 z "},"æ":{"ha":833,"x_min":-8,"x_max":842,"o":"m 469 322 q 515 143 479 200 q 624 86 551 86 q 694 100 664 86 q 760 140 725 114 l 817 57 q 728 3 775 24 q 621 -17 682 -17 q 497 15 546 -17 q 413 107 447 47 q 367 51 389 75 q 319 13 344 28 q 266 -10 294 -3 q 203 -17 238 -17 q 49 45 106 -17 q -8 210 -8 107 q 66 385 -8 325 q 288 446 140 446 l 350 446 l 350 503 q 317 613 350 579 q 224 647 285 647 q 156 638 188 647 q 81 610 125 629 l 47 701 q 142 736 94 724 q 236 749 190 749 q 363 716 319 749 q 428 629 406 683 q 492 717 447 685 q 603 749 536 749 q 710 724 665 749 q 785 652 756 699 q 828 539 814 606 q 842 388 842 472 q 841 352 842 368 q 839 322 840 336 l 469 322 m 222 79 q 299 112 267 79 q 368 208 332 144 q 354 281 358 242 q 350 361 350 319 l 294 361 q 160 322 197 361 q 124 217 124 282 q 151 114 124 149 q 222 79 178 79 m 599 647 q 546 635 568 647 q 508 597 524 624 q 483 525 492 569 q 469 417 474 481 l 722 417 q 694 589 719 531 q 599 647 668 647 z "},"ç":{"ha":833,"x_min":118,"x_max":715,"o":"m 508 -196 q 476 -149 508 -160 q 388 -137 444 -137 l 397 -11 q 190 109 263 10 q 118 363 118 208 q 142 516 118 446 q 210 638 165 586 q 319 719 254 690 q 467 749 383 749 q 601 729 538 749 q 715 667 664 710 l 653 581 q 562 628 608 614 q 467 643 515 643 q 315 574 374 643 q 256 363 256 506 q 272 239 256 290 q 315 155 288 188 q 382 107 343 122 q 467 92 421 92 q 561 106 513 92 q 654 154 610 121 l 715 67 q 606 8 667 28 q 485 -15 544 -12 l 485 -78 q 585 -119 554 -85 q 615 -196 615 -153 q 601 -256 615 -231 q 563 -299 588 -282 q 508 -326 539 -317 q 442 -335 476 -335 q 360 -325 399 -335 q 294 -300 322 -315 l 333 -229 q 378 -246 353 -240 q 426 -251 403 -251 q 485 -239 463 -251 q 508 -196 508 -226 z "},"è":{"ha":833,"x_min":104,"x_max":731,"o":"m 238 322 q 305 144 246 200 q 447 88 364 88 q 546 102 497 88 q 642 156 594 117 l 700 71 q 582 7 649 31 q 444 -17 515 -17 q 299 11 363 -17 q 192 89 236 39 q 126 209 149 139 q 104 365 104 279 q 126 519 104 449 q 190 640 149 589 q 291 719 232 690 q 424 749 350 749 q 649 652 568 749 q 731 388 731 556 q 730 351 731 368 q 728 322 729 335 l 238 322 m 424 647 q 297 591 349 647 q 238 417 244 535 l 607 417 q 557 589 604 531 q 424 647 510 647 m 547 864 l 261 993 l 326 1100 l 588 933 l 547 864 z "},"é":{"ha":833,"x_min":104,"x_max":731,"o":"m 238 322 q 305 144 246 200 q 447 88 364 88 q 546 102 497 88 q 642 156 594 117 l 700 71 q 582 7 649 31 q 444 -17 515 -17 q 299 11 363 -17 q 192 89 236 39 q 126 209 149 139 q 104 365 104 279 q 126 519 104 449 q 190 640 149 589 q 291 719 232 690 q 424 749 350 749 q 649 652 568 749 q 731 388 731 556 q 730 351 731 368 q 728 322 729 335 l 238 322 m 424 647 q 297 591 349 647 q 238 417 244 535 l 607 417 q 557 589 604 531 q 424 647 510 647 m 261 933 l 522 1099 l 588 992 l 303 864 l 261 933 z "},"ê":{"ha":833,"x_min":104,"x_max":731,"o":"m 238 322 q 305 144 246 200 q 447 88 364 88 q 546 102 497 88 q 642 156 594 117 l 700 71 q 582 7 649 31 q 444 -17 515 -17 q 299 11 363 -17 q 192 89 236 39 q 126 209 149 139 q 104 365 104 279 q 126 519 104 449 q 190 640 149 589 q 291 719 232 690 q 424 749 350 749 q 649 652 568 749 q 731 388 731 556 q 730 351 731 368 q 728 322 729 335 l 238 322 m 424 647 q 297 591 349 647 q 238 417 244 535 l 607 417 q 557 589 604 531 q 424 647 510 647 m 253 871 l 194 932 l 383 1100 l 468 1100 l 656 932 l 600 871 l 426 997 l 253 871 z "},"ë":{"ha":833,"x_min":104,"x_max":731,"o":"m 238 322 q 305 144 246 200 q 447 88 364 88 q 546 102 497 88 q 642 156 594 117 l 700 71 q 582 7 649 31 q 444 -17 515 -17 q 299 11 363 -17 q 192 89 236 39 q 126 209 149 139 q 104 365 104 279 q 126 519 104 449 q 190 640 149 589 q 291 719 232 690 q 424 749 350 749 q 649 652 568 749 q 731 388 731 556 q 730 351 731 368 q 728 322 729 335 l 238 322 m 424 647 q 297 591 349 647 q 238 417 244 535 l 607 417 q 557 589 604 531 q 424 647 510 647 m 279 899 q 222 921 244 899 q 199 976 199 943 q 222 1033 199 1011 q 279 1056 244 1056 q 335 1033 313 1056 q 358 976 358 1011 q 335 921 358 943 q 279 899 313 899 m 569 899 q 513 921 536 899 q 490 976 490 943 q 513 1033 490 1011 q 569 1056 536 1056 q 627 1033 604 1056 q 650 976 650 1011 q 627 921 650 943 q 569 899 604 899 z "},"ì":{"ha":833,"x_min":163,"x_max":718,"o":"m 718 0 l 163 0 l 163 99 l 386 99 l 386 633 l 169 633 l 169 732 l 514 732 l 514 99 l 718 99 l 718 0 m 510 864 l 224 993 l 289 1100 l 550 933 l 510 864 z "},"í":{"ha":833,"x_min":163,"x_max":718,"o":"m 718 0 l 163 0 l 163 99 l 386 99 l 386 633 l 169 633 l 169 732 l 514 732 l 514 99 l 718 99 l 718 0 m 256 933 l 517 1099 l 582 992 l 297 864 l 256 933 z "},"î":{"ha":833,"x_min":163,"x_max":718,"o":"m 244 871 l 186 932 l 375 1100 l 460 1100 l 647 932 l 592 871 l 418 997 l 244 871 m 718 0 l 163 0 l 163 99 l 386 99 l 386 633 l 169 633 l 169 732 l 514 732 l 514 99 l 718 99 l 718 0 z "},"ï":{"ha":833,"x_min":163,"x_max":718,"o":"m 271 899 q 213 921 236 899 q 190 976 190 943 q 213 1033 190 1011 q 271 1056 236 1056 q 327 1033 304 1056 q 350 976 350 1011 q 327 921 350 943 q 271 899 304 899 m 561 899 q 505 921 528 899 q 482 976 482 943 q 505 1033 482 1011 q 561 1056 528 1056 q 619 1033 596 1056 q 642 976 642 1011 q 619 921 642 943 q 561 899 596 899 m 718 0 l 163 0 l 163 99 l 386 99 l 386 633 l 169 633 l 169 732 l 514 732 l 514 99 l 718 99 l 718 0 z "},"ð":{"ha":833,"x_min":89,"x_max":743,"o":"m 229 782 l 338 896 q 265 923 304 911 q 179 944 226 935 l 207 1042 q 319 1013 268 1029 q 414 975 371 997 l 511 1078 l 586 1013 l 501 925 q 685 703 628 839 q 743 368 743 567 q 719 210 743 281 q 652 88 696 139 q 547 10 608 38 q 410 -17 486 -17 q 285 6 343 -17 q 183 73 226 29 q 114 181 139 117 q 89 326 89 244 q 113 466 89 403 q 177 574 136 529 q 271 644 218 619 q 382 668 324 668 q 505 644 450 668 q 592 583 560 621 l 596 585 q 534 731 579 664 q 424 846 489 799 l 318 738 l 229 782 m 614 369 q 610 461 614 417 q 521 541 575 514 q 401 568 467 568 q 333 554 365 568 q 275 511 300 540 q 235 438 250 482 q 219 332 219 393 q 272 147 219 210 q 408 85 325 85 q 559 156 504 85 q 614 369 614 228 z "},"ñ":{"ha":833,"x_min":135,"x_max":700,"o":"m 135 0 l 135 732 l 244 732 l 254 632 q 364 719 299 689 q 494 749 429 749 q 651 692 601 749 q 700 532 700 635 l 700 0 l 572 0 l 572 449 q 568 540 572 503 q 551 602 564 578 q 515 638 539 626 q 451 649 492 649 q 394 638 422 649 q 342 611 367 628 q 297 573 318 594 q 263 531 276 551 l 263 0 l 135 0 m 496 903 q 444 913 465 903 q 406 936 422 924 q 374 959 389 949 q 343 969 360 969 q 304 953 319 969 q 272 908 289 938 l 193 944 q 252 1030 214 993 q 350 1067 290 1067 q 403 1056 381 1067 q 442 1033 425 1046 l 472 1010 q 503 1000 486 1000 q 542 1016 526 1000 q 574 1061 557 1032 l 653 1026 q 594 940 632 978 q 496 903 556 903 z "},"ò":{"ha":833,"x_min":97,"x_max":736,"o":"m 600 367 q 555 578 600 510 q 418 646 510 646 q 280 578 326 646 q 233 365 233 510 q 279 154 233 222 q 417 86 325 86 q 554 154 508 86 q 600 367 600 222 m 97 365 q 118 521 97 450 q 179 642 139 592 q 280 721 219 693 q 418 749 340 749 q 556 722 496 749 q 656 644 615 694 q 716 524 696 594 q 736 367 736 454 q 715 211 736 282 q 654 90 694 140 q 554 11 614 39 q 417 -17 494 -17 q 279 10 339 -17 q 179 88 219 38 q 118 208 139 138 q 97 365 97 278 m 538 864 l 251 993 l 317 1100 l 578 933 l 538 864 z "},"ó":{"ha":833,"x_min":97,"x_max":736,"o":"m 600 367 q 555 578 600 510 q 418 646 510 646 q 280 578 326 646 q 233 365 233 510 q 279 154 233 222 q 417 86 325 86 q 554 154 508 86 q 600 367 600 222 m 97 365 q 118 521 97 450 q 179 642 139 592 q 280 721 219 693 q 418 749 340 749 q 556 722 496 749 q 656 644 615 694 q 716 524 696 594 q 736 367 736 454 q 715 211 736 282 q 654 90 694 140 q 554 11 614 39 q 417 -17 494 -17 q 279 10 339 -17 q 179 88 219 38 q 118 208 139 138 q 97 365 97 278 m 256 933 l 517 1099 l 582 992 l 297 864 l 256 933 z "},"ô":{"ha":833,"x_min":97,"x_max":736,"o":"m 600 367 q 555 578 600 510 q 418 646 510 646 q 280 578 326 646 q 233 365 233 510 q 279 154 233 222 q 417 86 325 86 q 554 154 508 86 q 600 367 600 222 m 97 365 q 118 521 97 450 q 179 642 139 592 q 280 721 219 693 q 418 749 340 749 q 556 722 496 749 q 656 644 615 694 q 716 524 696 594 q 736 367 736 454 q 715 211 736 282 q 654 90 694 140 q 554 11 614 39 q 417 -17 494 -17 q 279 10 339 -17 q 179 88 219 38 q 118 208 139 138 q 97 365 97 278 m 244 871 l 186 932 l 375 1100 l 460 1100 l 647 932 l 592 871 l 418 997 l 244 871 z "},"õ":{"ha":833,"x_min":97,"x_max":736,"o":"m 490 903 q 438 913 460 903 q 400 936 417 924 q 369 959 383 949 q 338 969 354 969 q 299 953 314 969 q 267 908 283 938 l 188 944 q 247 1030 208 993 q 344 1067 285 1067 q 397 1056 375 1067 q 436 1033 419 1046 l 467 1010 q 497 1000 481 1000 q 536 1016 521 1000 q 568 1061 551 1032 l 647 1026 q 588 940 626 978 q 490 903 550 903 m 600 367 q 555 578 600 510 q 418 646 510 646 q 280 578 326 646 q 233 365 233 510 q 279 154 233 222 q 417 86 325 86 q 554 154 508 86 q 600 367 600 222 m 97 365 q 118 521 97 450 q 179 642 139 592 q 280 721 219 693 q 418 749 340 749 q 556 722 496 749 q 656 644 615 694 q 716 524 696 594 q 736 367 736 454 q 715 211 736 282 q 654 90 694 140 q 554 11 614 39 q 417 -17 494 -17 q 279 10 339 -17 q 179 88 219 38 q 118 208 139 138 q 97 365 97 278 z "},"ö":{"ha":833,"x_min":97,"x_max":736,"o":"m 272 899 q 215 921 238 899 q 192 976 192 943 q 215 1033 192 1011 q 272 1056 238 1056 q 328 1033 306 1056 q 351 976 351 1011 q 328 921 351 943 q 272 899 306 899 m 563 899 q 506 921 529 899 q 483 976 483 943 q 506 1033 483 1011 q 563 1056 529 1056 q 620 1033 597 1056 q 643 976 643 1011 q 620 921 643 943 q 563 899 597 899 m 600 367 q 555 578 600 510 q 418 646 510 646 q 280 578 326 646 q 233 365 233 510 q 279 154 233 222 q 417 86 325 86 q 554 154 508 86 q 600 367 600 222 m 97 365 q 118 521 97 450 q 179 642 139 592 q 280 721 219 693 q 418 749 340 749 q 556 722 496 749 q 656 644 615 694 q 716 524 696 594 q 736 367 736 454 q 715 211 736 282 q 654 90 694 140 q 554 11 614 39 q 417 -17 494 -17 q 279 10 339 -17 q 179 88 219 38 q 118 208 139 138 q 97 365 97 278 z "},"÷":{"ha":833,"x_min":156,"x_max":678,"o":"m 156 381 l 156 488 l 678 488 l 678 381 l 156 381 m 319 160 q 348 228 319 200 q 417 256 376 256 q 485 228 457 256 q 514 160 514 200 q 485 91 514 119 q 417 63 457 63 q 348 91 376 63 q 319 160 319 119 m 319 710 q 348 778 319 750 q 417 806 376 806 q 485 778 457 806 q 514 710 514 750 q 485 642 514 669 q 417 614 457 614 q 348 642 376 614 q 319 710 319 669 z "},"ø":{"ha":833,"x_min":97,"x_max":736,"o":"m 97 365 q 118 521 97 450 q 179 642 139 592 q 280 721 219 693 q 418 749 340 749 q 451 747 435 749 q 483 743 468 746 l 536 910 l 640 879 l 583 707 q 697 575 658 663 q 736 367 736 488 q 715 211 736 282 q 654 90 694 140 q 554 11 614 39 q 417 -17 494 -17 q 382 -15 399 -17 q 350 -11 365 -14 l 299 -182 l 194 -151 l 251 24 q 136 156 175 68 q 97 365 97 243 m 233 365 q 301 126 233 190 l 461 640 q 418 644 440 644 q 280 577 326 644 q 233 365 233 510 m 600 367 q 533 601 600 536 l 374 90 q 417 86 392 86 q 554 154 508 86 q 600 367 600 222 z "},"ù":{"ha":833,"x_min":135,"x_max":699,"o":"m 263 732 l 263 215 q 291 114 263 144 q 381 83 319 83 q 490 117 439 83 q 571 196 542 150 l 571 732 l 699 732 l 699 0 l 589 0 l 579 97 q 474 13 536 42 q 346 -17 411 -17 q 187 40 239 -17 q 135 200 135 97 l 135 732 l 263 732 m 531 864 l 244 993 l 310 1100 l 571 933 l 531 864 z "},"ú":{"ha":833,"x_min":135,"x_max":699,"o":"m 263 732 l 263 215 q 291 114 263 144 q 381 83 319 83 q 490 117 439 83 q 571 196 542 150 l 571 732 l 699 732 l 699 0 l 589 0 l 579 97 q 474 13 536 42 q 346 -17 411 -17 q 187 40 239 -17 q 135 200 135 97 l 135 732 l 263 732 m 278 933 l 539 1099 l 604 992 l 319 864 l 278 933 z "},"û":{"ha":833,"x_min":135,"x_max":699,"o":"m 263 732 l 263 215 q 291 114 263 144 q 381 83 319 83 q 490 117 439 83 q 571 196 542 150 l 571 732 l 699 732 l 699 0 l 589 0 l 579 97 q 474 13 536 42 q 346 -17 411 -17 q 187 40 239 -17 q 135 200 135 97 l 135 732 l 263 732 m 244 871 l 186 932 l 375 1100 l 460 1100 l 647 932 l 592 871 l 418 997 l 244 871 z "},"ü":{"ha":833,"x_min":135,"x_max":699,"o":"m 263 732 l 263 215 q 291 114 263 144 q 381 83 319 83 q 490 117 439 83 q 571 196 542 150 l 571 732 l 699 732 l 699 0 l 589 0 l 579 97 q 474 13 536 42 q 346 -17 411 -17 q 187 40 239 -17 q 135 200 135 97 l 135 732 l 263 732 m 272 899 q 215 921 238 899 q 192 976 192 943 q 215 1033 192 1011 q 272 1056 238 1056 q 328 1033 306 1056 q 351 976 351 1011 q 328 921 351 943 q 272 899 306 899 m 563 899 q 506 921 529 899 q 483 976 483 943 q 506 1033 483 1011 q 563 1056 529 1056 q 620 1033 597 1056 q 643 976 643 1011 q 620 921 643 943 q 563 899 597 899 z "},"ý":{"ha":833,"x_min":81,"x_max":753,"o":"m 497 -4 q 450 -112 478 -62 q 383 -201 422 -162 q 289 -264 343 -239 q 161 -296 235 -289 l 143 -196 q 237 -170 199 -186 q 301 -131 275 -154 q 344 -74 328 -107 q 376 0 361 -42 l 333 0 l 81 732 l 217 732 l 417 103 l 422 103 l 621 732 l 753 732 l 497 -4 m 278 933 l 539 1099 l 604 992 l 319 864 l 278 933 z "},"þ":{"ha":833,"x_min":135,"x_max":736,"o":"m 263 643 q 356 722 303 694 q 471 749 410 749 q 594 722 543 749 q 676 644 644 694 q 722 524 708 594 q 736 367 736 453 q 719 213 736 283 q 666 92 701 143 q 578 12 631 40 q 454 -17 525 -17 q 263 67 332 -17 l 263 -281 l 135 -296 l 135 1026 l 263 1042 l 263 643 m 263 176 q 332 110 290 133 q 424 88 374 88 q 556 155 511 88 q 600 367 600 222 q 561 578 600 510 q 439 647 522 647 q 336 613 381 647 q 263 533 292 578 l 263 176 z "},"ÿ":{"ha":833,"x_min":81,"x_max":753,"o":"m 497 -4 q 450 -112 478 -62 q 383 -201 422 -162 q 289 -264 343 -239 q 161 -296 235 -289 l 143 -196 q 237 -170 199 -186 q 301 -131 275 -154 q 344 -74 328 -107 q 376 0 361 -42 l 333 0 l 81 732 l 217 732 l 417 103 l 422 103 l 621 732 l 753 732 l 497 -4 m 274 899 q 216 921 239 899 q 193 976 193 943 q 216 1033 193 1011 q 274 1056 239 1056 q 330 1033 307 1056 q 353 976 353 1011 q 330 921 353 943 q 274 899 307 899 m 564 899 q 508 921 531 899 q 485 976 485 943 q 508 1033 485 1011 q 564 1056 531 1056 q 622 1033 599 1056 q 644 976 644 1011 q 622 921 644 943 q 564 899 599 899 z "},"Ā":{"ha":833,"x_min":24,"x_max":810,"o":"m 597 240 l 229 240 l 156 0 l 24 0 l 333 957 l 500 957 l 810 0 l 671 0 l 597 240 m 261 347 l 565 347 l 417 838 l 411 838 l 261 347 m 606 1106 l 226 1106 l 226 1203 l 606 1203 l 606 1106 z "},"ā":{"ha":833,"x_min":86,"x_max":728,"o":"m 669 165 q 683 101 669 121 q 728 72 697 82 l 697 -17 q 612 14 649 -10 q 558 86 575 38 q 457 8 519 33 q 328 -17 394 -17 q 151 45 217 -17 q 86 210 86 107 q 176 385 86 324 q 435 446 267 446 l 542 446 l 542 503 q 497 613 542 581 q 371 644 451 644 q 285 635 335 644 q 179 607 236 626 l 146 701 q 275 738 214 726 q 390 749 336 749 q 600 685 531 749 q 669 510 669 622 l 669 165 m 363 79 q 463 106 415 79 q 542 181 510 132 l 542 361 l 442 361 q 275 322 324 361 q 226 215 226 282 q 363 79 226 79 m 599 936 l 219 936 l 219 1032 l 599 1032 l 599 936 z "},"Ă":{"ha":833,"x_min":24,"x_max":810,"o":"m 597 240 l 229 240 l 156 0 l 24 0 l 333 957 l 500 957 l 810 0 l 671 0 l 597 240 m 261 347 l 565 347 l 417 838 l 411 838 l 261 347 m 415 1056 q 329 1072 367 1056 q 266 1115 292 1089 q 226 1174 240 1142 q 207 1238 211 1206 l 292 1256 q 415 1153 319 1153 q 542 1256 514 1153 l 626 1238 q 607 1174 622 1206 q 566 1115 592 1142 q 503 1072 540 1089 q 415 1056 465 1056 z "},"ă":{"ha":833,"x_min":86,"x_max":728,"o":"m 669 165 q 683 101 669 121 q 728 72 697 82 l 697 -17 q 612 14 649 -10 q 558 86 575 38 q 457 8 519 33 q 328 -17 394 -17 q 151 45 217 -17 q 86 210 86 107 q 176 385 86 324 q 435 446 267 446 l 542 446 l 542 503 q 497 613 542 581 q 371 644 451 644 q 285 635 335 644 q 179 607 236 626 l 146 701 q 275 738 214 726 q 390 749 336 749 q 600 685 531 749 q 669 510 669 622 l 669 165 m 363 79 q 463 106 415 79 q 542 181 510 132 l 542 361 l 442 361 q 275 322 324 361 q 226 215 226 282 q 363 79 226 79 m 406 872 q 320 890 357 872 q 257 936 283 908 q 216 999 231 964 q 197 1067 201 1033 l 282 1085 q 327 1000 297 1032 q 406 968 357 968 q 487 1000 456 968 q 533 1085 518 1032 l 618 1067 q 599 999 614 1033 q 557 936 583 964 q 492 890 531 908 q 406 872 454 872 z "},"Ą":{"ha":833,"x_min":24,"x_max":896,"o":"m 599 240 l 231 240 l 157 0 l 24 0 l 335 957 l 501 957 l 811 0 q 748 -47 772 -24 q 710 -92 724 -69 q 691 -137 696 -115 q 686 -176 686 -158 q 707 -229 686 -208 q 775 -250 728 -250 q 826 -243 803 -250 q 861 -229 849 -236 l 896 -304 q 830 -328 863 -321 q 761 -335 797 -335 q 626 -293 674 -335 q 579 -181 579 -251 q 613 -83 579 -131 q 707 0 647 -35 l 672 0 l 599 240 m 263 347 l 567 347 l 418 838 l 413 838 l 263 347 z "},"ą":{"ha":833,"x_min":86,"x_max":801,"o":"m 669 165 q 683 101 669 121 q 728 72 697 82 l 697 -17 q 645 -55 665 -33 q 613 -99 625 -76 q 597 -142 601 -121 q 593 -176 593 -162 q 613 -229 593 -208 q 682 -250 633 -250 q 733 -243 710 -250 q 767 -229 756 -236 l 801 -304 q 735 -328 768 -321 q 668 -335 703 -335 q 533 -293 581 -335 q 486 -181 486 -251 q 524 -78 486 -128 q 625 4 561 -29 q 558 86 576 31 q 457 8 519 33 q 328 -17 394 -17 q 151 45 217 -17 q 86 210 86 107 q 176 385 86 324 q 435 446 267 446 l 542 446 l 542 503 q 497 613 542 581 q 371 644 451 644 q 285 635 335 644 q 179 607 236 626 l 146 701 q 275 738 214 726 q 390 749 336 749 q 600 685 531 749 q 669 510 669 622 l 669 165 m 363 79 q 463 106 415 79 q 542 181 510 132 l 542 361 l 442 361 q 275 322 324 361 q 226 215 226 282 q 363 79 226 79 z "},"Ć":{"ha":833,"x_min":76,"x_max":785,"o":"m 497 94 q 628 119 576 94 q 717 176 681 144 l 785 90 q 668 16 740 49 q 492 -17 596 -17 q 325 15 401 -17 q 193 110 249 47 q 107 266 138 174 q 76 479 76 358 q 110 692 76 600 q 199 847 143 785 q 331 942 256 910 q 490 974 406 974 q 649 949 585 974 q 771 879 714 924 l 699 794 q 604 848 654 831 q 499 865 554 865 q 390 845 442 865 q 300 780 339 825 q 239 661 261 735 q 217 479 217 588 q 238 302 217 375 q 297 183 260 229 q 386 116 335 138 q 497 94 438 94 m 313 1117 l 575 1268 l 640 1161 l 351 1049 l 313 1117 z "},"ć":{"ha":833,"x_min":118,"x_max":715,"o":"m 467 92 q 561 106 513 92 q 654 154 610 121 l 715 67 q 596 4 664 25 q 465 -17 528 -17 q 317 10 382 -17 q 208 87 253 38 q 141 206 164 136 q 118 363 118 276 q 142 516 118 446 q 210 638 165 586 q 319 719 254 690 q 467 749 383 749 q 601 729 538 749 q 715 667 664 710 l 653 581 q 562 628 608 614 q 467 643 515 643 q 315 574 374 643 q 256 363 256 506 q 272 239 256 290 q 315 155 288 188 q 382 107 343 122 q 467 92 421 92 m 288 933 l 549 1099 l 614 992 l 329 864 l 288 933 z "},"Ĉ":{"ha":833,"x_min":76,"x_max":785,"o":"m 497 94 q 628 119 576 94 q 717 176 681 144 l 785 90 q 668 16 740 49 q 492 -17 596 -17 q 325 15 401 -17 q 193 110 249 47 q 107 266 138 174 q 76 479 76 358 q 110 692 76 600 q 199 847 143 785 q 331 942 256 910 q 490 974 406 974 q 649 949 585 974 q 771 879 714 924 l 699 794 q 604 848 654 831 q 499 865 554 865 q 390 845 442 865 q 300 780 339 825 q 239 661 261 735 q 217 479 217 588 q 238 302 217 375 q 297 183 260 229 q 386 116 335 138 q 497 94 438 94 m 313 1054 l 257 1117 l 446 1271 l 531 1271 l 718 1117 l 664 1054 l 488 1167 l 313 1054 z "},"ĉ":{"ha":833,"x_min":118,"x_max":715,"o":"m 467 92 q 561 106 513 92 q 654 154 610 121 l 715 67 q 596 4 664 25 q 465 -17 528 -17 q 317 10 382 -17 q 208 87 253 38 q 141 206 164 136 q 118 363 118 276 q 142 516 118 446 q 210 638 165 586 q 319 719 254 690 q 467 749 383 749 q 601 729 538 749 q 715 667 664 710 l 653 581 q 562 628 608 614 q 467 643 515 643 q 315 574 374 643 q 256 363 256 506 q 272 239 256 290 q 315 155 288 188 q 382 107 343 122 q 467 92 421 92 m 278 871 l 219 932 l 408 1100 l 493 1100 l 681 932 l 625 871 l 451 997 l 278 871 z "},"Ċ":{"ha":833,"x_min":76,"x_max":785,"o":"m 497 94 q 628 119 576 94 q 717 176 681 144 l 785 90 q 668 16 740 49 q 492 -17 596 -17 q 325 15 401 -17 q 193 110 249 47 q 107 266 138 174 q 76 479 76 358 q 110 692 76 600 q 199 847 143 785 q 331 942 256 910 q 490 974 406 974 q 649 949 585 974 q 771 879 714 924 l 699 794 q 604 848 654 831 q 499 865 554 865 q 390 845 442 865 q 300 780 339 825 q 239 661 261 735 q 217 479 217 588 q 238 302 217 375 q 297 183 260 229 q 386 116 335 138 q 497 94 438 94 m 575 1163 q 551 1100 575 1125 q 486 1075 526 1075 q 422 1100 446 1075 q 397 1163 397 1125 q 422 1224 397 1199 q 486 1249 446 1249 q 551 1224 526 1249 q 575 1163 575 1199 z "},"ċ":{"ha":833,"x_min":118,"x_max":715,"o":"m 467 92 q 561 106 513 92 q 654 154 610 121 l 715 67 q 596 4 664 25 q 465 -17 528 -17 q 317 10 382 -17 q 208 87 253 38 q 141 206 164 136 q 118 363 118 276 q 142 516 118 446 q 210 638 165 586 q 319 719 254 690 q 467 749 383 749 q 601 729 538 749 q 715 667 664 710 l 653 581 q 562 628 608 614 q 467 643 515 643 q 315 574 374 643 q 256 363 256 506 q 272 239 256 290 q 315 155 288 188 q 382 107 343 122 q 467 92 421 92 m 540 993 q 515 931 540 956 q 450 906 490 906 q 385 931 410 906 q 361 993 361 956 q 385 1054 361 1029 q 450 1079 410 1079 q 515 1054 490 1079 q 540 993 540 1029 z "},"Č":{"ha":833,"x_min":76,"x_max":785,"o":"m 497 94 q 628 119 576 94 q 717 176 681 144 l 785 90 q 668 16 740 49 q 492 -17 596 -17 q 325 15 401 -17 q 193 110 249 47 q 107 266 138 174 q 76 479 76 358 q 110 692 76 600 q 199 847 143 785 q 331 942 256 910 q 490 974 406 974 q 649 949 585 974 q 771 879 714 924 l 699 794 q 604 848 654 831 q 499 865 554 865 q 390 845 442 865 q 300 780 339 825 q 239 661 261 735 q 217 479 217 588 q 238 302 217 375 q 297 183 260 229 q 386 116 335 138 q 497 94 438 94 m 489 1157 l 664 1271 l 718 1208 l 531 1054 l 446 1054 l 257 1208 l 313 1271 l 489 1157 z "},"č":{"ha":833,"x_min":118,"x_max":715,"o":"m 467 92 q 561 106 513 92 q 654 154 610 121 l 715 67 q 596 4 664 25 q 465 -17 528 -17 q 317 10 382 -17 q 208 87 253 38 q 141 206 164 136 q 118 363 118 276 q 142 516 118 446 q 210 638 165 586 q 319 719 254 690 q 467 749 383 749 q 601 729 538 749 q 715 667 664 710 l 653 581 q 562 628 608 614 q 467 643 515 643 q 315 574 374 643 q 256 363 256 506 q 272 239 256 290 q 315 155 288 188 q 382 107 343 122 q 467 92 421 92 m 451 974 l 625 1100 l 681 1039 l 493 871 l 408 871 l 219 1039 l 278 1100 l 451 974 z "},"Ď":{"ha":833,"x_min":111,"x_max":771,"o":"m 631 483 q 605 678 631 606 q 538 789 579 750 q 447 840 497 828 q 349 851 397 851 l 243 851 l 243 104 l 350 104 q 451 120 401 104 q 541 178 501 136 q 606 293 581 219 q 631 483 631 367 m 771 483 q 731 239 771 333 q 629 92 692 144 q 489 19 567 39 q 335 0 411 0 l 111 0 l 111 957 l 319 957 q 485 939 404 957 q 630 869 567 921 q 732 725 693 818 q 771 483 771 632 m 381 1157 l 556 1271 l 610 1208 l 422 1054 l 338 1054 l 149 1208 l 204 1271 l 381 1157 z "},"ď":{"ha":833,"x_min":50,"x_max":871,"o":"m 371 647 q 235 578 283 647 q 188 365 188 508 q 231 153 188 222 q 357 85 274 85 q 458 119 415 85 q 531 197 501 153 l 531 557 q 460 624 501 600 q 371 647 419 647 m 338 749 q 531 664 457 749 l 531 1042 l 658 1026 l 658 0 l 546 0 l 535 94 q 442 10 494 38 q 328 -17 390 -17 q 204 11 257 -17 q 117 89 151 39 q 67 209 83 139 q 50 365 50 279 q 69 519 50 449 q 126 640 89 589 q 216 719 163 690 q 338 749 269 749 m 711 1060 q 735 1114 711 1092 q 792 1136 758 1136 q 848 1114 825 1136 q 871 1060 871 1092 q 865 1022 871 1040 q 847 979 860 1004 l 778 832 l 704 832 l 743 994 q 711 1060 711 1019 z "},"Đ":{"ha":833,"x_min":19,"x_max":779,"o":"m 779 483 q 740 239 779 333 q 638 92 700 144 q 497 19 575 39 q 343 0 419 0 l 119 0 l 119 442 l 19 442 l 19 539 l 119 539 l 119 957 l 328 957 q 494 939 413 957 q 638 869 575 921 q 740 725 701 818 q 779 483 779 632 m 639 483 q 613 678 639 606 q 547 789 588 750 q 456 840 506 828 q 357 851 406 851 l 251 851 l 251 539 l 490 539 l 490 442 l 251 442 l 251 104 l 358 104 q 460 120 410 104 q 549 178 510 136 q 614 293 589 219 q 639 483 639 367 z "},"đ":{"ha":833,"x_min":83,"x_max":801,"o":"m 371 749 q 564 664 490 749 l 564 829 l 333 829 l 333 926 l 564 926 l 564 1042 l 692 1026 l 692 926 l 801 926 l 801 829 l 692 829 l 692 0 l 579 0 l 568 94 q 476 10 528 38 q 361 -17 424 -17 q 238 11 290 -17 q 151 89 185 39 q 100 209 117 139 q 83 365 83 279 q 103 519 83 449 q 159 640 122 589 q 249 719 196 690 q 371 749 303 749 m 404 647 q 269 578 317 647 q 221 365 221 508 q 264 153 221 222 q 390 85 307 85 q 492 119 449 85 q 564 197 535 153 l 564 557 q 494 624 535 600 q 404 647 453 647 z "},"Ē":{"ha":833,"x_min":156,"x_max":719,"o":"m 288 851 l 288 539 l 640 539 l 640 433 l 288 433 l 288 104 l 719 104 l 719 0 l 156 0 l 156 957 l 708 957 l 693 851 l 288 851 m 619 1106 l 240 1106 l 240 1203 l 619 1203 l 619 1106 z "},"ē":{"ha":833,"x_min":104,"x_max":731,"o":"m 238 322 q 305 144 246 200 q 447 88 364 88 q 546 102 497 88 q 642 156 594 117 l 700 71 q 582 7 649 31 q 444 -17 515 -17 q 299 11 363 -17 q 192 89 236 39 q 126 209 149 139 q 104 365 104 279 q 126 519 104 449 q 190 640 149 589 q 291 719 232 690 q 424 749 350 749 q 649 652 568 749 q 731 388 731 556 q 730 351 731 368 q 728 322 729 335 l 238 322 m 424 647 q 297 591 349 647 q 238 417 244 535 l 607 417 q 557 589 604 531 q 424 647 510 647 m 614 936 l 235 936 l 235 1032 l 614 1032 l 614 936 z "},"Ĕ":{"ha":833,"x_min":156,"x_max":719,"o":"m 288 851 l 288 539 l 640 539 l 640 433 l 288 433 l 288 104 l 719 104 l 719 0 l 156 0 l 156 957 l 708 957 l 693 851 l 288 851 m 429 1056 q 343 1072 381 1056 q 280 1115 306 1089 q 240 1174 254 1142 q 221 1238 225 1206 l 306 1256 q 429 1153 333 1153 q 556 1256 528 1153 l 640 1238 q 621 1174 636 1206 q 580 1115 606 1142 q 517 1072 554 1089 q 429 1056 479 1056 z "},"ĕ":{"ha":833,"x_min":104,"x_max":731,"o":"m 238 322 q 305 144 246 200 q 447 88 364 88 q 546 102 497 88 q 642 156 594 117 l 700 71 q 582 7 649 31 q 444 -17 515 -17 q 299 11 363 -17 q 192 89 236 39 q 126 209 149 139 q 104 365 104 279 q 126 519 104 449 q 190 640 149 589 q 291 719 232 690 q 424 749 350 749 q 649 652 568 749 q 731 388 731 556 q 730 351 731 368 q 728 322 729 335 l 238 322 m 424 647 q 297 591 349 647 q 238 417 244 535 l 607 417 q 557 589 604 531 q 424 647 510 647 m 424 872 q 338 890 375 872 q 275 936 301 908 q 234 999 249 964 q 215 1067 219 1033 l 300 1085 q 345 1000 315 1032 q 424 968 375 968 q 505 1000 474 968 q 551 1085 536 1032 l 636 1067 q 617 999 632 1033 q 575 936 601 964 q 510 890 549 908 q 424 872 472 872 z "},"Ė":{"ha":833,"x_min":156,"x_max":719,"o":"m 288 851 l 288 539 l 640 539 l 640 433 l 288 433 l 288 104 l 719 104 l 719 0 l 156 0 l 156 957 l 708 957 l 693 851 l 288 851 m 519 1163 q 495 1100 519 1125 q 431 1075 471 1075 q 366 1100 390 1075 q 342 1163 342 1125 q 366 1224 342 1199 q 431 1249 390 1249 q 495 1224 471 1249 q 519 1163 519 1199 z "},"ė":{"ha":833,"x_min":104,"x_max":731,"o":"m 238 322 q 305 144 246 200 q 447 88 364 88 q 546 102 497 88 q 642 156 594 117 l 700 71 q 582 7 649 31 q 444 -17 515 -17 q 299 11 363 -17 q 192 89 236 39 q 126 209 149 139 q 104 365 104 279 q 126 519 104 449 q 190 640 149 589 q 291 719 232 690 q 424 749 350 749 q 649 652 568 749 q 731 388 731 556 q 730 351 731 368 q 728 322 729 335 l 238 322 m 424 647 q 297 591 349 647 q 238 417 244 535 l 607 417 q 557 589 604 531 q 424 647 510 647 m 514 993 q 489 931 514 956 q 424 906 464 906 q 359 931 383 906 q 335 993 335 956 q 359 1054 335 1029 q 424 1079 383 1079 q 489 1054 464 1079 q 514 993 514 1029 z "},"Ę":{"ha":833,"x_min":100,"x_max":750,"o":"m 232 851 l 232 539 l 585 539 l 585 433 l 232 433 l 232 104 l 664 104 l 664 0 q 601 -46 625 -22 q 563 -92 576 -69 q 545 -137 550 -115 q 540 -176 540 -158 q 561 -229 540 -208 q 629 -250 582 -250 q 680 -243 657 -250 q 715 -229 703 -236 l 750 -304 q 684 -328 717 -321 q 615 -335 651 -335 q 481 -293 528 -335 q 433 -181 433 -251 q 467 -83 433 -131 q 561 0 501 -35 l 100 0 l 100 957 l 653 957 l 638 851 l 232 851 z "},"ę":{"ha":833,"x_min":104,"x_max":731,"o":"m 238 322 q 305 144 246 200 q 447 88 364 88 q 546 102 497 88 q 642 156 594 117 l 700 71 q 571 -46 622 17 q 519 -176 519 -108 q 540 -229 519 -208 q 608 -250 561 -250 q 659 -243 636 -250 q 694 -229 682 -236 l 729 -304 q 663 -328 696 -321 q 594 -335 631 -335 q 460 -293 507 -335 q 413 -181 413 -251 q 445 -84 413 -132 q 535 0 478 -36 q 490 -12 511 -8 q 444 -17 469 -17 q 299 11 363 -17 q 192 89 236 39 q 126 209 149 139 q 104 365 104 279 q 126 519 104 449 q 190 640 149 589 q 291 719 232 690 q 424 749 350 749 q 649 652 568 749 q 731 388 731 556 q 730 351 731 368 q 728 322 729 335 l 238 322 m 424 647 q 297 591 349 647 q 238 417 244 535 l 607 417 q 557 589 604 531 q 424 647 510 647 z "},"Ě":{"ha":833,"x_min":156,"x_max":719,"o":"m 288 851 l 288 539 l 640 539 l 640 433 l 288 433 l 288 104 l 719 104 l 719 0 l 156 0 l 156 957 l 708 957 l 693 851 l 288 851 m 432 1157 l 607 1271 l 661 1208 l 474 1054 l 389 1054 l 200 1208 l 256 1271 l 432 1157 z "},"ě":{"ha":833,"x_min":104,"x_max":731,"o":"m 238 322 q 305 144 246 200 q 447 88 364 88 q 546 102 497 88 q 642 156 594 117 l 700 71 q 582 7 649 31 q 444 -17 515 -17 q 299 11 363 -17 q 192 89 236 39 q 126 209 149 139 q 104 365 104 279 q 126 519 104 449 q 190 640 149 589 q 291 719 232 690 q 424 749 350 749 q 649 652 568 749 q 731 388 731 556 q 730 351 731 368 q 728 322 729 335 l 238 322 m 424 647 q 297 591 349 647 q 238 417 244 535 l 607 417 q 557 589 604 531 q 424 647 510 647 m 426 974 l 600 1100 l 656 1039 l 468 871 l 383 871 l 194 1039 l 253 1100 l 426 974 z "},"Ĝ":{"ha":833,"x_min":74,"x_max":767,"o":"m 451 -17 q 294 15 364 -17 q 176 108 225 46 q 100 263 126 169 q 74 479 74 356 q 108 695 74 603 q 198 849 142 788 q 326 942 254 911 q 476 974 399 974 q 564 967 525 974 q 636 946 603 960 q 698 913 669 932 q 756 867 726 893 l 678 786 q 586 846 633 826 q 478 865 539 865 q 380 846 428 865 q 295 781 332 826 q 236 661 258 735 q 214 479 214 588 q 230 303 214 376 q 277 182 246 229 q 354 113 308 135 q 461 92 400 92 q 636 136 556 92 l 636 419 l 456 419 l 440 526 l 767 526 l 767 68 q 627 8 701 32 q 451 -17 553 -17 m 286 1054 l 231 1117 l 419 1271 l 504 1271 l 692 1117 l 638 1054 l 461 1167 l 286 1054 z "},"ĝ":{"ha":833,"x_min":69,"x_max":767,"o":"m 196 -35 q 187 -60 190 -46 q 183 -92 183 -75 q 233 -168 183 -140 q 392 -196 282 -196 q 493 -187 453 -196 q 558 -162 533 -178 q 592 -127 582 -147 q 603 -83 603 -107 q 566 -13 603 -37 q 428 15 529 11 q 217 54 289 21 q 144 164 144 88 q 163 231 144 199 q 218 288 182 263 q 132 372 163 319 q 101 492 101 425 q 122 593 101 546 q 180 674 142 640 q 272 728 218 708 q 393 749 326 749 q 501 753 453 749 q 591 767 550 758 q 665 788 632 776 q 729 814 699 800 l 767 699 q 669 680 721 683 q 561 676 618 676 l 561 672 q 647 600 615 647 q 678 490 678 553 q 658 392 678 438 q 602 314 639 347 q 513 262 565 281 q 396 243 461 243 q 344 246 371 243 q 294 256 318 249 q 272 228 281 244 q 264 199 264 213 q 271 169 264 182 q 297 148 278 157 q 352 134 317 139 q 444 128 388 129 q 658 74 583 124 q 732 -76 732 24 q 705 -175 732 -133 q 632 -244 678 -217 q 524 -283 586 -271 q 392 -296 463 -296 q 244 -283 306 -296 q 144 -245 183 -269 q 88 -188 106 -221 q 69 -115 69 -156 q 74 -63 69 -90 q 97 -8 79 -36 l 196 -35 m 232 492 q 275 374 232 419 q 393 328 318 328 q 510 373 468 328 q 551 493 551 418 q 511 615 551 572 q 393 657 471 657 q 274 610 317 657 q 232 492 232 563 m 233 871 l 175 932 l 364 1100 l 449 1100 l 636 932 l 581 871 l 407 997 l 233 871 z "},"Ğ":{"ha":833,"x_min":74,"x_max":767,"o":"m 451 -17 q 294 15 364 -17 q 176 108 225 46 q 100 263 126 169 q 74 479 74 356 q 108 695 74 603 q 198 849 142 788 q 326 942 254 911 q 476 974 399 974 q 564 967 525 974 q 636 946 603 960 q 698 913 669 932 q 756 867 726 893 l 678 786 q 586 846 633 826 q 478 865 539 865 q 380 846 428 865 q 295 781 332 826 q 236 661 258 735 q 214 479 214 588 q 230 303 214 376 q 277 182 246 229 q 354 113 308 135 q 461 92 400 92 q 636 136 556 92 l 636 419 l 456 419 l 440 526 l 767 526 l 767 68 q 627 8 701 32 q 451 -17 553 -17 m 457 1056 q 371 1072 408 1056 q 308 1115 333 1089 q 267 1174 282 1142 q 249 1238 253 1206 l 333 1256 q 457 1153 361 1153 q 583 1256 556 1153 l 668 1238 q 649 1174 664 1206 q 608 1115 633 1142 q 544 1072 582 1089 q 457 1056 507 1056 z "},"ğ":{"ha":833,"x_min":69,"x_max":767,"o":"m 196 -35 q 187 -60 190 -46 q 183 -92 183 -75 q 233 -168 183 -140 q 392 -196 282 -196 q 493 -187 453 -196 q 558 -162 533 -178 q 592 -127 582 -147 q 603 -83 603 -107 q 566 -13 603 -37 q 428 15 529 11 q 217 54 289 21 q 144 164 144 88 q 163 231 144 199 q 218 288 182 263 q 132 372 163 319 q 101 492 101 425 q 122 593 101 546 q 180 674 142 640 q 272 728 218 708 q 393 749 326 749 q 501 753 453 749 q 591 767 550 758 q 665 788 632 776 q 729 814 699 800 l 767 699 q 669 680 721 683 q 561 676 618 676 l 561 672 q 647 600 615 647 q 678 490 678 553 q 658 392 678 438 q 602 314 639 347 q 513 262 565 281 q 396 243 461 243 q 344 246 371 243 q 294 256 318 249 q 272 228 281 244 q 264 199 264 213 q 271 169 264 182 q 297 148 278 157 q 352 134 317 139 q 444 128 388 129 q 658 74 583 124 q 732 -76 732 24 q 705 -175 732 -133 q 632 -244 678 -217 q 524 -283 586 -271 q 392 -296 463 -296 q 244 -283 306 -296 q 144 -245 183 -269 q 88 -188 106 -221 q 69 -115 69 -156 q 74 -63 69 -90 q 97 -8 79 -36 l 196 -35 m 232 492 q 275 374 232 419 q 393 328 318 328 q 510 373 468 328 q 551 493 551 418 q 511 615 551 572 q 393 657 471 657 q 274 610 317 657 q 232 492 232 563 m 404 872 q 319 890 356 872 q 256 936 282 908 q 215 999 229 964 q 196 1067 200 1033 l 281 1085 q 326 1000 296 1032 q 404 968 356 968 q 485 1000 454 968 q 532 1085 517 1032 l 617 1067 q 597 999 613 1033 q 556 936 582 964 q 491 890 529 908 q 404 872 453 872 z "},"Ġ":{"ha":833,"x_min":74,"x_max":767,"o":"m 451 -17 q 294 15 364 -17 q 176 108 225 46 q 100 263 126 169 q 74 479 74 356 q 108 695 74 603 q 198 849 142 788 q 326 942 254 911 q 476 974 399 974 q 564 967 525 974 q 636 946 603 960 q 698 913 669 932 q 756 867 726 893 l 678 786 q 586 846 633 826 q 478 865 539 865 q 380 846 428 865 q 295 781 332 826 q 236 661 258 735 q 214 479 214 588 q 230 303 214 376 q 277 182 246 229 q 354 113 308 135 q 461 92 400 92 q 636 136 556 92 l 636 419 l 456 419 l 440 526 l 767 526 l 767 68 q 627 8 701 32 q 451 -17 553 -17 m 549 1163 q 524 1100 549 1125 q 460 1075 500 1075 q 395 1100 419 1075 q 371 1163 371 1125 q 395 1224 371 1199 q 460 1249 419 1249 q 524 1224 500 1249 q 549 1163 549 1199 z "},"ġ":{"ha":833,"x_min":69,"x_max":767,"o":"m 196 -35 q 187 -60 190 -46 q 183 -92 183 -75 q 233 -168 183 -140 q 392 -196 282 -196 q 493 -187 453 -196 q 558 -162 533 -178 q 592 -127 582 -147 q 603 -83 603 -107 q 566 -13 603 -37 q 428 15 529 11 q 217 54 289 21 q 144 164 144 88 q 163 231 144 199 q 218 288 182 263 q 132 372 163 319 q 101 492 101 425 q 122 593 101 546 q 180 674 142 640 q 272 728 218 708 q 393 749 326 749 q 501 753 453 749 q 591 767 550 758 q 665 788 632 776 q 729 814 699 800 l 767 699 q 669 680 721 683 q 561 676 618 676 l 561 672 q 647 600 615 647 q 678 490 678 553 q 658 392 678 438 q 602 314 639 347 q 513 262 565 281 q 396 243 461 243 q 344 246 371 243 q 294 256 318 249 q 272 228 281 244 q 264 199 264 213 q 271 169 264 182 q 297 148 278 157 q 352 134 317 139 q 444 128 388 129 q 658 74 583 124 q 732 -76 732 24 q 705 -175 732 -133 q 632 -244 678 -217 q 524 -283 586 -271 q 392 -296 463 -296 q 244 -283 306 -296 q 144 -245 183 -269 q 88 -188 106 -221 q 69 -115 69 -156 q 74 -63 69 -90 q 97 -8 79 -36 l 196 -35 m 232 492 q 275 374 232 419 q 393 328 318 328 q 510 373 468 328 q 551 493 551 418 q 511 615 551 572 q 393 657 471 657 q 274 610 317 657 q 232 492 232 563 m 497 993 q 472 931 497 956 q 407 906 447 906 q 342 931 367 906 q 318 993 318 956 q 342 1054 318 1029 q 407 1079 367 1079 q 472 1054 447 1079 q 497 993 497 1029 z "},"Ģ":{"ha":833,"x_min":74,"x_max":767,"o":"m 451 -17 q 294 15 364 -17 q 176 108 225 46 q 100 263 126 169 q 74 479 74 356 q 108 695 74 603 q 198 849 142 788 q 326 942 254 911 q 476 974 399 974 q 564 967 525 974 q 636 946 603 960 q 698 913 669 932 q 756 867 726 893 l 678 786 q 586 846 633 826 q 478 865 539 865 q 380 846 428 865 q 295 781 332 826 q 236 661 258 735 q 214 479 214 588 q 230 303 214 376 q 277 182 246 229 q 354 113 308 135 q 461 92 400 92 q 636 136 556 92 l 636 419 l 456 419 l 440 526 l 767 526 l 767 68 q 627 8 701 32 q 451 -17 553 -17 m 386 -175 q 409 -119 386 -142 q 465 -97 432 -97 q 522 -119 499 -97 q 544 -175 544 -142 q 539 -212 544 -194 q 522 -256 533 -231 l 453 -403 l 378 -403 l 418 -240 q 386 -175 386 -215 z "},"ģ":{"ha":833,"x_min":69,"x_max":767,"o":"m 196 -35 q 187 -60 190 -46 q 183 -92 183 -75 q 233 -168 183 -140 q 392 -196 282 -196 q 493 -187 453 -196 q 558 -162 533 -178 q 592 -127 582 -147 q 603 -83 603 -107 q 566 -13 603 -37 q 428 15 529 11 q 217 54 289 21 q 144 164 144 88 q 163 231 144 199 q 218 288 182 263 q 132 372 163 319 q 101 492 101 425 q 122 593 101 546 q 180 674 142 640 q 272 728 218 708 q 393 749 326 749 q 501 753 453 749 q 591 767 550 758 q 665 788 632 776 q 729 814 699 800 l 767 699 q 669 680 721 683 q 561 676 618 676 l 561 672 q 647 600 615 647 q 678 490 678 553 q 658 392 678 438 q 602 314 639 347 q 513 262 565 281 q 396 243 461 243 q 344 246 371 243 q 294 256 318 249 q 272 228 281 244 q 264 199 264 213 q 271 169 264 182 q 297 148 278 157 q 352 134 317 139 q 444 128 388 129 q 658 74 583 124 q 732 -76 732 24 q 705 -175 732 -133 q 632 -244 678 -217 q 524 -283 586 -271 q 392 -296 463 -296 q 244 -283 306 -296 q 144 -245 183 -269 q 88 -188 106 -221 q 69 -115 69 -156 q 74 -63 69 -90 q 97 -8 79 -36 l 196 -35 m 232 492 q 275 374 232 419 q 393 328 318 328 q 510 373 468 328 q 551 493 551 418 q 511 615 551 572 q 393 657 471 657 q 274 610 317 657 q 232 492 232 563 m 482 969 q 458 915 482 938 q 401 892 435 892 q 345 915 368 892 q 322 969 322 938 q 328 1007 322 989 q 346 1050 333 1025 l 415 1197 l 489 1197 l 450 1035 q 482 969 482 1010 z "},"Ĥ":{"ha":833,"x_min":111,"x_max":722,"o":"m 590 0 l 590 449 l 243 449 l 243 0 l 111 0 l 111 957 l 243 957 l 243 557 l 590 557 l 590 957 l 722 957 l 722 0 l 590 0 m 242 1054 l 186 1117 l 375 1271 l 460 1271 l 647 1117 l 593 1054 l 417 1167 l 242 1054 z "},"ĥ":{"ha":833,"x_min":135,"x_max":700,"o":"m 135 0 l 135 1025 l 263 1039 l 263 639 q 368 720 307 692 q 494 749 429 749 q 651 692 601 749 q 700 532 700 635 l 700 0 l 572 0 l 572 524 q 543 619 572 590 q 451 649 514 649 q 394 638 422 649 q 342 611 367 628 q 297 573 318 594 q 263 531 276 551 l 263 0 l 135 0 m 242 1082 l 186 1144 l 375 1299 l 460 1299 l 647 1144 l 593 1082 l 417 1194 l 242 1082 z "},"Ħ":{"ha":833,"x_min":4,"x_max":831,"o":"m 590 0 l 590 449 l 243 449 l 243 0 l 111 0 l 111 706 l 4 706 l 4 801 l 111 801 l 111 957 l 243 957 l 243 801 l 590 801 l 590 957 l 722 957 l 722 801 l 831 801 l 831 706 l 722 706 l 722 0 l 590 0 m 590 557 l 590 706 l 243 706 l 243 557 l 590 557 z "},"ħ":{"ha":833,"x_min":33,"x_max":708,"o":"m 143 0 l 143 829 l 33 829 l 33 926 l 143 926 l 143 1025 l 271 1039 l 271 926 l 501 926 l 501 829 l 271 829 l 271 639 q 376 720 315 692 q 503 749 438 749 q 659 692 610 749 q 708 532 708 635 l 708 0 l 581 0 l 581 524 q 551 619 581 590 q 460 649 522 649 q 403 638 431 649 q 351 611 375 628 q 306 573 326 594 q 271 531 285 551 l 271 0 l 143 0 z "},"Ĩ":{"ha":833,"x_min":139,"x_max":694,"o":"m 694 853 l 483 853 l 483 104 l 694 104 l 694 0 l 139 0 l 139 104 l 350 104 l 350 853 l 139 853 l 139 957 l 694 957 l 694 853 m 490 1074 q 438 1084 460 1074 q 400 1107 417 1094 q 369 1130 383 1119 q 338 1140 354 1140 q 299 1124 314 1140 q 267 1079 283 1108 l 188 1114 q 246 1200 208 1163 q 344 1238 283 1238 q 397 1227 375 1238 q 436 1204 419 1217 l 467 1181 q 497 1171 481 1171 q 536 1186 521 1171 q 568 1231 551 1201 l 647 1196 q 588 1110 625 1147 q 490 1074 550 1074 z "},"ĩ":{"ha":833,"x_min":163,"x_max":718,"o":"m 718 0 l 163 0 l 163 99 l 386 99 l 386 633 l 169 633 l 169 732 l 514 732 l 514 99 l 718 99 l 718 0 m 478 903 q 426 913 447 903 q 388 936 404 924 q 356 959 371 949 q 325 969 342 969 q 286 953 301 969 q 254 908 271 938 l 175 944 q 234 1030 196 993 q 332 1067 272 1067 q 385 1056 363 1067 q 424 1033 407 1046 l 454 1010 q 485 1000 468 1000 q 524 1016 508 1000 q 556 1061 539 1032 l 635 1026 q 576 940 614 978 q 478 903 538 903 z "},"Ī":{"ha":833,"x_min":139,"x_max":694,"o":"m 694 853 l 483 853 l 483 104 l 694 104 l 694 0 l 139 0 l 139 104 l 350 104 l 350 853 l 139 853 l 139 957 l 694 957 l 694 853 m 606 1106 l 226 1106 l 226 1203 l 606 1203 l 606 1106 z "},"ī":{"ha":833,"x_min":163,"x_max":718,"o":"m 593 936 l 214 936 l 214 1032 l 593 1032 l 593 936 m 718 0 l 163 0 l 163 99 l 386 99 l 386 633 l 169 633 l 169 732 l 514 732 l 514 99 l 718 99 l 718 0 z "},"Ĭ":{"ha":833,"x_min":139,"x_max":694,"o":"m 694 853 l 483 853 l 483 104 l 694 104 l 694 0 l 139 0 l 139 104 l 350 104 l 350 853 l 139 853 l 139 957 l 694 957 l 694 853 m 415 1056 q 329 1072 367 1056 q 266 1115 292 1089 q 226 1174 240 1142 q 207 1238 211 1206 l 292 1256 q 415 1153 319 1153 q 542 1256 514 1153 l 626 1238 q 607 1174 622 1206 q 566 1115 592 1142 q 503 1072 540 1089 q 415 1056 465 1056 z "},"ĭ":{"ha":833,"x_min":163,"x_max":718,"o":"m 414 872 q 328 890 365 872 q 265 936 292 908 q 224 999 239 964 q 206 1067 210 1033 l 290 1085 q 335 1000 306 1032 q 414 968 365 968 q 495 1000 464 968 q 542 1085 526 1032 l 626 1067 q 607 999 622 1033 q 565 936 592 964 q 501 890 539 908 q 414 872 463 872 m 718 0 l 163 0 l 163 99 l 386 99 l 386 633 l 169 633 l 169 732 l 514 732 l 514 99 l 718 99 l 718 0 z "},"Į":{"ha":833,"x_min":139,"x_max":694,"o":"m 694 853 l 483 853 l 483 104 l 694 104 l 694 0 l 483 0 q 420 -46 444 -22 q 383 -92 396 -69 q 365 -137 369 -115 q 360 -176 360 -158 q 381 -229 360 -208 q 449 -250 401 -250 q 499 -243 476 -250 q 535 -229 522 -236 l 569 -304 q 503 -328 536 -321 q 435 -335 471 -335 q 300 -293 347 -335 q 253 -181 253 -251 q 287 -83 253 -131 q 381 0 321 -35 l 139 0 l 139 104 l 350 104 l 350 853 l 139 853 l 139 957 l 694 957 l 694 853 z "},"į":{"ha":833,"x_min":163,"x_max":718,"o":"m 718 0 l 517 0 q 453 -46 478 -22 q 416 -92 429 -69 q 398 -137 403 -115 q 393 -176 393 -158 q 414 -229 393 -208 q 482 -250 435 -250 q 533 -243 510 -250 q 568 -229 556 -236 l 603 -304 q 537 -328 569 -321 q 468 -335 504 -335 q 333 -293 381 -335 q 286 -181 286 -251 q 320 -83 286 -131 q 414 0 354 -35 l 163 0 l 163 99 l 386 99 l 386 633 l 169 633 l 169 732 l 514 732 l 514 99 l 718 99 l 718 0 m 540 993 q 515 931 540 956 q 450 906 490 906 q 385 931 410 906 q 361 993 361 956 q 385 1054 361 1029 q 450 1079 410 1079 q 515 1054 490 1079 q 540 993 540 1029 z "},"İ":{"ha":833,"x_min":140,"x_max":696,"o":"m 696 853 l 485 853 l 485 104 l 696 104 l 696 0 l 140 0 l 140 104 l 351 104 l 351 853 l 140 853 l 140 957 l 696 957 l 696 853 m 506 1163 q 481 1100 506 1125 q 417 1075 457 1075 q 352 1100 376 1075 q 328 1163 328 1125 q 352 1224 328 1199 q 417 1249 376 1249 q 481 1224 457 1249 q 506 1163 506 1199 z "},"ı":{"ha":833,"x_min":163,"x_max":718,"o":"m 718 0 l 163 0 l 163 99 l 386 99 l 386 633 l 169 633 l 169 732 l 514 732 l 514 99 l 718 99 l 718 0 z "},"Ĳ":{"ha":833,"x_min":22,"x_max":750,"o":"m 275 -94 q 428 -33 364 -65 q 535 42 493 0 q 598 139 578 85 q 618 264 618 193 l 618 853 l 290 853 l 290 104 l 397 104 l 397 0 l 22 0 l 22 104 l 157 104 l 157 853 l 22 853 l 22 957 l 750 957 l 750 258 q 643 -14 750 103 q 307 -193 536 -131 l 275 -94 z "},"ĳ":{"ha":833,"x_min":79,"x_max":728,"o":"m 456 0 l 79 0 l 79 99 l 206 99 l 206 636 l 86 636 l 86 732 l 715 732 l 715 86 q 688 -53 715 7 q 611 -160 660 -114 q 497 -238 563 -206 q 354 -296 431 -271 l 315 -197 q 416 -155 367 -178 q 504 -99 465 -132 q 567 -24 543 -67 q 590 78 590 19 l 590 636 l 329 636 l 329 99 l 456 99 l 456 0 m 360 993 q 335 931 360 956 q 269 906 310 906 q 205 931 229 906 q 181 993 181 956 q 205 1054 181 1029 q 269 1079 229 1079 q 335 1054 310 1079 q 360 993 360 1029 m 728 993 q 703 931 728 956 q 638 906 678 906 q 573 931 597 906 q 549 993 549 956 q 573 1054 549 1029 q 638 1079 597 1079 q 703 1054 678 1079 q 728 993 728 1029 z "},"Ĵ":{"ha":833,"x_min":150,"x_max":639,"o":"m 625 258 q 518 -14 625 103 q 182 -193 411 -131 l 150 -94 q 303 -33 239 -65 q 410 42 368 0 q 473 139 453 85 q 493 264 493 193 l 493 853 l 153 853 l 153 957 l 625 957 l 625 258 m 233 1054 l 178 1117 l 367 1271 l 451 1271 l 639 1117 l 585 1054 l 408 1167 l 233 1054 z "},"ĵ":{"ha":833,"x_min":125,"x_max":647,"o":"m 244 871 l 186 932 l 375 1100 l 460 1100 l 647 932 l 592 871 l 418 997 l 244 871 m 125 -197 q 226 -155 176 -178 q 313 -99 275 -132 q 374 -24 351 -67 q 397 78 397 19 l 397 633 l 160 633 l 160 732 l 525 732 l 525 86 q 497 -53 525 7 q 421 -160 469 -114 q 306 -238 372 -206 q 164 -296 240 -271 l 125 -197 z "},"Ķ":{"ha":833,"x_min":139,"x_max":818,"o":"m 271 0 l 139 0 l 139 957 l 271 957 l 271 0 m 278 511 l 642 957 l 792 957 l 429 519 l 818 0 l 656 0 l 278 511 m 349 -175 q 372 -119 349 -142 q 429 -97 396 -97 q 485 -119 463 -97 q 508 -175 508 -142 q 485 -254 508 -207 l 415 -401 l 342 -401 l 382 -240 q 358 -211 367 -228 q 349 -175 349 -194 z "},"ķ":{"ha":833,"x_min":135,"x_max":779,"o":"m 135 0 l 135 1026 l 263 1042 l 263 0 l 135 0 m 275 400 l 583 732 l 743 732 l 431 403 l 779 0 l 615 0 l 275 400 m 328 -175 q 351 -119 328 -142 q 407 -97 374 -97 q 463 -119 440 -97 q 486 -175 486 -142 q 481 -212 486 -194 q 464 -256 475 -231 l 394 -403 l 319 -403 l 360 -240 q 328 -175 328 -215 z "},"ĸ":{"ha":833,"x_min":135,"x_max":779,"o":"m 135 0 l 135 732 l 263 732 l 263 0 l 135 0 m 275 392 l 583 732 l 743 732 l 428 400 l 779 0 l 615 0 l 275 392 z "},"Ĺ":{"ha":833,"x_min":139,"x_max":749,"o":"m 182 0 l 182 957 l 314 957 l 314 115 l 749 115 l 733 0 l 182 0 m 139 1117 l 401 1268 l 467 1161 l 178 1049 l 139 1117 z "},"ĺ":{"ha":833,"x_min":65,"x_max":689,"o":"m 689 22 q 613 -5 663 7 q 511 -17 564 -17 q 349 40 410 -17 q 289 197 289 96 l 289 928 l 65 928 l 65 1026 l 417 1026 l 417 186 q 449 111 417 133 q 535 89 482 89 q 595 96 564 89 q 656 114 626 103 l 689 22 m 193 1144 l 456 1296 l 521 1189 l 232 1076 l 193 1144 z "},"Ļ":{"ha":833,"x_min":182,"x_max":749,"o":"m 182 0 l 182 957 l 314 957 l 314 115 l 749 115 l 733 0 l 182 0 m 372 -175 q 396 -119 372 -142 q 453 -97 419 -97 q 509 -119 486 -97 q 532 -175 532 -142 q 508 -254 532 -207 l 439 -401 l 365 -401 l 406 -240 q 381 -211 390 -228 q 372 -175 372 -194 z "},"ļ":{"ha":833,"x_min":65,"x_max":689,"o":"m 689 22 q 613 -5 663 7 q 511 -17 564 -17 q 349 40 410 -17 q 289 197 289 96 l 289 928 l 65 928 l 65 1026 l 417 1026 l 417 186 q 449 111 417 133 q 535 89 482 89 q 595 96 564 89 q 656 114 626 103 l 689 22 m 403 -175 q 426 -119 403 -142 q 482 -97 449 -97 q 538 -119 515 -97 q 561 -175 561 -142 q 556 -212 561 -194 q 539 -256 550 -231 l 469 -403 l 394 -403 l 435 -240 q 403 -175 403 -215 z "},"Ľ":{"ha":833,"x_min":182,"x_max":749,"o":"m 182 0 l 182 957 l 314 957 l 314 115 l 749 115 l 733 0 l 182 0 m 436 886 q 460 940 436 918 q 517 963 483 963 q 573 940 550 963 q 596 886 596 918 q 590 849 596 867 q 572 806 585 831 l 503 658 l 429 658 l 468 821 q 436 886 436 846 z "},"ľ":{"ha":833,"x_min":65,"x_max":704,"o":"m 689 22 q 613 -5 663 7 q 511 -17 564 -17 q 349 40 410 -17 q 289 197 289 96 l 289 928 l 65 928 l 65 1026 l 417 1026 l 417 186 q 449 111 417 133 q 535 89 482 89 q 595 96 564 89 q 656 114 626 103 l 689 22 m 544 1060 q 568 1114 544 1092 q 625 1136 592 1136 q 681 1114 658 1136 q 704 1060 704 1092 q 699 1022 704 1040 q 681 979 693 1004 l 611 832 l 538 832 l 576 994 q 544 1060 544 1019 z "},"Ŀ":{"ha":833,"x_min":182,"x_max":749,"o":"m 182 0 l 182 957 l 314 957 l 314 115 l 749 115 l 733 0 l 182 0 m 663 503 q 638 440 663 465 q 572 415 613 415 q 508 440 532 415 q 483 503 483 465 q 508 564 483 539 q 572 589 532 589 q 638 564 613 589 q 663 503 663 539 z "},"ŀ":{"ha":833,"x_min":65,"x_max":689,"o":"m 689 22 q 613 -5 663 7 q 511 -17 564 -17 q 349 40 410 -17 q 289 197 289 96 l 289 928 l 65 928 l 65 1026 l 417 1026 l 417 186 q 449 111 417 133 q 535 89 482 89 q 595 96 564 89 q 656 114 626 103 l 689 22 m 668 500 q 643 438 668 463 q 578 413 618 413 q 513 438 538 413 q 489 500 489 463 q 513 561 489 536 q 578 586 538 586 q 643 561 618 586 q 668 500 668 536 z "},"Ł":{"ha":833,"x_min":51,"x_max":749,"o":"m 182 0 l 182 367 l 104 318 l 51 401 l 182 481 l 182 957 l 314 957 l 314 563 l 536 701 l 590 619 l 314 449 l 314 115 l 749 115 l 733 0 l 182 0 z "},"ł":{"ha":833,"x_min":65,"x_max":689,"o":"m 689 22 q 613 -5 663 7 q 511 -17 564 -17 q 349 40 410 -17 q 289 197 289 96 l 289 418 l 199 363 l 146 443 l 289 529 l 289 928 l 65 928 l 65 1026 l 417 1026 l 417 608 l 538 683 l 590 603 l 417 496 l 417 186 q 449 111 417 133 q 535 89 482 89 q 595 96 564 89 q 656 114 626 103 l 689 22 z "},"Ń":{"ha":833,"x_min":111,"x_max":722,"o":"m 542 0 l 219 810 l 214 810 q 218 768 215 801 q 224 686 221 735 q 229 580 226 638 q 232 467 232 522 l 232 0 l 111 0 l 111 957 l 288 957 l 614 143 l 619 143 q 615 183 618 151 q 609 260 613 214 q 603 366 606 307 q 601 490 601 425 l 601 957 l 722 957 l 722 0 l 542 0 m 281 1117 l 543 1268 l 608 1161 l 319 1049 l 281 1117 z "},"ń":{"ha":833,"x_min":135,"x_max":700,"o":"m 135 0 l 135 732 l 244 732 l 254 632 q 364 719 299 689 q 494 749 429 749 q 651 692 601 749 q 700 532 700 635 l 700 0 l 572 0 l 572 449 q 568 540 572 503 q 551 602 564 578 q 515 638 539 626 q 451 649 492 649 q 394 638 422 649 q 342 611 367 628 q 297 573 318 594 q 263 531 276 551 l 263 0 l 135 0 m 271 933 l 532 1099 l 597 992 l 313 864 l 271 933 z "},"Ņ":{"ha":833,"x_min":111,"x_max":722,"o":"m 542 0 l 219 810 l 214 810 q 218 768 215 801 q 224 686 221 735 q 229 580 226 638 q 232 467 232 522 l 232 0 l 111 0 l 111 957 l 288 957 l 614 143 l 619 143 q 615 183 618 151 q 609 260 613 214 q 603 366 606 307 q 601 490 601 425 l 601 957 l 722 957 l 722 0 l 542 0 m 336 -175 q 360 -119 336 -142 q 417 -97 383 -97 q 473 -119 450 -97 q 496 -175 496 -142 q 472 -254 496 -207 l 403 -401 l 329 -401 l 369 -240 q 345 -211 354 -228 q 336 -175 336 -194 z "},"ņ":{"ha":833,"x_min":135,"x_max":700,"o":"m 135 0 l 135 732 l 244 732 l 254 632 q 364 719 299 689 q 494 749 429 749 q 651 692 601 749 q 700 532 700 635 l 700 0 l 572 0 l 572 449 q 568 540 572 503 q 551 602 564 578 q 515 638 539 626 q 451 649 492 649 q 394 638 422 649 q 342 611 367 628 q 297 573 318 594 q 263 531 276 551 l 263 0 l 135 0 m 339 -175 q 362 -119 339 -142 q 418 -97 385 -97 q 474 -119 451 -97 q 497 -175 497 -142 q 492 -212 497 -194 q 475 -256 486 -231 l 406 -403 l 331 -403 l 371 -240 q 339 -175 339 -215 z "},"Ň":{"ha":833,"x_min":111,"x_max":722,"o":"m 542 0 l 219 810 l 214 810 q 218 768 215 801 q 224 686 221 735 q 229 580 226 638 q 232 467 232 522 l 232 0 l 111 0 l 111 957 l 288 957 l 614 143 l 619 143 q 615 183 618 151 q 609 260 613 214 q 603 366 606 307 q 601 490 601 425 l 601 957 l 722 957 l 722 0 l 542 0 m 417 1157 l 592 1271 l 646 1208 l 458 1054 l 374 1054 l 185 1208 l 240 1271 l 417 1157 z "},"ň":{"ha":833,"x_min":135,"x_max":700,"o":"m 135 0 l 135 732 l 244 732 l 254 632 q 364 719 299 689 q 494 749 429 749 q 651 692 601 749 q 700 532 700 635 l 700 0 l 572 0 l 572 449 q 568 540 572 503 q 551 602 564 578 q 515 638 539 626 q 451 649 492 649 q 394 638 422 649 q 342 611 367 628 q 297 573 318 594 q 263 531 276 551 l 263 0 l 135 0 m 425 974 l 599 1100 l 654 1039 l 467 871 l 382 871 l 193 1039 l 251 1100 l 425 974 z "},"ŉ":{"ha":833,"x_min":58,"x_max":700,"o":"m 135 0 l 135 732 l 244 732 l 254 632 q 364 719 299 689 q 494 749 429 749 q 651 692 601 749 q 700 532 700 635 l 700 0 l 572 0 l 572 449 q 568 540 572 503 q 551 602 564 578 q 515 638 539 626 q 451 649 492 649 q 394 638 422 649 q 342 611 367 628 q 297 573 318 594 q 263 531 276 551 l 263 0 l 135 0 m 65 1121 q 89 1175 65 1153 q 146 1197 113 1197 q 202 1175 179 1197 q 225 1121 225 1153 q 219 1083 225 1101 q 201 1040 214 1065 l 132 893 l 58 893 l 97 1056 q 65 1121 65 1081 z "},"Ŋ":{"ha":833,"x_min":111,"x_max":722,"o":"m 722 0 q 705 -106 722 -60 q 655 -187 688 -151 q 576 -250 622 -224 q 474 -296 531 -276 l 440 -196 q 516 -158 486 -178 q 563 -115 546 -139 q 588 -64 581 -92 q 594 0 594 -36 l 542 0 l 219 810 l 214 810 q 218 768 215 801 q 224 686 221 735 q 229 580 226 638 q 232 467 232 522 l 232 0 l 111 0 l 111 957 l 288 957 l 614 143 l 619 143 q 615 183 618 151 q 609 260 613 214 q 603 366 606 307 q 601 490 601 425 l 601 957 l 722 957 l 722 0 z "},"ŋ":{"ha":833,"x_min":135,"x_max":700,"o":"m 700 44 q 685 -88 700 -35 q 643 -179 671 -142 q 574 -243 615 -217 q 476 -294 532 -269 l 429 -201 q 492 -167 465 -185 q 537 -124 519 -150 q 563 -60 554 -99 q 572 36 572 -22 l 572 449 q 568 540 572 503 q 551 602 564 578 q 515 638 539 626 q 451 649 492 649 q 394 638 422 649 q 342 611 367 628 q 297 573 318 594 q 263 531 276 551 l 263 0 l 135 0 l 135 732 l 244 732 l 254 632 q 364 719 299 689 q 494 749 429 749 q 651 692 601 749 q 700 532 700 635 l 700 44 z "},"Ō":{"ha":833,"x_min":61,"x_max":772,"o":"m 772 478 q 750 277 772 368 q 683 121 728 186 q 571 19 638 56 q 417 -17 504 -17 q 263 19 329 -17 q 151 119 196 54 q 83 274 106 183 q 61 476 61 365 q 83 677 61 586 q 151 834 106 768 q 263 937 196 900 q 417 974 329 974 q 571 938 504 974 q 683 838 638 903 q 750 681 728 772 q 772 478 772 589 m 635 478 q 584 766 635 667 q 417 865 533 865 q 249 765 300 865 q 199 476 199 665 q 251 189 199 286 q 417 92 303 92 q 584 190 533 92 q 635 478 635 288 m 606 1106 l 226 1106 l 226 1203 l 606 1203 l 606 1106 z "},"ō":{"ha":833,"x_min":97,"x_max":736,"o":"m 606 936 l 226 936 l 226 1032 l 606 1032 l 606 936 m 600 367 q 555 578 600 510 q 418 646 510 646 q 280 578 326 646 q 233 365 233 510 q 279 154 233 222 q 417 86 325 86 q 554 154 508 86 q 600 367 600 222 m 97 365 q 118 521 97 450 q 179 642 139 592 q 280 721 219 693 q 418 749 340 749 q 556 722 496 749 q 656 644 615 694 q 716 524 696 594 q 736 367 736 454 q 715 211 736 282 q 654 90 694 140 q 554 11 614 39 q 417 -17 494 -17 q 279 10 339 -17 q 179 88 219 38 q 118 208 139 138 q 97 365 97 278 z "},"Ŏ":{"ha":833,"x_min":61,"x_max":772,"o":"m 772 478 q 750 277 772 368 q 683 121 728 186 q 571 19 638 56 q 417 -17 504 -17 q 263 19 329 -17 q 151 119 196 54 q 83 274 106 183 q 61 476 61 365 q 83 677 61 586 q 151 834 106 768 q 263 937 196 900 q 417 974 329 974 q 571 938 504 974 q 683 838 638 903 q 750 681 728 772 q 772 478 772 589 m 635 478 q 584 766 635 667 q 417 865 533 865 q 249 765 300 865 q 199 476 199 665 q 251 189 199 286 q 417 92 303 92 q 584 190 533 92 q 635 478 635 288 m 415 1056 q 329 1072 367 1056 q 266 1115 292 1089 q 226 1174 240 1142 q 207 1238 211 1206 l 292 1256 q 415 1153 319 1153 q 542 1256 514 1153 l 626 1238 q 607 1174 622 1206 q 566 1115 592 1142 q 503 1072 540 1089 q 415 1056 465 1056 z "},"ŏ":{"ha":833,"x_min":97,"x_max":736,"o":"m 600 367 q 555 578 600 510 q 418 646 510 646 q 280 578 326 646 q 233 365 233 510 q 279 154 233 222 q 417 86 325 86 q 554 154 508 86 q 600 367 600 222 m 97 365 q 118 521 97 450 q 179 642 139 592 q 280 721 219 693 q 418 749 340 749 q 556 722 496 749 q 656 644 615 694 q 716 524 696 594 q 736 367 736 454 q 715 211 736 282 q 654 90 694 140 q 554 11 614 39 q 417 -17 494 -17 q 279 10 339 -17 q 179 88 219 38 q 118 208 139 138 q 97 365 97 278 m 414 872 q 328 890 365 872 q 265 936 292 908 q 224 999 239 964 q 206 1067 210 1033 l 290 1085 q 335 1000 306 1032 q 414 968 365 968 q 495 1000 464 968 q 542 1085 526 1032 l 626 1067 q 607 999 622 1033 q 565 936 592 964 q 501 890 539 908 q 414 872 463 872 z "},"Ő":{"ha":833,"x_min":61,"x_max":772,"o":"m 772 478 q 750 277 772 368 q 683 121 728 186 q 571 19 638 56 q 417 -17 504 -17 q 263 19 329 -17 q 151 119 196 54 q 83 274 106 183 q 61 476 61 365 q 83 677 61 586 q 151 834 106 768 q 263 937 196 900 q 417 974 329 974 q 571 938 504 974 q 683 838 638 903 q 750 681 728 772 q 772 478 772 589 m 635 478 q 584 766 635 667 q 417 865 533 865 q 249 765 300 865 q 199 476 199 665 q 251 189 199 286 q 417 92 303 92 q 584 190 533 92 q 635 478 635 288 m 271 1100 l 382 1344 l 490 1293 l 351 1063 l 271 1100 m 499 1100 l 622 1344 l 729 1289 l 576 1060 l 499 1100 z "},"ő":{"ha":833,"x_min":97,"x_max":736,"o":"m 200 919 l 311 1164 l 419 1113 l 281 882 l 200 919 m 428 919 l 551 1164 l 658 1108 l 506 879 l 428 919 m 600 367 q 555 578 600 510 q 418 646 510 646 q 280 578 326 646 q 233 365 233 510 q 279 154 233 222 q 417 86 325 86 q 554 154 508 86 q 600 367 600 222 m 97 365 q 118 521 97 450 q 179 642 139 592 q 280 721 219 693 q 418 749 340 749 q 556 722 496 749 q 656 644 615 694 q 716 524 696 594 q 736 367 736 454 q 715 211 736 282 q 654 90 694 140 q 554 11 614 39 q 417 -17 494 -17 q 279 10 339 -17 q 179 88 219 38 q 118 208 139 138 q 97 365 97 278 z "},"Œ":{"ha":833,"x_min":0,"x_max":854,"o":"m 458 478 q 449 657 458 583 q 420 778 440 731 q 369 847 400 825 q 296 868 339 868 q 224 847 254 868 q 175 778 194 825 q 146 656 156 731 q 136 476 136 582 q 147 297 136 371 q 176 177 157 224 q 226 109 196 131 q 296 88 256 88 q 369 109 338 88 q 419 177 400 131 q 449 298 439 224 q 458 478 458 372 m 499 853 q 557 730 535 807 q 585 538 579 653 l 793 538 l 793 433 l 585 433 q 558 233 582 314 q 493 104 533 153 l 854 104 l 854 0 l 394 0 q 347 -12 371 -7 q 296 -17 324 -17 q 72 107 144 -17 q 0 476 0 231 q 73 846 0 718 q 296 974 146 974 q 348 969 324 974 q 399 957 372 965 l 843 957 l 828 853 l 499 853 z "},"œ":{"ha":833,"x_min":-4,"x_max":853,"o":"m 622 749 q 727 724 683 749 q 799 652 771 699 q 840 539 826 606 q 853 388 853 472 q 852 352 853 368 q 850 322 851 336 l 489 322 q 533 143 499 200 q 639 86 568 86 q 707 100 678 86 q 771 140 736 114 l 828 57 q 741 3 786 24 q 636 -17 696 -17 q 508 19 560 -17 q 428 121 456 54 q 358 21 401 58 q 233 -17 314 -17 q 127 10 172 -17 q 53 88 82 38 q 10 208 24 138 q -4 365 -4 278 q 10 521 -4 450 q 52 642 24 592 q 126 721 81 693 q 233 749 171 749 q 362 710 318 749 q 429 608 406 672 q 499 709 454 669 q 622 749 544 749 m 365 367 q 339 579 365 511 q 247 647 313 647 q 153 578 181 647 q 126 365 126 510 q 153 151 126 217 q 247 86 181 86 q 339 149 313 86 q 365 367 365 213 m 618 647 q 565 635 588 647 q 527 597 543 624 q 502 525 511 569 q 489 417 493 481 l 733 417 q 708 589 731 531 q 618 647 685 647 z "},"Ŕ":{"ha":833,"x_min":135,"x_max":801,"o":"m 750 686 q 733 589 750 632 q 684 513 715 546 q 611 458 653 481 q 521 422 569 435 l 801 0 l 644 0 l 389 406 l 267 406 l 267 0 l 135 0 l 135 957 l 386 957 q 658 889 567 957 q 750 686 750 821 m 610 686 q 558 815 610 776 q 399 854 507 854 l 267 854 l 267 507 l 400 507 q 555 548 500 507 q 610 686 610 589 m 258 1117 l 521 1268 l 586 1161 l 297 1049 l 258 1117 z "},"ŕ":{"ha":833,"x_min":128,"x_max":728,"o":"m 628 0 l 128 0 l 128 99 l 296 99 l 296 633 l 128 633 l 128 732 l 407 732 l 422 592 q 510 709 454 669 q 631 749 565 749 q 676 747 657 749 q 728 738 696 744 l 704 611 q 658 621 676 618 q 615 624 639 624 q 550 608 581 624 q 494 565 519 592 q 451 502 469 538 q 424 429 433 467 l 424 99 l 628 99 l 628 0 m 282 933 l 543 1099 l 608 992 l 324 864 l 282 933 z "},"Ŗ":{"ha":833,"x_min":135,"x_max":801,"o":"m 750 686 q 733 589 750 632 q 684 513 715 546 q 611 458 653 481 q 521 422 569 435 l 801 0 l 644 0 l 389 406 l 267 406 l 267 0 l 135 0 l 135 957 l 386 957 q 658 889 567 957 q 750 686 750 821 m 610 686 q 558 815 610 776 q 399 854 507 854 l 267 854 l 267 507 l 400 507 q 555 548 500 507 q 610 686 610 589 m 340 -175 q 364 -119 340 -142 q 421 -97 388 -97 q 477 -119 454 -97 q 500 -175 500 -142 q 476 -254 500 -207 l 407 -401 l 333 -401 l 374 -240 q 349 -211 358 -228 q 340 -175 340 -194 z "},"ŗ":{"ha":833,"x_min":128,"x_max":728,"o":"m 628 0 l 128 0 l 128 99 l 296 99 l 296 633 l 128 633 l 128 732 l 407 732 l 422 592 q 510 709 454 669 q 631 749 565 749 q 676 747 657 749 q 728 738 696 744 l 704 611 q 658 621 676 618 q 615 624 639 624 q 550 608 581 624 q 494 565 519 592 q 451 502 469 538 q 424 429 433 467 l 424 99 l 628 99 l 628 0 m 297 -175 q 320 -119 297 -142 q 376 -97 343 -97 q 433 -119 410 -97 q 456 -175 456 -142 q 450 -212 456 -194 q 433 -256 444 -231 l 364 -403 l 289 -403 l 329 -240 q 297 -175 297 -215 z "},"Ř":{"ha":833,"x_min":135,"x_max":801,"o":"m 750 686 q 733 589 750 632 q 684 513 715 546 q 611 458 653 481 q 521 422 569 435 l 801 0 l 644 0 l 389 406 l 267 406 l 267 0 l 135 0 l 135 957 l 386 957 q 658 889 567 957 q 750 686 750 821 m 610 686 q 558 815 610 776 q 399 854 507 854 l 267 854 l 267 507 l 400 507 q 555 548 500 507 q 610 686 610 589 m 403 1157 l 578 1271 l 632 1208 l 444 1054 l 360 1054 l 171 1208 l 226 1271 l 403 1157 z "},"ř":{"ha":833,"x_min":128,"x_max":728,"o":"m 628 0 l 128 0 l 128 99 l 296 99 l 296 633 l 128 633 l 128 732 l 407 732 l 422 592 q 510 709 454 669 q 631 749 565 749 q 676 747 657 749 q 728 738 696 744 l 704 611 q 658 621 676 618 q 615 624 639 624 q 550 608 581 624 q 494 565 519 592 q 451 502 469 538 q 424 429 433 467 l 424 99 l 628 99 l 628 0 m 417 974 l 590 1100 l 646 1039 l 458 871 l 374 871 l 185 1039 l 243 1100 l 417 974 z "},"Ś":{"ha":833,"x_min":56,"x_max":750,"o":"m 750 267 q 726 152 750 204 q 658 63 703 100 q 548 4 613 25 q 401 -17 483 -17 q 203 16 289 -17 q 56 107 117 49 l 132 192 q 246 118 182 144 q 397 92 310 92 q 478 102 439 92 q 547 134 517 113 q 594 188 576 156 q 613 263 613 219 q 603 322 613 296 q 570 368 593 347 q 507 407 547 389 q 407 444 467 425 q 282 491 338 465 q 188 550 226 517 q 128 626 149 583 q 108 724 108 668 q 132 825 108 779 q 197 904 156 871 q 297 956 239 938 q 424 974 354 974 q 599 944 524 974 q 733 863 675 915 l 658 779 q 549 844 607 824 q 429 865 490 865 q 356 857 390 865 q 297 832 322 849 q 258 790 272 815 q 243 729 243 764 q 254 676 243 699 q 292 633 265 653 q 361 594 318 613 q 469 557 404 576 q 578 517 526 539 q 667 463 629 496 q 728 383 706 431 q 750 267 750 335 m 268 1117 l 531 1268 l 596 1161 l 307 1049 l 268 1117 z "},"ś":{"ha":833,"x_min":85,"x_max":694,"o":"m 382 86 q 510 116 464 86 q 557 197 557 146 q 551 243 557 224 q 526 278 544 263 q 473 306 507 293 q 382 333 439 318 q 283 365 328 347 q 207 406 239 382 q 158 464 175 431 q 140 546 140 497 q 160 629 140 592 q 218 693 181 667 q 308 734 256 719 q 424 749 360 749 q 566 727 503 749 q 678 671 629 706 l 621 585 q 533 631 581 614 q 426 647 486 647 q 306 623 340 647 q 272 554 272 599 q 281 515 272 531 q 313 485 290 499 q 370 458 335 471 q 460 431 406 446 q 556 399 513 415 q 630 357 599 382 q 678 296 661 332 q 694 207 694 260 q 668 105 694 147 q 598 35 642 63 q 498 -4 554 8 q 382 -17 442 -17 q 207 13 281 -17 q 85 83 133 42 l 156 164 q 258 107 199 128 q 382 86 317 86 m 251 933 l 513 1099 l 578 992 l 293 864 l 251 933 z "},"Ŝ":{"ha":833,"x_min":56,"x_max":750,"o":"m 750 267 q 726 152 750 204 q 658 63 703 100 q 548 4 613 25 q 401 -17 483 -17 q 203 16 289 -17 q 56 107 117 49 l 132 192 q 246 118 182 144 q 397 92 310 92 q 478 102 439 92 q 547 134 517 113 q 594 188 576 156 q 613 263 613 219 q 603 322 613 296 q 570 368 593 347 q 507 407 547 389 q 407 444 467 425 q 282 491 338 465 q 188 550 226 517 q 128 626 149 583 q 108 724 108 668 q 132 825 108 779 q 197 904 156 871 q 297 956 239 938 q 424 974 354 974 q 599 944 524 974 q 733 863 675 915 l 658 779 q 549 844 607 824 q 429 865 490 865 q 356 857 390 865 q 297 832 322 849 q 258 790 272 815 q 243 729 243 764 q 254 676 243 699 q 292 633 265 653 q 361 594 318 613 q 469 557 404 576 q 578 517 526 539 q 667 463 629 496 q 728 383 706 431 q 750 267 750 335 m 257 1054 l 201 1117 l 390 1271 l 475 1271 l 663 1117 l 608 1054 l 432 1167 l 257 1054 z "},"ŝ":{"ha":833,"x_min":85,"x_max":694,"o":"m 382 86 q 510 116 464 86 q 557 197 557 146 q 551 243 557 224 q 526 278 544 263 q 473 306 507 293 q 382 333 439 318 q 283 365 328 347 q 207 406 239 382 q 158 464 175 431 q 140 546 140 497 q 160 629 140 592 q 218 693 181 667 q 308 734 256 719 q 424 749 360 749 q 566 727 503 749 q 678 671 629 706 l 621 585 q 533 631 581 614 q 426 647 486 647 q 306 623 340 647 q 272 554 272 599 q 281 515 272 531 q 313 485 290 499 q 370 458 335 471 q 460 431 406 446 q 556 399 513 415 q 630 357 599 382 q 678 296 661 332 q 694 207 694 260 q 668 105 694 147 q 598 35 642 63 q 498 -4 554 8 q 382 -17 442 -17 q 207 13 281 -17 q 85 83 133 42 l 156 164 q 258 107 199 128 q 382 86 317 86 m 246 871 l 188 932 l 376 1100 l 461 1100 l 649 932 l 593 871 l 419 997 l 246 871 z "},"Ş":{"ha":833,"x_min":56,"x_max":750,"o":"m 464 -196 q 432 -149 464 -160 q 343 -137 400 -137 l 353 -15 q 183 23 257 -8 q 56 107 108 54 l 132 192 q 246 118 182 144 q 397 92 310 92 q 478 102 439 92 q 547 134 517 113 q 594 188 576 156 q 613 263 613 219 q 603 322 613 296 q 570 368 593 347 q 507 407 547 389 q 407 444 467 425 q 282 491 338 465 q 188 550 226 517 q 128 626 149 583 q 108 724 108 668 q 132 825 108 779 q 197 904 156 871 q 297 956 239 938 q 424 974 354 974 q 599 944 524 974 q 733 863 675 915 l 658 779 q 549 844 607 824 q 429 865 490 865 q 356 857 390 865 q 297 832 322 849 q 258 790 272 815 q 243 729 243 764 q 254 676 243 699 q 292 633 265 653 q 361 594 318 613 q 469 557 404 576 q 578 517 526 539 q 667 463 629 496 q 728 383 706 431 q 750 267 750 335 q 669 72 750 147 q 440 -15 588 -4 l 440 -78 q 540 -119 510 -85 q 571 -196 571 -153 q 557 -256 571 -231 q 519 -299 543 -282 q 463 -326 494 -317 q 397 -335 432 -335 q 316 -325 354 -335 q 250 -300 278 -315 l 289 -229 q 333 -246 308 -240 q 381 -251 358 -251 q 441 -239 418 -251 q 464 -196 464 -226 z "},"ş":{"ha":833,"x_min":85,"x_max":694,"o":"m 461 -196 q 429 -149 461 -160 q 340 -137 397 -137 l 350 -15 q 194 17 260 -11 q 85 83 129 44 l 156 164 q 258 107 199 128 q 382 86 317 86 q 510 116 464 86 q 557 197 557 146 q 551 243 557 224 q 526 278 544 263 q 473 306 507 293 q 382 333 439 318 q 283 365 328 347 q 207 406 239 382 q 158 464 175 431 q 140 546 140 497 q 160 629 140 592 q 218 693 181 667 q 308 734 256 719 q 424 749 360 749 q 566 727 503 749 q 678 671 629 706 l 621 585 q 533 631 581 614 q 426 647 486 647 q 306 623 340 647 q 272 554 272 599 q 281 515 272 531 q 313 485 290 499 q 370 458 335 471 q 460 431 406 446 q 556 399 513 415 q 630 357 599 382 q 678 296 661 332 q 694 207 694 260 q 674 115 694 154 q 617 49 653 75 q 535 7 582 22 q 438 -14 489 -8 l 438 -78 q 538 -119 507 -85 q 568 -196 568 -153 q 554 -256 568 -231 q 516 -299 540 -282 q 460 -326 492 -317 q 394 -335 429 -335 q 313 -325 351 -335 q 247 -300 275 -315 l 286 -229 q 331 -246 306 -240 q 379 -251 356 -251 q 438 -239 415 -251 q 461 -196 461 -226 z "},"Š":{"ha":833,"x_min":56,"x_max":750,"o":"m 750 267 q 726 152 750 204 q 658 63 703 100 q 548 4 613 25 q 401 -17 483 -17 q 203 16 289 -17 q 56 107 117 49 l 132 192 q 246 118 182 144 q 397 92 310 92 q 478 102 439 92 q 547 134 517 113 q 594 188 576 156 q 613 263 613 219 q 603 322 613 296 q 570 368 593 347 q 507 407 547 389 q 407 444 467 425 q 282 491 338 465 q 188 550 226 517 q 128 626 149 583 q 108 724 108 668 q 132 825 108 779 q 197 904 156 871 q 297 956 239 938 q 424 974 354 974 q 599 944 524 974 q 733 863 675 915 l 658 779 q 549 844 607 824 q 429 865 490 865 q 356 857 390 865 q 297 832 322 849 q 258 790 272 815 q 243 729 243 764 q 254 676 243 699 q 292 633 265 653 q 361 594 318 613 q 469 557 404 576 q 578 517 526 539 q 667 463 629 496 q 728 383 706 431 q 750 267 750 335 m 433 1157 l 608 1271 l 663 1208 l 475 1054 l 390 1054 l 201 1208 l 257 1271 l 433 1157 z "},"š":{"ha":833,"x_min":85,"x_max":694,"o":"m 382 86 q 510 116 464 86 q 557 197 557 146 q 551 243 557 224 q 526 278 544 263 q 473 306 507 293 q 382 333 439 318 q 283 365 328 347 q 207 406 239 382 q 158 464 175 431 q 140 546 140 497 q 160 629 140 592 q 218 693 181 667 q 308 734 256 719 q 424 749 360 749 q 566 727 503 749 q 678 671 629 706 l 621 585 q 533 631 581 614 q 426 647 486 647 q 306 623 340 647 q 272 554 272 599 q 281 515 272 531 q 313 485 290 499 q 370 458 335 471 q 460 431 406 446 q 556 399 513 415 q 630 357 599 382 q 678 296 661 332 q 694 207 694 260 q 668 105 694 147 q 598 35 642 63 q 498 -4 554 8 q 382 -17 442 -17 q 207 13 281 -17 q 85 83 133 42 l 156 164 q 258 107 199 128 q 382 86 317 86 m 417 974 l 590 1100 l 646 1039 l 458 871 l 374 871 l 185 1039 l 243 1100 l 417 974 z "},"Ţ":{"ha":833,"x_min":53,"x_max":781,"o":"m 504 -196 q 472 -149 504 -160 q 383 -137 440 -137 l 393 0 l 349 0 l 349 846 l 53 846 l 53 957 l 781 957 l 767 846 l 481 846 l 481 -78 q 581 -119 550 -85 q 611 -196 611 -153 q 597 -256 611 -231 q 559 -299 583 -282 q 503 -326 535 -317 q 438 -335 472 -335 q 356 -325 394 -335 q 290 -300 318 -315 l 329 -229 q 374 -246 349 -240 q 421 -251 399 -251 q 481 -239 458 -251 q 504 -196 504 -226 z "},"ţ":{"ha":833,"x_min":121,"x_max":739,"o":"m 575 -196 q 543 -149 575 -160 q 454 -137 511 -137 l 464 -8 q 333 68 378 10 q 288 210 288 126 l 288 635 l 121 635 l 121 732 l 288 732 l 288 897 l 415 913 l 415 732 l 667 732 l 651 635 l 415 635 l 415 211 q 447 119 415 149 q 551 89 478 89 q 627 99 592 89 q 690 125 663 108 l 739 38 q 653 0 703 14 q 551 -17 603 -14 l 551 -78 q 651 -119 621 -85 q 682 -196 682 -153 q 668 -256 682 -231 q 630 -299 654 -282 q 574 -326 606 -317 q 508 -335 543 -335 q 427 -325 465 -335 q 361 -300 389 -315 l 400 -229 q 444 -246 419 -240 q 493 -251 469 -251 q 552 -239 529 -251 q 575 -196 575 -226 z "},"Ť":{"ha":833,"x_min":53,"x_max":781,"o":"m 481 846 l 481 0 l 349 0 l 349 846 l 53 846 l 53 957 l 781 957 l 767 846 l 481 846 m 413 1157 l 588 1271 l 642 1208 l 454 1054 l 369 1054 l 181 1208 l 236 1271 l 413 1157 z "},"ť":{"ha":833,"x_min":121,"x_max":739,"o":"m 739 38 q 646 -2 700 13 q 538 -17 592 -17 q 351 47 415 -17 q 288 210 288 110 l 288 635 l 121 635 l 121 732 l 288 732 l 288 897 l 415 913 l 415 732 l 667 732 l 651 635 l 415 635 l 415 211 q 447 119 415 149 q 551 89 478 89 q 627 99 592 89 q 690 125 663 108 l 739 38 m 524 1060 q 547 1114 524 1092 q 604 1136 571 1136 q 660 1114 638 1136 q 683 1060 683 1092 q 678 1022 683 1040 q 660 979 672 1004 l 590 832 l 517 832 l 556 994 q 524 1060 524 1019 z "},"Ŧ":{"ha":833,"x_min":53,"x_max":781,"o":"m 481 846 l 481 601 l 661 601 l 661 504 l 481 504 l 481 0 l 349 0 l 349 504 l 169 504 l 169 601 l 349 601 l 349 846 l 53 846 l 53 957 l 781 957 l 767 846 l 481 846 z "},"ŧ":{"ha":833,"x_min":121,"x_max":739,"o":"m 739 38 q 646 -2 700 13 q 538 -17 592 -17 q 351 47 415 -17 q 288 210 288 110 l 288 396 l 136 396 l 136 490 l 288 490 l 288 635 l 121 635 l 121 732 l 288 732 l 288 897 l 415 913 l 415 732 l 667 732 l 651 635 l 415 635 l 415 490 l 653 490 l 653 396 l 415 396 l 415 211 q 447 119 415 149 q 551 89 478 89 q 627 99 592 89 q 690 125 663 108 l 739 38 z "},"Ũ":{"ha":833,"x_min":96,"x_max":738,"o":"m 738 311 q 715 178 738 238 q 651 74 693 118 q 550 7 610 31 q 415 -17 490 -17 q 281 7 340 -17 q 180 74 221 31 q 117 178 139 118 q 96 311 96 238 l 96 957 l 228 957 l 228 317 q 276 149 228 204 q 415 94 324 94 q 604 317 604 94 l 604 957 l 738 957 l 738 311 m 489 1074 q 437 1084 458 1074 q 399 1107 415 1094 q 367 1130 382 1119 q 336 1140 353 1140 q 297 1124 313 1140 q 265 1079 282 1108 l 186 1114 q 244 1200 207 1163 q 343 1238 282 1238 q 396 1227 374 1238 q 435 1204 418 1217 l 465 1181 q 496 1171 479 1171 q 535 1186 519 1171 q 567 1231 550 1201 l 646 1196 q 586 1110 624 1147 q 489 1074 549 1074 z "},"ũ":{"ha":833,"x_min":135,"x_max":699,"o":"m 263 732 l 263 215 q 291 114 263 144 q 381 83 319 83 q 490 117 439 83 q 571 196 542 150 l 571 732 l 699 732 l 699 0 l 589 0 l 579 97 q 474 13 536 42 q 346 -17 411 -17 q 187 40 239 -17 q 135 200 135 97 l 135 732 l 263 732 m 490 903 q 438 913 460 903 q 400 936 417 924 q 369 959 383 949 q 338 969 354 969 q 299 953 314 969 q 267 908 283 938 l 188 944 q 247 1030 208 993 q 344 1067 285 1067 q 397 1056 375 1067 q 436 1033 419 1046 l 467 1010 q 497 1000 481 1000 q 536 1016 521 1000 q 568 1061 551 1032 l 647 1026 q 588 940 626 978 q 490 903 550 903 z "},"Ū":{"ha":833,"x_min":96,"x_max":738,"o":"m 738 311 q 715 178 738 238 q 651 74 693 118 q 550 7 610 31 q 415 -17 490 -17 q 281 7 340 -17 q 180 74 221 31 q 117 178 139 118 q 96 311 96 238 l 96 957 l 228 957 l 228 317 q 276 149 228 204 q 415 94 324 94 q 604 317 604 94 l 604 957 l 738 957 l 738 311 m 606 1106 l 226 1106 l 226 1203 l 606 1203 l 606 1106 z "},"ū":{"ha":833,"x_min":135,"x_max":699,"o":"m 263 732 l 263 215 q 291 114 263 144 q 381 83 319 83 q 490 117 439 83 q 571 196 542 150 l 571 732 l 699 732 l 699 0 l 589 0 l 579 97 q 474 13 536 42 q 346 -17 411 -17 q 187 40 239 -17 q 135 200 135 97 l 135 732 l 263 732 m 606 936 l 226 936 l 226 1032 l 606 1032 l 606 936 z "},"Ŭ":{"ha":833,"x_min":96,"x_max":738,"o":"m 738 311 q 715 178 738 238 q 651 74 693 118 q 550 7 610 31 q 415 -17 490 -17 q 281 7 340 -17 q 180 74 221 31 q 117 178 139 118 q 96 311 96 238 l 96 957 l 228 957 l 228 317 q 276 149 228 204 q 415 94 324 94 q 604 317 604 94 l 604 957 l 738 957 l 738 311 m 415 1056 q 329 1072 367 1056 q 266 1115 292 1089 q 226 1174 240 1142 q 207 1238 211 1206 l 292 1256 q 415 1153 319 1153 q 542 1256 514 1153 l 626 1238 q 607 1174 622 1206 q 566 1115 592 1142 q 503 1072 540 1089 q 415 1056 465 1056 z "},"ŭ":{"ha":833,"x_min":135,"x_max":699,"o":"m 263 732 l 263 215 q 291 114 263 144 q 381 83 319 83 q 490 117 439 83 q 571 196 542 150 l 571 732 l 699 732 l 699 0 l 589 0 l 579 97 q 474 13 536 42 q 346 -17 411 -17 q 187 40 239 -17 q 135 200 135 97 l 135 732 l 263 732 m 415 872 q 330 890 367 872 q 267 936 293 908 q 226 999 240 964 q 207 1067 211 1033 l 292 1085 q 337 1000 307 1032 q 415 968 367 968 q 497 1000 465 968 q 543 1085 528 1032 l 628 1067 q 608 999 624 1033 q 567 936 593 964 q 502 890 540 908 q 415 872 464 872 z "},"Ů":{"ha":833,"x_min":96,"x_max":738,"o":"m 738 311 q 715 178 738 238 q 651 74 693 118 q 550 7 610 31 q 415 -17 490 -17 q 281 7 340 -17 q 180 74 221 31 q 117 178 139 118 q 96 311 96 238 l 96 957 l 228 957 l 228 317 q 276 149 228 204 q 415 94 324 94 q 604 317 604 94 l 604 957 l 738 957 l 738 311 m 342 1174 q 362 1116 342 1138 q 417 1094 382 1094 q 470 1116 450 1094 q 490 1174 490 1138 q 470 1231 490 1210 q 417 1251 450 1251 q 362 1231 382 1251 q 342 1174 342 1210 m 575 1174 q 531 1069 575 1111 q 417 1026 488 1026 q 302 1069 346 1026 q 258 1174 258 1111 q 302 1277 258 1235 q 417 1319 346 1319 q 531 1277 488 1319 q 575 1174 575 1235 z "},"ů":{"ha":833,"x_min":135,"x_max":699,"o":"m 263 732 l 263 215 q 291 114 263 144 q 381 83 319 83 q 490 117 439 83 q 571 196 542 150 l 571 732 l 699 732 l 699 0 l 589 0 l 579 97 q 474 13 536 42 q 346 -17 411 -17 q 187 40 239 -17 q 135 200 135 97 l 135 732 l 263 732 m 343 1003 q 363 946 343 967 q 417 925 383 925 q 471 946 451 925 q 490 1003 490 967 q 471 1060 490 1039 q 417 1081 451 1081 q 363 1060 383 1081 q 343 1003 343 1039 m 575 1003 q 531 899 575 942 q 417 857 488 857 q 302 899 346 857 q 258 1003 258 942 q 302 1108 258 1065 q 417 1150 346 1150 q 531 1108 488 1150 q 575 1003 575 1065 z "},"Ű":{"ha":833,"x_min":96,"x_max":738,"o":"m 738 311 q 715 178 738 238 q 651 74 693 118 q 550 7 610 31 q 415 -17 490 -17 q 281 7 340 -17 q 180 74 221 31 q 117 178 139 118 q 96 311 96 238 l 96 957 l 228 957 l 228 317 q 276 149 228 204 q 415 94 324 94 q 604 317 604 94 l 604 957 l 738 957 l 738 311 m 246 1100 l 357 1344 l 465 1293 l 326 1063 l 246 1100 m 474 1100 l 597 1344 l 704 1289 l 551 1060 l 474 1100 z "},"ű":{"ha":833,"x_min":135,"x_max":699,"o":"m 263 732 l 263 215 q 291 114 263 144 q 381 83 319 83 q 490 117 439 83 q 571 196 542 150 l 571 732 l 699 732 l 699 0 l 589 0 l 579 97 q 474 13 536 42 q 346 -17 411 -17 q 187 40 239 -17 q 135 200 135 97 l 135 732 l 263 732 m 240 919 l 351 1164 l 460 1113 l 321 882 l 240 919 m 468 919 l 592 1164 l 699 1108 l 546 879 l 468 919 z "},"Ų":{"ha":833,"x_min":96,"x_max":738,"o":"m 738 311 q 699 138 738 213 q 585 24 660 64 q 460 -78 494 -26 q 425 -176 425 -131 q 445 -229 425 -208 q 514 -250 465 -250 q 565 -243 542 -250 q 599 -229 588 -236 l 633 -304 q 567 -328 600 -321 q 500 -335 535 -335 q 365 -293 413 -335 q 318 -181 318 -251 q 346 -93 318 -136 q 422 -17 374 -50 q 282 8 343 -17 q 179 75 221 32 q 117 178 138 118 q 96 311 96 239 l 96 957 l 228 957 l 228 317 q 276 149 228 204 q 415 94 324 94 q 604 317 604 94 l 604 957 l 738 957 l 738 311 z "},"ų":{"ha":833,"x_min":135,"x_max":785,"o":"m 263 732 l 263 215 q 291 114 263 144 q 381 83 319 83 q 490 117 439 83 q 571 196 542 150 l 571 732 l 699 732 l 699 0 q 635 -46 660 -22 q 598 -92 611 -69 q 580 -137 585 -115 q 575 -176 575 -158 q 596 -229 575 -208 q 664 -250 617 -250 q 715 -243 692 -250 q 750 -229 738 -236 l 785 -304 q 719 -328 751 -321 q 650 -335 686 -335 q 515 -293 563 -335 q 468 -181 468 -251 q 506 -82 468 -131 q 608 0 543 -33 l 589 0 l 579 97 q 474 13 536 42 q 346 -17 411 -17 q 187 40 239 -17 q 135 200 135 97 l 135 732 l 263 732 z "},"Ŵ":{"ha":833,"x_min":6,"x_max":828,"o":"m 686 0 l 519 0 l 417 699 l 411 699 l 293 0 l 119 0 l 6 957 l 138 957 l 210 151 l 215 151 l 342 846 l 494 846 l 597 156 l 603 156 l 707 957 l 828 957 l 686 0 m 242 1054 l 186 1117 l 375 1271 l 460 1271 l 647 1117 l 593 1054 l 417 1167 l 242 1054 z "},"ŵ":{"ha":833,"x_min":22,"x_max":811,"o":"m 686 0 l 513 0 l 422 518 l 417 518 l 322 0 l 153 0 l 22 732 l 150 732 l 239 97 l 244 97 l 351 639 l 494 639 l 594 100 l 600 100 l 689 732 l 811 732 l 686 0 m 244 871 l 186 932 l 375 1100 l 460 1100 l 647 932 l 592 871 l 418 997 l 244 871 z "},"Ŷ":{"ha":833,"x_min":28,"x_max":806,"o":"m 483 368 l 483 0 l 350 0 l 350 367 l 28 957 l 174 957 l 418 489 l 422 489 l 668 957 l 806 957 l 483 368 m 242 1054 l 186 1117 l 375 1271 l 460 1271 l 647 1117 l 593 1054 l 417 1167 l 242 1054 z "},"ŷ":{"ha":833,"x_min":81,"x_max":753,"o":"m 497 -4 q 450 -112 478 -62 q 383 -201 422 -162 q 289 -264 343 -239 q 161 -296 235 -289 l 143 -196 q 237 -170 199 -186 q 301 -131 275 -154 q 344 -74 328 -107 q 376 0 361 -42 l 333 0 l 81 732 l 217 732 l 417 103 l 422 103 l 621 732 l 753 732 l 497 -4 m 246 871 l 188 932 l 376 1100 l 461 1100 l 649 932 l 593 871 l 419 997 l 246 871 z "},"Ÿ":{"ha":833,"x_min":28,"x_max":806,"o":"m 483 368 l 483 0 l 350 0 l 350 367 l 28 957 l 174 957 l 418 489 l 422 489 l 668 957 l 806 957 l 483 368 m 271 1068 q 215 1090 238 1068 q 192 1147 192 1113 q 215 1203 192 1181 q 271 1225 238 1225 q 328 1203 306 1225 q 351 1147 351 1181 q 328 1090 351 1113 q 271 1068 306 1068 m 563 1068 q 505 1090 528 1068 q 482 1147 482 1113 q 505 1203 482 1181 q 563 1225 528 1225 q 619 1203 596 1225 q 643 1147 643 1181 q 619 1090 643 1113 q 563 1068 596 1068 z "},"Ź":{"ha":833,"x_min":94,"x_max":738,"o":"m 242 113 l 738 113 l 722 0 l 94 0 l 94 106 l 594 846 l 144 846 l 144 957 l 738 957 l 738 850 l 242 113 m 285 1117 l 547 1268 l 613 1161 l 324 1049 l 285 1117 z "},"ź":{"ha":833,"x_min":138,"x_max":696,"o":"m 293 107 l 696 107 l 681 0 l 138 0 l 138 96 l 539 624 l 169 624 l 169 732 l 692 732 l 692 635 l 293 107 m 260 933 l 521 1099 l 586 992 l 301 864 l 260 933 z "},"Ż":{"ha":833,"x_min":94,"x_max":738,"o":"m 242 113 l 738 113 l 722 0 l 94 0 l 94 106 l 594 846 l 144 846 l 144 957 l 738 957 l 738 850 l 242 113 m 525 1163 q 501 1100 525 1125 q 436 1075 476 1075 q 372 1100 396 1075 q 347 1163 347 1125 q 372 1224 347 1199 q 436 1249 396 1249 q 501 1224 476 1249 q 525 1163 525 1199 z "},"ż":{"ha":833,"x_min":138,"x_max":696,"o":"m 293 107 l 696 107 l 681 0 l 138 0 l 138 96 l 539 624 l 169 624 l 169 732 l 692 732 l 692 635 l 293 107 m 514 993 q 489 931 514 956 q 424 906 464 906 q 359 931 383 906 q 335 993 335 956 q 359 1054 335 1029 q 424 1079 383 1079 q 489 1054 464 1079 q 514 993 514 1029 z "},"Ž":{"ha":833,"x_min":94,"x_max":738,"o":"m 242 113 l 738 113 l 722 0 l 94 0 l 94 106 l 594 846 l 144 846 l 144 957 l 738 957 l 738 850 l 242 113 m 439 1157 l 614 1271 l 668 1208 l 481 1054 l 396 1054 l 207 1208 l 263 1271 l 439 1157 z "},"ž":{"ha":833,"x_min":138,"x_max":696,"o":"m 293 107 l 696 107 l 681 0 l 138 0 l 138 96 l 539 624 l 169 624 l 169 732 l 692 732 l 692 635 l 293 107 m 425 974 l 599 1100 l 654 1039 l 467 871 l 382 871 l 193 1039 l 251 1100 l 425 974 z "},"ƒ":{"ha":833,"x_min":143,"x_max":689,"o":"m 143 -203 q 206 -169 179 -186 q 250 -125 232 -151 q 276 -60 268 -99 q 285 36 285 -22 l 285 633 l 168 633 l 168 732 l 285 732 l 285 831 q 343 982 285 922 q 514 1042 401 1042 q 606 1032 567 1042 q 689 1003 644 1022 l 647 911 q 581 933 613 926 q 521 939 549 939 q 435 913 460 939 q 411 832 411 886 l 411 732 l 590 732 l 575 633 l 411 633 l 411 58 q 398 -81 411 -25 q 358 -176 385 -136 q 288 -242 331 -215 q 189 -294 246 -269 l 143 -203 z "},"Ǽ":{"ha":833,"x_min":-17,"x_max":843,"o":"m 456 240 l 182 240 l 117 0 l -17 0 l 260 957 l 786 957 l 771 853 l 451 853 l 519 538 l 774 538 l 774 433 l 539 433 l 608 104 l 843 104 l 843 0 l 504 0 l 456 240 m 213 347 l 433 347 l 338 840 l 331 840 l 213 347 m 328 1117 l 590 1268 l 656 1161 l 367 1049 l 328 1117 z "},"ǽ":{"ha":833,"x_min":-8,"x_max":842,"o":"m 469 322 q 515 143 479 200 q 624 86 551 86 q 694 100 664 86 q 760 140 725 114 l 817 57 q 728 3 775 24 q 621 -17 682 -17 q 497 15 546 -17 q 413 107 447 47 q 367 51 389 75 q 319 13 344 28 q 266 -10 294 -3 q 203 -17 238 -17 q 49 45 106 -17 q -8 210 -8 107 q 66 385 -8 325 q 288 446 140 446 l 350 446 l 350 503 q 317 613 350 579 q 224 647 285 647 q 156 638 188 647 q 81 610 125 629 l 47 701 q 142 736 94 724 q 236 749 190 749 q 363 716 319 749 q 428 629 406 683 q 492 717 447 685 q 603 749 536 749 q 710 724 665 749 q 785 652 756 699 q 828 539 814 606 q 842 388 842 472 q 841 352 842 368 q 839 322 840 336 l 469 322 m 222 79 q 299 112 267 79 q 368 208 332 144 q 354 281 358 242 q 350 361 350 319 l 294 361 q 160 322 197 361 q 124 217 124 282 q 151 114 124 149 q 222 79 178 79 m 599 647 q 546 635 568 647 q 508 597 524 624 q 483 525 492 569 q 469 417 474 481 l 722 417 q 694 589 719 531 q 599 647 668 647 m 275 933 l 536 1099 l 601 992 l 317 864 l 275 933 z "},"Ǿ":{"ha":833,"x_min":61,"x_max":772,"o":"m 228 39 q 103 210 144 97 q 61 476 61 322 q 83 677 61 586 q 151 834 106 768 q 263 937 196 900 q 417 974 329 974 q 504 963 460 974 l 556 1138 l 665 1108 l 606 917 q 731 744 689 857 q 772 478 772 631 q 750 277 772 368 q 683 121 728 186 q 571 19 638 56 q 417 -17 504 -17 q 372 -14 393 -17 q 331 -7 350 -11 l 278 -182 l 168 -153 l 228 39 m 635 478 q 618 687 635 604 q 558 814 601 769 l 351 99 q 382 94 367 96 q 417 92 397 92 q 584 190 533 92 q 635 478 635 288 m 199 476 q 216 269 199 350 q 275 143 233 188 l 482 857 q 417 865 453 865 q 249 765 300 865 q 199 476 199 665 m 215 1156 l 478 1307 l 543 1200 l 254 1088 l 215 1156 z "},"ǿ":{"ha":833,"x_min":97,"x_max":736,"o":"m 97 365 q 118 521 97 450 q 179 642 139 592 q 280 721 219 693 q 418 749 340 749 q 451 747 435 749 q 483 743 468 746 l 536 910 l 640 879 l 583 707 q 697 575 658 663 q 736 367 736 488 q 715 211 736 282 q 654 90 694 140 q 554 11 614 39 q 417 -17 494 -17 q 382 -15 399 -17 q 350 -11 365 -14 l 299 -182 l 194 -151 l 251 24 q 136 156 175 68 q 97 365 97 243 m 233 365 q 301 126 233 190 l 461 640 q 418 644 440 644 q 280 577 326 644 q 233 365 233 510 m 600 367 q 533 601 600 536 l 374 90 q 417 86 392 86 q 554 154 508 86 q 600 367 600 222 m 242 935 l 503 1100 l 568 993 l 283 865 l 242 935 z "},"Ș":{"ha":833,"x_min":56,"x_max":750,"o":"m 750 267 q 726 152 750 204 q 658 63 703 100 q 548 4 613 25 q 401 -17 483 -17 q 203 16 289 -17 q 56 107 117 49 l 132 192 q 246 118 182 144 q 397 92 310 92 q 478 102 439 92 q 547 134 517 113 q 594 188 576 156 q 613 263 613 219 q 603 322 613 296 q 570 368 593 347 q 507 407 547 389 q 407 444 467 425 q 282 491 338 465 q 188 550 226 517 q 128 626 149 583 q 108 724 108 668 q 132 825 108 779 q 197 904 156 871 q 297 956 239 938 q 424 974 354 974 q 599 944 524 974 q 733 863 675 915 l 658 779 q 549 844 607 824 q 429 865 490 865 q 356 857 390 865 q 297 832 322 849 q 258 790 272 815 q 243 729 243 764 q 254 676 243 699 q 292 633 265 653 q 361 594 318 613 q 469 557 404 576 q 578 517 526 539 q 667 463 629 496 q 728 383 706 431 q 750 267 750 335 m 336 -175 q 359 -119 336 -142 q 415 -97 382 -97 q 472 -119 449 -97 q 494 -175 494 -142 q 489 -212 494 -194 q 472 -256 483 -231 l 403 -403 l 328 -403 l 368 -240 q 336 -175 336 -215 z "},"ș":{"ha":833,"x_min":85,"x_max":694,"o":"m 382 86 q 510 116 464 86 q 557 197 557 146 q 551 243 557 224 q 526 278 544 263 q 473 306 507 293 q 382 333 439 318 q 283 365 328 347 q 207 406 239 382 q 158 464 175 431 q 140 546 140 497 q 160 629 140 592 q 218 693 181 667 q 308 734 256 719 q 424 749 360 749 q 566 727 503 749 q 678 671 629 706 l 621 585 q 533 631 581 614 q 426 647 486 647 q 306 623 340 647 q 272 554 272 599 q 281 515 272 531 q 313 485 290 499 q 370 458 335 471 q 460 431 406 446 q 556 399 513 415 q 630 357 599 382 q 678 296 661 332 q 694 207 694 260 q 668 105 694 147 q 598 35 642 63 q 498 -4 554 8 q 382 -17 442 -17 q 207 13 281 -17 q 85 83 133 42 l 156 164 q 258 107 199 128 q 382 86 317 86 m 332 -175 q 355 -119 332 -142 q 411 -97 378 -97 q 467 -119 444 -97 q 490 -175 490 -142 q 485 -212 490 -194 q 468 -256 479 -231 l 399 -403 l 324 -403 l 364 -240 q 332 -175 332 -215 z "},"Ț":{"ha":833,"x_min":53,"x_max":781,"o":"m 481 846 l 481 0 l 349 0 l 349 846 l 53 846 l 53 957 l 781 957 l 767 846 l 481 846 m 339 -175 q 363 -119 339 -142 q 419 -97 386 -97 q 476 -119 453 -97 q 499 -175 499 -142 q 475 -254 499 -207 l 406 -401 l 332 -401 l 372 -240 q 348 -211 357 -228 q 339 -175 339 -194 z "},"ț":{"ha":833,"x_min":121,"x_max":739,"o":"m 739 38 q 646 -2 700 13 q 538 -17 592 -17 q 351 47 415 -17 q 288 210 288 110 l 288 635 l 121 635 l 121 732 l 288 732 l 288 897 l 415 913 l 415 732 l 667 732 l 651 635 l 415 635 l 415 211 q 447 119 415 149 q 551 89 478 89 q 627 99 592 89 q 690 125 663 108 l 739 38 m 426 -175 q 449 -119 426 -142 q 506 -97 472 -97 q 562 -119 539 -97 q 585 -175 585 -142 q 579 -212 585 -194 q 563 -256 574 -231 l 493 -403 l 418 -403 l 458 -240 q 426 -175 426 -215 z "},"ȷ":{"ha":833,"x_min":125,"x_max":525,"o":"m 125 -197 q 226 -155 176 -178 q 313 -99 275 -132 q 374 -24 351 -67 q 397 78 397 19 l 397 633 l 160 633 l 160 732 l 525 732 l 525 86 q 497 -53 525 7 q 421 -160 469 -114 q 306 -238 372 -206 q 164 -296 240 -271 l 125 -197 z "},"ˆ":{"ha":833,"x_min":186,"x_max":647,"o":"m 242 892 l 186 954 l 375 1111 l 460 1111 l 647 954 l 593 892 l 418 1008 l 242 892 z "},"ˇ":{"ha":833,"x_min":186,"x_max":647,"o":"m 417 994 l 593 1111 l 647 1049 l 460 892 l 375 892 l 186 1049 l 242 1111 l 417 994 z "},"ˉ":{"ha":833,"x_min":226,"x_max":606,"o":"m 606 947 l 226 947 l 226 1043 l 606 1043 l 606 947 z "},"˘":{"ha":833,"x_min":206,"x_max":626,"o":"m 414 893 q 328 910 365 893 q 265 953 292 926 q 224 1013 239 979 q 206 1078 210 1046 l 290 1096 q 414 990 319 990 q 542 1096 513 990 l 626 1078 q 607 1013 622 1046 q 565 953 592 979 q 501 910 539 926 q 414 893 463 893 z "},"˙":{"ha":833,"x_min":326,"x_max":506,"o":"m 506 1003 q 481 942 506 967 q 415 917 456 917 q 351 942 375 917 q 326 1003 326 967 q 351 1065 326 1040 q 415 1090 375 1090 q 481 1065 456 1090 q 506 1003 506 1040 z "},"˚":{"ha":833,"x_min":258,"x_max":575,"o":"m 343 1014 q 363 957 343 978 q 417 936 382 936 q 470 957 450 936 q 490 1014 490 978 q 471 1071 490 1050 q 417 1092 451 1092 q 363 1071 382 1092 q 343 1014 343 1050 m 575 1014 q 531 909 575 951 q 417 867 488 867 q 302 909 346 867 q 258 1014 258 951 q 302 1119 258 1076 q 417 1161 346 1161 q 531 1119 488 1161 q 575 1014 575 1076 z "},"˛":{"ha":833,"x_min":258,"x_max":574,"o":"m 365 -176 q 385 -229 365 -208 q 454 -250 406 -250 q 505 -243 482 -250 q 540 -229 528 -236 l 574 -304 q 508 -328 542 -321 q 440 -335 475 -335 q 306 -293 353 -335 q 258 -181 258 -251 q 316 -54 258 -114 q 468 36 374 6 l 564 36 q 463 -17 501 11 q 402 -74 424 -46 q 373 -128 381 -101 q 365 -176 365 -154 z "},"˜":{"ha":833,"x_min":188,"x_max":646,"o":"m 489 914 q 437 924 458 914 q 399 947 415 935 l 368 969 q 338 981 354 981 q 299 965 314 981 q 267 919 283 949 l 188 956 q 246 1041 208 1004 q 344 1078 283 1078 q 397 1067 375 1078 q 435 1044 418 1057 q 466 1022 451 1032 q 497 1011 481 1011 q 536 1027 521 1011 q 568 1072 551 1043 l 646 1036 q 588 951 625 988 q 489 914 550 914 z "},"˝":{"ha":833,"x_min":189,"x_max":644,"o":"m 189 938 l 296 1175 l 407 1122 l 272 903 l 189 938 m 417 938 l 536 1175 l 644 1118 l 497 900 l 417 938 z "},"̀":{"ha":833,"x_min":253,"x_max":579,"o":"m 539 864 l 253 993 l 318 1100 l 579 933 l 539 864 z "},"́":{"ha":833,"x_min":253,"x_max":579,"o":"m 253 933 l 514 1099 l 579 992 l 294 864 l 253 933 z "},"̂":{"ha":833,"x_min":186,"x_max":647,"o":"m 244 871 l 186 932 l 375 1100 l 460 1100 l 647 932 l 592 871 l 418 997 l 244 871 z "},"̃":{"ha":833,"x_min":186,"x_max":646,"o":"m 489 903 q 437 913 458 903 q 399 936 415 924 q 367 959 382 949 q 336 969 353 969 q 297 953 313 969 q 265 908 282 938 l 186 944 q 245 1030 207 993 q 343 1067 283 1067 q 396 1056 374 1067 q 435 1033 418 1046 l 465 1010 q 496 1000 479 1000 q 535 1016 519 1000 q 567 1061 550 1032 l 646 1026 q 587 940 625 978 q 489 903 549 903 z "},"̄":{"ha":833,"x_min":226,"x_max":606,"o":"m 606 936 l 226 936 l 226 1032 l 606 1032 l 606 936 z "},"̆":{"ha":833,"x_min":206,"x_max":626,"o":"m 414 872 q 328 890 365 872 q 265 936 292 908 q 224 999 239 964 q 206 1067 210 1033 l 290 1085 q 335 1000 306 1032 q 414 968 365 968 q 495 1000 464 968 q 542 1085 526 1032 l 626 1067 q 607 999 622 1033 q 565 936 592 964 q 501 890 539 908 q 414 872 463 872 z "},"̇":{"ha":833,"x_min":326,"x_max":506,"o":"m 506 993 q 481 931 506 956 q 415 906 456 906 q 351 931 375 906 q 326 993 326 956 q 351 1054 326 1029 q 415 1079 375 1079 q 481 1054 456 1079 q 506 993 506 1029 z "},"̈":{"ha":833,"x_min":190,"x_max":642,"o":"m 271 899 q 213 921 236 899 q 190 976 190 943 q 213 1033 190 1011 q 271 1056 236 1056 q 327 1033 304 1056 q 350 976 350 1011 q 327 921 350 943 q 271 899 304 899 m 561 899 q 505 921 528 899 q 482 976 482 943 q 505 1033 482 1011 q 561 1056 528 1056 q 619 1033 596 1056 q 642 976 642 1011 q 619 921 642 943 q 561 899 596 899 z "},"̊":{"ha":833,"x_min":258,"x_max":575,"o":"m 343 1003 q 363 946 343 967 q 417 925 383 925 q 471 946 451 925 q 490 1003 490 967 q 471 1060 490 1039 q 417 1081 451 1081 q 363 1060 383 1081 q 343 1003 343 1039 m 575 1003 q 531 899 575 942 q 417 857 488 857 q 302 899 346 857 q 258 1003 258 942 q 302 1108 258 1065 q 417 1150 346 1150 q 531 1108 488 1150 q 575 1003 575 1065 z "},"̋":{"ha":833,"x_min":188,"x_max":646,"o":"m 188 919 l 299 1164 l 407 1113 l 268 882 l 188 919 m 415 919 l 539 1164 l 646 1108 l 493 879 l 415 919 z "},"̌":{"ha":833,"x_min":186,"x_max":647,"o":"m 418 974 l 592 1100 l 647 1039 l 460 871 l 375 871 l 186 1039 l 244 1100 l 418 974 z "},"̒":{"ha":833,"x_min":333,"x_max":500,"o":"m 493 969 q 469 915 493 938 q 413 892 446 892 q 356 915 379 892 q 333 969 333 938 q 339 1007 333 989 q 357 1050 344 1025 l 426 1197 l 500 1197 l 461 1035 q 493 969 493 1010 z "},"̓":{"ha":833,"x_min":333,"x_max":500,"o":"m 340 1121 q 364 1175 340 1153 q 421 1197 388 1197 q 477 1175 454 1197 q 500 1121 500 1153 q 494 1083 500 1101 q 476 1040 489 1065 l 407 893 l 333 893 l 372 1056 q 340 1121 340 1081 z "},"̦":{"ha":833,"x_min":333,"x_max":500,"o":"m 342 -175 q 365 -119 342 -142 q 421 -97 388 -97 q 477 -119 454 -97 q 500 -175 500 -142 q 494 -212 500 -194 q 478 -256 489 -231 l 408 -403 l 333 -403 l 374 -240 q 342 -175 342 -215 z "},"̧":{"ha":833,"x_min":256,"x_max":576,"o":"m 469 -196 q 438 -149 469 -160 q 349 -137 406 -137 l 361 22 l 446 22 l 446 -78 q 546 -119 515 -85 q 576 -196 576 -153 q 563 -256 576 -231 q 524 -299 549 -282 q 469 -326 500 -317 q 403 -335 438 -335 q 322 -325 360 -335 q 256 -300 283 -315 l 294 -229 q 339 -246 314 -240 q 388 -251 364 -251 q 447 -239 424 -251 q 469 -196 469 -226 z "},"̨":{"ha":833,"x_min":258,"x_max":575,"o":"m 489 0 q 426 -46 450 -22 q 388 -92 401 -69 q 370 -137 375 -115 q 365 -176 365 -158 q 386 -229 365 -208 q 454 -250 407 -250 q 505 -243 482 -250 q 540 -229 528 -236 l 575 -304 q 509 -328 542 -321 q 440 -335 476 -335 q 306 -293 353 -335 q 258 -181 258 -251 q 316 -54 258 -114 q 469 36 374 6 l 489 0 z "},"̵":{"ha":833,"x_min":174,"x_max":658,"o":"m 658 386 l 174 386 l 174 483 l 658 483 l 658 386 z "},"̶":{"ha":833,"x_min":-36,"x_max":871,"o":"m 871 386 l -36 386 l -36 483 l 871 483 l 871 386 z "},"΄":{"ha":833,"x_min":321,"x_max":513,"o":"m 321 835 l 374 1128 l 513 1103 l 417 818 l 321 835 z "},"΅":{"ha":833,"x_min":176,"x_max":656,"o":"m 257 850 q 199 872 222 850 q 176 928 176 894 q 199 985 176 963 q 257 1007 222 1007 q 313 985 290 1007 q 336 928 336 963 q 313 872 336 894 q 257 850 290 850 m 575 850 q 519 872 542 850 q 496 928 496 894 q 519 985 496 963 q 575 1007 542 1007 q 633 985 610 1007 q 656 928 656 963 q 633 872 656 894 q 575 850 610 850 m 368 1010 l 408 1258 l 549 1233 l 463 996 l 368 1010 z "},"Ά":{"ha":833,"x_min":24,"x_max":810,"o":"m 597 240 l 229 240 l 156 0 l 24 0 l 333 957 l 500 957 l 810 0 l 671 0 l 597 240 m 261 347 l 565 347 l 417 838 l 411 838 l 261 347 m 65 711 l 132 974 l 271 951 l 163 694 l 65 711 z "},"Έ":{"ha":833,"x_min":-90,"x_max":719,"o":"m 288 851 l 288 539 l 640 539 l 640 433 l 288 433 l 288 104 l 719 104 l 719 0 l 156 0 l 156 957 l 708 957 l 693 851 l 288 851 m -90 711 l -24 974 l 115 951 l 7 694 l -90 711 z "},"Ή":{"ha":833,"x_min":-135,"x_max":722,"o":"m 590 0 l 590 449 l 243 449 l 243 0 l 111 0 l 111 957 l 243 957 l 243 557 l 590 557 l 590 957 l 722 957 l 722 0 l 590 0 m -135 711 l -68 974 l 71 951 l -37 694 l -135 711 z "},"Ί":{"ha":833,"x_min":-96,"x_max":694,"o":"m 694 853 l 483 853 l 483 104 l 694 104 l 694 0 l 139 0 l 139 104 l 350 104 l 350 853 l 139 853 l 139 957 l 694 957 l 694 853 m -96 711 l -29 974 l 110 951 l 1 694 l -96 711 z "},"Ό":{"ha":833,"x_min":-87,"x_max":772,"o":"m 772 478 q 750 277 772 368 q 683 121 728 186 q 571 19 638 56 q 417 -17 504 -17 q 263 19 329 -17 q 151 119 196 54 q 83 274 106 183 q 61 476 61 365 q 83 677 61 586 q 151 834 106 768 q 263 937 196 900 q 417 974 329 974 q 571 938 504 974 q 683 838 638 903 q 750 681 728 772 q 772 478 772 589 m 635 478 q 584 766 635 667 q 417 865 533 865 q 249 765 300 865 q 199 476 199 665 q 251 189 199 286 q 417 92 303 92 q 584 190 533 92 q 635 478 635 288 m -87 711 l -21 974 l 118 951 l 10 694 l -87 711 z "},"Ύ":{"ha":833,"x_min":-176,"x_max":806,"o":"m 483 368 l 483 0 l 350 0 l 350 367 l 28 957 l 174 957 l 418 489 l 422 489 l 668 957 l 806 957 l 483 368 m -176 711 l -110 974 l 29 951 l -79 694 l -176 711 z "},"Ώ":{"ha":833,"x_min":-89,"x_max":772,"o":"m 417 865 q 322 844 363 865 q 254 778 282 824 q 213 662 226 733 q 199 489 199 590 q 243 231 199 324 q 371 97 288 139 l 371 0 l 76 0 l 76 104 l 232 104 l 232 110 q 106 244 150 151 q 61 489 61 338 q 86 694 61 604 q 157 847 111 785 q 269 941 203 908 q 417 974 335 974 q 565 941 499 974 q 676 847 631 908 q 747 694 722 785 q 772 489 772 604 q 726 246 772 338 q 599 110 681 154 l 599 104 l 757 104 l 757 0 l 464 0 l 464 97 q 591 231 547 139 q 635 489 635 324 q 621 662 635 590 q 579 778 607 733 q 510 844 551 824 q 417 865 469 865 m -89 711 l -22 974 l 117 951 l 8 694 l -89 711 z "},"ΐ":{"ha":833,"x_min":83,"x_max":728,"o":"m 328 636 q 276 632 301 633 q 225 631 251 631 q 153 633 189 631 q 83 642 118 636 l 97 742 q 178 734 135 736 q 269 732 222 732 q 364 734 317 732 q 456 742 411 736 l 456 186 q 488 111 456 133 q 574 89 521 89 q 634 96 603 89 q 694 114 665 103 l 728 22 q 652 -5 701 7 q 550 -17 603 -17 q 388 40 449 -17 q 328 197 328 96 l 328 636 m 225 850 q 167 872 190 850 q 144 928 144 894 q 167 985 144 963 q 225 1007 190 1007 q 281 985 258 1007 q 304 928 304 963 q 281 872 304 894 q 225 850 258 850 m 543 850 q 487 872 510 850 q 464 928 464 894 q 487 985 464 963 q 543 1007 510 1007 q 601 985 578 1007 q 624 928 624 963 q 601 872 624 894 q 543 850 578 850 m 336 1010 l 376 1258 l 517 1233 l 431 996 l 336 1010 z "},"Α":{"ha":833,"x_min":24,"x_max":810,"o":"m 597 240 l 229 240 l 156 0 l 24 0 l 333 957 l 500 957 l 810 0 l 671 0 l 597 240 m 261 347 l 565 347 l 417 838 l 411 838 l 261 347 z "},"Β":{"ha":833,"x_min":128,"x_max":754,"o":"m 615 271 q 599 358 615 324 q 556 412 583 392 q 493 440 529 432 q 415 447 457 447 l 260 447 l 260 107 l 410 107 q 481 113 444 107 q 548 138 518 119 q 597 188 578 156 q 615 271 615 219 m 578 707 q 529 819 578 786 q 394 853 481 853 l 260 853 l 260 553 l 406 553 q 533 589 489 553 q 578 707 578 625 m 754 274 q 723 142 754 194 q 640 58 692 90 q 524 13 589 26 q 392 0 458 0 l 128 0 l 128 957 l 371 957 q 497 946 435 957 q 606 907 558 935 q 683 833 654 879 q 713 715 713 786 q 698 634 713 669 q 660 574 683 599 q 606 533 636 549 q 546 511 576 518 l 546 506 q 619 484 582 499 q 686 442 656 469 q 735 374 717 415 q 754 274 754 333 z "},"Γ":{"ha":833,"x_min":182,"x_max":758,"o":"m 758 957 l 744 843 l 314 843 l 314 0 l 182 0 l 182 957 l 758 957 z "},"Δ":{"ha":833,"x_min":24,"x_max":810,"o":"m 333 957 l 500 957 l 810 0 l 24 0 l 333 957 m 189 108 l 638 108 l 417 838 l 411 838 l 189 108 z "},"Ε":{"ha":833,"x_min":156,"x_max":719,"o":"m 288 851 l 288 539 l 640 539 l 640 433 l 288 433 l 288 104 l 719 104 l 719 0 l 156 0 l 156 957 l 708 957 l 693 851 l 288 851 z "},"Ζ":{"ha":833,"x_min":94,"x_max":738,"o":"m 242 113 l 738 113 l 722 0 l 94 0 l 94 106 l 594 846 l 144 846 l 144 957 l 738 957 l 738 850 l 242 113 z "},"Η":{"ha":833,"x_min":111,"x_max":722,"o":"m 590 0 l 590 449 l 243 449 l 243 0 l 111 0 l 111 957 l 243 957 l 243 557 l 590 557 l 590 957 l 722 957 l 722 0 l 590 0 z "},"Θ":{"ha":833,"x_min":61,"x_max":772,"o":"m 554 431 l 278 431 l 278 533 l 554 533 l 554 431 m 772 478 q 750 277 772 368 q 683 121 728 186 q 571 19 638 56 q 417 -17 504 -17 q 263 19 329 -17 q 151 119 196 54 q 83 274 106 183 q 61 476 61 365 q 83 677 61 586 q 151 834 106 768 q 263 937 196 900 q 417 974 329 974 q 571 938 504 974 q 683 838 638 903 q 750 681 728 772 q 772 478 772 589 m 635 478 q 584 766 635 667 q 417 865 533 865 q 249 765 300 865 q 199 476 199 665 q 251 189 199 286 q 417 92 303 92 q 584 190 533 92 q 635 478 635 288 z "},"Ι":{"ha":833,"x_min":139,"x_max":694,"o":"m 694 853 l 483 853 l 483 104 l 694 104 l 694 0 l 139 0 l 139 104 l 350 104 l 350 853 l 139 853 l 139 957 l 694 957 l 694 853 z "},"Κ":{"ha":833,"x_min":139,"x_max":818,"o":"m 271 0 l 139 0 l 139 957 l 271 957 l 271 0 m 278 511 l 642 957 l 792 957 l 429 519 l 818 0 l 656 0 l 278 511 z "},"Λ":{"ha":833,"x_min":29,"x_max":803,"o":"m 163 0 l 29 0 l 333 957 l 500 957 l 803 0 l 664 0 l 417 829 l 411 829 l 163 0 z "},"Μ":{"ha":833,"x_min":40,"x_max":793,"o":"m 668 0 l 640 490 q 635 631 638 560 q 633 751 633 703 q 634 789 633 774 q 635 811 635 804 l 631 811 l 479 171 l 353 171 l 194 811 l 189 811 l 189 588 q 186 490 189 536 l 163 0 l 40 0 l 94 957 l 269 957 l 417 318 l 422 318 l 563 957 l 739 957 l 793 0 l 668 0 z "},"Ν":{"ha":833,"x_min":111,"x_max":722,"o":"m 542 0 l 219 810 l 214 810 q 218 768 215 801 q 224 686 221 735 q 229 580 226 638 q 232 467 232 522 l 232 0 l 111 0 l 111 957 l 288 957 l 614 143 l 619 143 q 615 183 618 151 q 609 260 613 214 q 603 366 606 307 q 601 490 601 425 l 601 957 l 722 957 l 722 0 l 542 0 z "},"Ξ":{"ha":833,"x_min":103,"x_max":731,"o":"m 174 544 l 647 544 l 647 426 l 174 426 l 174 544 m 103 957 l 718 957 l 700 839 l 103 839 l 103 957 m 103 121 l 731 121 l 731 0 l 103 0 l 103 121 z "},"Ο":{"ha":833,"x_min":61,"x_max":772,"o":"m 772 478 q 750 277 772 368 q 683 121 728 186 q 571 19 638 56 q 417 -17 504 -17 q 263 19 329 -17 q 151 119 196 54 q 83 274 106 183 q 61 476 61 365 q 83 677 61 586 q 151 834 106 768 q 263 937 196 900 q 417 974 329 974 q 571 938 504 974 q 683 838 638 903 q 750 681 728 772 q 772 478 772 589 m 635 478 q 584 766 635 667 q 417 865 533 865 q 249 765 300 865 q 199 476 199 665 q 251 189 199 286 q 417 92 303 92 q 584 190 533 92 q 635 478 635 288 z "},"Π":{"ha":833,"x_min":111,"x_max":722,"o":"m 590 0 l 590 844 l 243 844 l 243 0 l 111 0 l 111 957 l 722 957 l 722 0 l 590 0 z "},"Ρ":{"ha":833,"x_min":153,"x_max":776,"o":"m 636 660 q 619 751 636 714 q 574 810 603 788 q 504 844 544 833 q 417 854 464 854 l 285 854 l 285 456 l 417 456 q 504 465 464 456 q 574 497 544 474 q 619 559 603 519 q 636 660 636 599 m 776 661 q 749 519 776 578 q 672 422 721 460 q 555 368 624 385 q 406 351 486 351 l 285 351 l 285 0 l 153 0 l 153 957 l 403 957 q 676 885 576 957 q 776 661 776 813 z "},"Σ":{"ha":833,"x_min":99,"x_max":735,"o":"m 564 438 l 251 108 l 735 108 l 735 0 l 99 0 l 99 108 l 446 478 l 99 847 l 99 957 l 735 957 l 735 849 l 250 849 l 564 524 l 564 438 z "},"Τ":{"ha":833,"x_min":53,"x_max":781,"o":"m 481 846 l 481 0 l 349 0 l 349 846 l 53 846 l 53 957 l 781 957 l 767 846 l 481 846 z "},"Υ":{"ha":833,"x_min":28,"x_max":806,"o":"m 483 368 l 483 0 l 350 0 l 350 367 l 28 957 l 174 957 l 418 489 l 422 489 l 668 957 l 806 957 l 483 368 z "},"Φ":{"ha":833,"x_min":14,"x_max":819,"o":"m 356 0 l 356 113 q 101 210 189 118 q 14 482 14 301 q 97 747 14 656 q 356 847 179 839 l 356 957 l 478 957 l 478 847 q 736 748 653 839 q 819 482 819 657 q 732 210 819 301 q 478 113 644 118 l 478 0 l 356 0 m 144 482 q 194 276 144 340 q 358 204 244 211 l 358 756 q 264 740 304 754 q 197 692 224 725 q 158 608 171 660 q 144 482 144 557 m 689 482 q 676 609 689 557 q 636 694 663 661 q 569 741 610 726 q 475 756 529 756 l 475 204 q 639 276 589 211 q 689 482 689 342 z "},"Χ":{"ha":833,"x_min":38,"x_max":794,"o":"m 63 957 l 213 957 l 410 601 l 415 601 l 621 957 l 763 957 l 489 517 l 794 0 l 644 0 l 413 419 l 407 419 l 179 0 l 38 0 l 332 510 l 63 957 z "},"Ψ":{"ha":833,"x_min":18,"x_max":815,"o":"m 354 0 l 354 279 q 205 314 268 286 q 100 385 142 342 q 38 485 58 428 q 18 610 18 543 l 18 957 l 144 957 l 144 615 q 155 525 144 565 q 190 456 165 485 q 255 409 214 426 q 357 386 296 392 l 357 957 l 478 957 l 478 388 q 642 456 596 399 q 689 615 689 514 l 689 957 l 815 957 l 815 610 q 795 486 815 543 q 733 386 775 429 q 628 316 692 343 q 481 281 565 289 l 481 0 l 354 0 z "},"Ω":{"ha":833,"x_min":61,"x_max":772,"o":"m 417 865 q 322 844 363 865 q 254 778 282 824 q 213 662 226 733 q 199 489 199 590 q 243 231 199 324 q 371 97 288 139 l 371 0 l 76 0 l 76 104 l 232 104 l 232 110 q 106 244 150 151 q 61 489 61 338 q 86 694 61 604 q 157 847 111 785 q 269 941 203 908 q 417 974 335 974 q 565 941 499 974 q 676 847 631 908 q 747 694 722 785 q 772 489 772 604 q 726 246 772 338 q 599 110 681 154 l 599 104 l 757 104 l 757 0 l 464 0 l 464 97 q 591 231 547 139 q 635 489 635 324 q 621 662 635 590 q 579 778 607 733 q 510 844 551 824 q 417 865 469 865 z "},"Ϊ":{"ha":833,"x_min":139,"x_max":694,"o":"m 694 853 l 483 853 l 483 104 l 694 104 l 694 0 l 139 0 l 139 104 l 350 104 l 350 853 l 139 853 l 139 957 l 694 957 l 694 853 m 269 1068 q 213 1090 236 1068 q 190 1147 190 1113 q 213 1203 190 1181 q 269 1225 236 1225 q 327 1203 304 1225 q 350 1147 350 1181 q 327 1090 350 1113 q 269 1068 304 1068 m 561 1068 q 503 1090 526 1068 q 481 1147 481 1113 q 503 1203 481 1181 q 561 1225 526 1225 q 618 1203 594 1225 q 642 1147 642 1181 q 618 1090 642 1113 q 561 1068 594 1068 z "},"Ϋ":{"ha":833,"x_min":28,"x_max":806,"o":"m 483 368 l 483 0 l 350 0 l 350 367 l 28 957 l 174 957 l 418 489 l 422 489 l 668 957 l 806 957 l 483 368 m 274 1068 q 217 1090 240 1068 q 194 1147 194 1113 q 217 1203 194 1181 q 274 1225 240 1225 q 331 1203 308 1225 q 354 1147 354 1181 q 331 1090 354 1113 q 274 1068 308 1068 m 565 1068 q 508 1090 531 1068 q 485 1147 485 1113 q 508 1203 485 1181 q 565 1225 531 1225 q 622 1203 599 1225 q 646 1147 646 1181 q 622 1090 646 1113 q 565 1068 599 1068 z "},"ά":{"ha":833,"x_min":72,"x_max":761,"o":"m 714 -18 q 636 19 672 -11 q 589 108 600 49 l 565 208 l 560 208 q 527 122 546 163 q 481 50 508 81 q 415 1 453 19 q 326 -17 376 -17 q 212 11 260 -17 q 133 89 164 39 q 87 209 101 139 q 72 365 72 279 q 90 519 72 449 q 143 640 108 589 q 228 719 178 690 q 343 749 279 749 q 438 733 399 749 q 505 690 478 717 q 549 626 532 663 q 574 547 565 589 l 579 547 l 632 733 l 749 700 l 633 385 l 700 161 q 721 118 708 133 q 761 93 733 103 l 714 -18 m 343 85 q 391 96 367 85 q 440 138 415 107 q 485 226 464 169 q 524 375 507 283 q 463 581 501 515 q 360 647 424 647 q 246 575 285 647 q 207 365 207 503 q 243 153 207 222 q 343 85 279 85 m 311 835 l 364 1128 l 503 1103 l 407 818 l 311 835 z "},"έ":{"ha":833,"x_min":113,"x_max":763,"o":"m 547 332 l 421 332 q 290 304 329 332 q 250 217 250 276 q 300 122 250 157 q 442 86 350 86 q 583 107 521 86 q 696 164 644 128 l 763 81 q 624 12 708 40 q 433 -17 540 -17 q 306 -2 364 -17 q 204 42 247 13 q 137 113 161 71 q 113 211 113 156 q 127 283 113 251 q 165 335 142 314 q 221 370 189 357 q 288 389 253 383 l 288 394 q 184 451 226 410 q 142 553 142 493 q 165 638 142 601 q 229 699 189 675 q 324 736 269 724 q 439 749 378 749 q 586 731 510 749 q 721 674 663 714 l 658 596 q 556 636 611 624 q 446 649 501 649 q 319 622 364 649 q 274 539 274 596 q 315 461 274 490 q 429 432 356 432 l 563 432 l 547 332 m 385 835 l 438 1128 l 576 1103 l 481 818 l 385 835 z "},"ή":{"ha":833,"x_min":99,"x_max":700,"o":"m 700 -281 l 572 -296 l 572 449 q 568 540 572 503 q 551 602 564 578 q 515 638 539 626 q 451 649 492 649 q 394 638 422 649 q 342 611 367 628 q 297 573 318 594 q 263 531 276 551 l 263 0 l 135 0 l 135 496 q 123 628 135 568 q 99 732 111 688 l 218 749 q 239 692 229 729 q 251 628 249 656 q 364 718 299 688 q 494 749 429 749 q 651 692 601 749 q 700 532 700 635 l 700 -281 m 360 835 l 413 1128 l 551 1103 l 456 818 l 360 835 z "},"ί":{"ha":833,"x_min":83,"x_max":728,"o":"m 328 636 q 276 632 301 633 q 225 631 251 631 q 153 633 189 631 q 83 642 118 636 l 97 742 q 178 734 135 736 q 269 732 222 732 q 364 734 317 732 q 456 742 411 736 l 456 186 q 488 111 456 133 q 574 89 521 89 q 634 96 603 89 q 694 114 665 103 l 728 22 q 652 -5 701 7 q 550 -17 603 -17 q 388 40 449 -17 q 328 197 328 96 l 328 636 m 311 835 l 364 1128 l 503 1103 l 407 818 l 311 835 z "},"ΰ":{"ha":833,"x_min":138,"x_max":732,"o":"m 138 732 l 265 732 l 265 265 q 297 128 265 169 q 401 86 328 86 q 549 156 494 86 q 603 365 603 226 q 594 536 603 444 q 567 732 586 628 l 696 732 q 722 551 713 642 q 732 347 732 460 q 708 197 732 264 q 640 82 683 129 q 535 9 596 35 q 400 -17 474 -17 q 281 3 331 -17 q 199 57 231 22 q 152 140 167 92 q 138 246 138 189 l 138 732 m 260 850 q 202 872 225 850 q 179 928 179 894 q 202 985 179 963 q 260 1007 225 1007 q 316 985 293 1007 q 339 928 339 963 q 316 872 339 894 q 260 850 293 850 m 578 850 q 522 872 544 850 q 499 928 499 894 q 522 985 499 963 q 578 1007 544 1007 q 635 985 613 1007 q 658 928 658 963 q 635 872 658 894 q 578 850 613 850 m 371 1010 l 411 1258 l 551 1233 l 465 996 l 371 1010 z "},"α":{"ha":833,"x_min":72,"x_max":761,"o":"m 714 -18 q 636 19 672 -11 q 589 108 600 49 l 565 208 l 560 208 q 527 122 546 163 q 481 50 508 81 q 415 1 453 19 q 326 -17 376 -17 q 212 11 260 -17 q 133 89 164 39 q 87 209 101 139 q 72 365 72 279 q 90 519 72 449 q 143 640 108 589 q 228 719 178 690 q 343 749 279 749 q 438 733 399 749 q 505 690 478 717 q 549 626 532 663 q 574 547 565 589 l 579 547 l 632 733 l 749 700 l 633 385 l 700 161 q 721 118 708 133 q 761 93 733 103 l 714 -18 m 343 85 q 391 96 367 85 q 440 138 415 107 q 485 226 464 169 q 524 375 507 283 q 463 581 501 515 q 360 647 424 647 q 246 575 285 647 q 207 365 207 503 q 243 153 207 222 q 343 85 279 85 z "},"β":{"ha":833,"x_min":110,"x_max":751,"o":"m 110 494 q 140 740 110 636 q 219 910 169 843 q 335 1009 269 976 q 471 1042 400 1042 q 574 1025 532 1042 q 643 981 617 1008 q 681 919 669 954 q 693 844 693 883 q 640 712 693 769 q 486 614 586 654 l 486 608 q 606 583 556 606 q 688 519 656 560 q 736 423 721 478 q 751 304 751 368 q 730 184 751 242 q 667 81 708 126 q 566 10 626 36 q 428 -17 506 -17 q 279 18 340 -17 q 181 119 218 53 q 126 280 143 185 q 110 494 110 375 m 426 86 q 563 144 514 86 q 611 299 611 201 q 603 397 611 353 q 573 472 594 440 q 516 522 551 504 q 426 539 481 539 q 347 522 389 539 q 247 476 306 504 q 256 314 247 386 q 284 191 264 242 q 338 113 304 140 q 426 86 372 86 m 467 944 q 390 927 426 944 q 324 868 354 910 q 274 756 294 826 q 249 579 254 685 q 377 634 319 608 q 476 690 435 660 q 540 758 518 719 q 563 849 563 796 q 538 919 563 893 q 467 944 514 944 z "},"γ":{"ha":833,"x_min":56,"x_max":778,"o":"m 351 26 q 294 227 328 125 q 222 420 261 329 q 141 585 183 511 q 56 701 99 660 l 185 747 q 253 644 219 706 q 318 507 288 582 q 375 344 349 432 q 421 164 401 257 l 426 164 l 649 749 l 778 719 l 478 25 q 446 -137 446 -53 q 450 -206 446 -171 q 461 -281 454 -240 l 358 -296 q 322 -133 322 -224 q 351 26 322 -51 z "},"δ":{"ha":833,"x_min":90,"x_max":751,"o":"m 90 338 q 107 452 90 400 q 153 546 124 504 q 224 617 183 588 q 311 667 264 647 q 206 747 236 706 q 176 847 176 789 q 196 929 176 893 q 251 990 215 965 q 335 1028 286 1015 q 442 1042 383 1042 q 572 1020 517 1042 q 675 958 626 999 l 611 883 q 524 932 565 919 q 436 944 483 944 q 342 920 376 944 q 308 851 308 896 q 317 811 308 828 q 344 780 325 794 q 394 751 363 765 q 469 719 425 738 q 594 657 540 690 q 682 579 647 624 q 734 476 717 535 q 751 339 751 418 q 729 203 751 268 q 664 90 707 139 q 560 12 621 40 q 421 -17 499 -17 q 281 11 343 -17 q 177 87 219 39 q 113 199 135 135 q 90 338 90 264 m 614 339 q 603 443 614 400 q 569 518 593 486 q 503 576 544 550 q 403 626 463 601 q 267 510 307 581 q 228 338 228 440 q 278 153 228 219 q 421 86 329 86 q 563 150 513 86 q 614 339 614 214 z "},"ε":{"ha":833,"x_min":113,"x_max":763,"o":"m 547 332 l 421 332 q 290 304 329 332 q 250 217 250 276 q 300 122 250 157 q 442 86 350 86 q 583 107 521 86 q 696 164 644 128 l 763 81 q 624 12 708 40 q 433 -17 540 -17 q 306 -2 364 -17 q 204 42 247 13 q 137 113 161 71 q 113 211 113 156 q 127 283 113 251 q 165 335 142 314 q 221 370 189 357 q 288 389 253 383 l 288 394 q 184 451 226 410 q 142 553 142 493 q 165 638 142 601 q 229 699 189 675 q 324 736 269 724 q 439 749 378 749 q 586 731 510 749 q 721 674 663 714 l 658 596 q 556 636 611 624 q 446 649 501 649 q 319 622 364 649 q 274 539 274 596 q 315 461 274 490 q 429 432 356 432 l 563 432 l 547 332 z "},"ζ":{"ha":833,"x_min":151,"x_max":742,"o":"m 732 -60 q 677 -199 732 -139 q 510 -310 622 -260 l 458 -221 q 556 -158 518 -190 q 594 -74 594 -125 q 587 -42 594 -56 q 562 -18 579 -29 q 515 3 544 -7 q 444 29 486 14 q 316 81 371 54 q 225 144 261 108 q 170 230 189 181 q 151 350 151 279 q 178 488 151 421 q 252 619 204 556 q 367 741 300 682 q 517 854 435 800 l 514 858 q 476 850 503 854 q 421 846 449 846 q 268 878 339 846 q 157 985 197 911 l 256 1042 q 333 964 286 992 q 450 936 379 936 q 569 958 517 936 q 669 1017 622 979 l 742 938 q 545 765 629 843 q 404 617 461 686 q 319 485 347 549 q 290 354 290 421 q 302 270 290 304 q 340 211 314 236 q 406 167 365 186 q 504 129 447 149 q 601 94 558 111 q 672 57 643 78 q 717 8 701 36 q 732 -60 732 -19 z "},"η":{"ha":833,"x_min":99,"x_max":700,"o":"m 700 -281 l 572 -296 l 572 449 q 568 540 572 503 q 551 602 564 578 q 515 638 539 626 q 451 649 492 649 q 394 638 422 649 q 342 611 367 628 q 297 573 318 594 q 263 531 276 551 l 263 0 l 135 0 l 135 496 q 123 628 135 568 q 99 732 111 688 l 218 749 q 239 692 229 729 q 251 628 249 656 q 364 718 299 688 q 494 749 429 749 q 651 692 601 749 q 700 532 700 635 l 700 -281 z "},"θ":{"ha":833,"x_min":97,"x_max":736,"o":"m 97 515 q 118 735 97 638 q 179 900 139 832 q 280 1005 219 968 q 418 1042 340 1042 q 556 1006 496 1042 q 656 903 615 971 q 716 738 696 836 q 736 517 736 640 q 715 296 736 394 q 654 128 694 197 q 554 21 614 58 q 417 -17 494 -17 q 279 20 339 -17 q 179 126 219 57 q 118 293 139 194 q 97 515 97 392 m 418 938 q 279 849 325 938 q 229 557 233 761 l 604 557 q 555 849 600 761 q 418 938 510 938 m 417 86 q 552 174 507 86 q 603 460 597 263 l 229 460 q 281 174 235 263 q 417 86 326 86 z "},"ι":{"ha":833,"x_min":83,"x_max":728,"o":"m 328 636 q 276 632 301 633 q 225 631 251 631 q 153 633 189 631 q 83 642 118 636 l 97 742 q 178 734 135 736 q 269 732 222 732 q 364 734 317 732 q 456 742 411 736 l 456 186 q 488 111 456 133 q 574 89 521 89 q 634 96 603 89 q 694 114 665 103 l 728 22 q 652 -5 701 7 q 550 -17 603 -17 q 388 40 449 -17 q 328 197 328 96 l 328 636 z "},"κ":{"ha":833,"x_min":113,"x_max":782,"o":"m 238 1042 q 273 881 268 965 q 278 690 278 797 l 278 0 l 150 0 l 150 711 q 148 811 150 767 q 141 893 146 856 q 129 962 136 931 q 113 1025 122 993 l 238 1042 m 622 749 l 731 696 l 436 404 l 642 183 q 681 144 664 160 q 715 117 699 128 q 747 100 731 107 q 782 88 763 93 l 738 -17 q 685 -5 708 -12 q 642 16 663 3 q 601 49 621 29 q 556 97 581 69 l 283 400 l 622 749 z "},"λ":{"ha":833,"x_min":64,"x_max":783,"o":"m 331 749 l 381 749 q 347 823 365 790 q 301 880 329 856 q 234 921 274 904 q 138 946 194 938 l 157 1044 q 301 1008 240 1032 q 403 944 361 983 q 472 851 444 906 q 515 722 499 796 q 576 478 546 588 q 638 284 606 369 q 705 135 669 199 q 783 29 740 72 l 650 -17 q 516 241 574 81 q 417 640 458 401 l 411 640 l 188 -18 l 64 10 l 331 749 z "},"μ":{"ha":833,"x_min":138,"x_max":732,"o":"m 265 732 l 265 321 q 269 224 265 267 q 284 153 272 182 q 319 108 296 124 q 383 93 343 93 q 492 125 446 93 q 568 200 538 157 l 568 732 l 696 732 l 696 236 q 708 104 696 164 q 732 0 719 44 l 613 -17 q 592 38 601 3 q 581 100 583 72 q 496 15 549 47 q 389 -17 443 -17 q 254 42 296 -17 l 249 40 q 260 -19 256 11 q 264 -78 264 -50 l 264 -281 l 138 -296 l 138 732 l 265 732 z "},"ν":{"ha":833,"x_min":42,"x_max":764,"o":"m 324 0 q 269 207 300 100 q 203 411 239 314 q 126 585 167 508 q 42 701 85 663 l 168 747 q 241 634 206 703 q 306 482 276 565 q 362 305 336 399 q 407 118 388 211 l 413 118 l 636 749 l 764 719 l 478 0 l 324 0 z "},"ξ":{"ha":833,"x_min":133,"x_max":769,"o":"m 133 368 q 156 474 133 429 q 210 548 178 518 q 281 594 243 578 q 351 615 319 610 l 351 621 q 290 646 319 631 q 238 683 261 661 q 200 736 214 706 q 186 807 186 767 q 211 906 186 863 q 278 979 236 949 q 377 1026 321 1010 q 496 1042 433 1042 q 642 1022 574 1042 q 769 960 711 1001 l 708 885 q 607 930 661 915 q 500 944 553 944 q 365 910 413 944 q 318 807 318 875 q 362 702 318 738 q 483 667 406 667 l 649 667 l 633 557 l 472 557 q 388 542 425 557 q 324 503 350 528 q 285 444 299 478 q 271 374 271 411 q 285 284 271 319 q 332 223 300 249 q 413 178 364 197 q 533 136 463 158 q 637 99 593 117 q 708 59 681 81 q 748 9 735 38 q 761 -60 761 -19 q 706 -199 761 -139 q 539 -310 651 -260 l 488 -221 q 587 -156 550 -190 q 624 -69 624 -121 q 598 -17 624 -35 q 499 25 572 1 q 352 78 419 51 q 236 144 285 106 q 160 237 188 183 q 133 368 133 290 z "},"ο":{"ha":833,"x_min":97,"x_max":736,"o":"m 600 367 q 555 578 600 510 q 418 646 510 646 q 280 578 326 646 q 233 365 233 510 q 279 154 233 222 q 417 86 325 86 q 554 154 508 86 q 600 367 600 222 m 97 365 q 118 521 97 450 q 179 642 139 592 q 280 721 219 693 q 418 749 340 749 q 556 722 496 749 q 656 644 615 694 q 716 524 696 594 q 736 367 736 454 q 715 211 736 282 q 654 90 694 140 q 554 11 614 39 q 417 -17 494 -17 q 279 10 339 -17 q 179 88 219 38 q 118 208 139 138 q 97 365 97 278 z "},"π":{"ha":833,"x_min":56,"x_max":783,"o":"m 163 0 l 163 628 l 56 628 l 56 732 l 554 732 q 617 734 589 732 q 671 739 646 736 q 719 746 696 742 q 768 756 743 750 l 783 650 q 656 631 722 635 l 656 196 q 673 126 656 151 q 724 86 690 101 l 679 -17 q 623 7 650 -8 q 575 46 596 22 q 542 103 554 69 q 531 181 531 136 l 531 628 l 288 628 l 288 0 l 163 0 z "},"ρ":{"ha":833,"x_min":126,"x_max":736,"o":"m 126 -296 l 126 376 q 202 654 126 560 q 426 749 278 749 q 663 652 589 749 q 736 367 736 556 q 718 219 736 289 q 664 97 700 150 q 574 14 628 44 q 447 -17 519 -17 q 339 3 388 -17 q 254 67 290 24 l 254 -281 l 126 -296 m 417 88 q 551 158 504 88 q 599 367 599 229 q 555 580 599 511 q 424 649 511 649 q 292 573 329 649 q 254 356 254 497 l 254 176 q 324 110 282 133 q 417 88 367 88 z "},"ς":{"ha":833,"x_min":139,"x_max":736,"o":"m 713 -60 q 656 -200 713 -139 q 490 -310 600 -261 l 439 -221 q 490 -190 465 -206 q 534 -158 515 -175 q 564 -119 553 -140 q 575 -69 575 -97 q 567 -38 575 -51 q 541 -15 558 -25 q 497 6 524 -4 q 431 31 469 17 q 307 84 361 56 q 215 154 253 113 q 158 253 178 196 q 139 392 139 310 q 164 532 139 467 q 236 645 189 597 q 349 721 283 693 q 497 749 415 749 q 625 731 567 749 q 736 672 683 713 l 674 589 q 588 631 629 619 q 497 643 547 643 q 410 627 450 643 q 340 580 369 611 q 292 501 310 549 q 275 392 275 454 q 287 290 275 331 q 325 222 299 250 q 392 175 351 194 q 489 135 432 156 q 578 101 538 117 q 649 63 619 85 q 696 13 679 42 q 713 -60 713 -17 z "},"σ":{"ha":833,"x_min":97,"x_max":792,"o":"m 596 367 q 570 541 596 476 q 506 642 544 606 q 393 631 443 642 q 308 590 343 619 q 253 506 272 560 q 235 365 235 451 q 281 154 235 222 q 417 86 326 86 q 551 154 506 86 q 596 367 596 222 m 733 367 q 713 211 733 282 q 651 90 692 140 q 552 11 611 39 q 417 -17 493 -17 q 281 10 340 -17 q 181 88 221 38 q 119 208 140 138 q 97 365 97 278 q 120 519 97 450 q 188 638 143 589 q 297 713 232 686 q 444 740 361 740 q 617 744 532 740 q 772 763 701 749 l 792 660 q 608 643 697 643 q 698 542 663 611 q 733 367 733 474 z "},"τ":{"ha":833,"x_min":88,"x_max":739,"o":"m 324 628 l 88 628 l 88 732 l 483 732 q 556 733 524 732 q 617 738 589 735 q 670 744 644 740 q 724 756 696 749 l 739 650 q 638 633 692 639 q 525 628 585 628 l 451 628 l 451 186 q 484 111 451 133 q 569 89 517 89 q 630 96 599 89 q 690 114 661 103 l 724 22 q 648 -5 697 7 q 546 -17 599 -17 q 384 40 444 -17 q 324 197 324 96 l 324 628 z "},"υ":{"ha":833,"x_min":138,"x_max":732,"o":"m 138 732 l 265 732 l 265 265 q 297 128 265 169 q 401 86 328 86 q 549 156 494 86 q 603 365 603 226 q 594 536 603 444 q 567 732 586 628 l 696 732 q 722 551 713 642 q 732 347 732 460 q 708 197 732 264 q 640 82 683 129 q 535 9 596 35 q 400 -17 474 -17 q 281 3 331 -17 q 199 57 231 22 q 152 140 167 92 q 138 246 138 189 l 138 732 z "},"φ":{"ha":833,"x_min":51,"x_max":782,"o":"m 175 361 q 211 166 175 235 q 347 82 247 97 l 347 443 q 358 572 347 515 q 394 667 369 628 q 458 728 418 707 q 554 749 497 749 q 728 655 674 749 q 782 372 782 561 q 759 206 782 276 q 694 90 736 136 q 594 18 653 43 q 464 -14 536 -7 l 464 -281 l 347 -296 l 347 -14 q 124 88 196 0 q 51 332 51 176 q 76 558 51 460 q 128 732 100 657 l 251 732 q 194 528 213 617 q 175 361 175 440 m 464 81 q 613 165 571 94 q 656 372 656 236 q 634 586 656 521 q 553 651 613 651 q 501 633 519 651 q 475 584 483 615 q 465 511 467 553 q 464 422 464 469 l 464 81 z "},"χ":{"ha":833,"x_min":60,"x_max":769,"o":"m 431 353 l 615 749 l 740 719 l 494 254 l 769 -260 l 640 -296 l 426 150 l 421 150 l 218 -296 l 92 -268 l 354 256 q 226 507 297 399 q 60 701 156 615 l 189 747 q 259 667 226 708 q 321 580 292 626 q 376 477 350 533 q 425 353 401 421 l 431 353 z "},"ψ":{"ha":833,"x_min":67,"x_max":781,"o":"m 360 711 q 358 811 360 767 q 351 893 356 856 q 339 962 346 931 q 322 1025 332 993 l 436 1042 q 472 881 467 965 q 476 690 476 797 l 476 88 q 567 116 532 94 q 622 172 601 138 q 649 255 642 207 q 656 364 656 303 q 647 536 656 443 q 619 732 638 629 l 744 732 q 758 643 751 686 q 770 554 765 600 q 778 459 775 508 q 781 353 781 410 q 707 101 781 196 q 476 -10 633 6 l 476 -281 l 360 -296 l 360 -10 q 227 21 282 -4 q 136 83 172 46 q 83 169 100 121 q 67 269 67 217 l 67 732 l 190 732 l 190 279 q 228 147 190 196 q 360 88 267 99 l 360 711 z "},"ω":{"ha":833,"x_min":35,"x_max":799,"o":"m 475 321 q 479 224 475 268 q 494 150 483 181 q 525 103 506 119 q 574 86 544 86 q 654 158 633 86 q 675 361 675 229 q 660 527 675 440 q 608 732 644 614 l 732 732 q 777 558 756 656 q 799 332 799 460 q 745 76 799 168 q 586 -17 692 -17 q 471 26 514 -17 q 418 146 428 68 l 413 146 q 354 28 397 74 q 244 -17 311 -17 q 86 73 138 -17 q 35 332 35 163 q 56 558 35 460 q 100 732 76 656 l 222 732 q 172 527 186 615 q 158 361 158 439 q 163 244 158 296 q 178 158 167 193 q 210 104 190 122 q 260 86 229 86 q 308 105 289 86 q 339 156 328 124 q 354 231 350 189 q 358 321 358 274 l 358 493 l 475 510 l 475 321 z "},"ϊ":{"ha":833,"x_min":83,"x_max":728,"o":"m 328 636 q 276 632 301 633 q 225 631 251 631 q 153 633 189 631 q 83 642 118 636 l 97 742 q 178 734 135 736 q 269 732 222 732 q 364 734 317 732 q 456 742 411 736 l 456 186 q 488 111 456 133 q 574 89 521 89 q 634 96 603 89 q 694 114 665 103 l 728 22 q 652 -5 701 7 q 550 -17 603 -17 q 388 40 449 -17 q 328 197 328 96 l 328 636 m 238 899 q 180 921 203 899 q 157 976 157 943 q 180 1033 157 1011 q 238 1056 203 1056 q 294 1033 271 1056 q 317 976 317 1011 q 294 921 317 943 q 238 899 271 899 m 528 899 q 472 921 494 899 q 449 976 449 943 q 472 1033 449 1011 q 528 1056 494 1056 q 585 1033 563 1056 q 608 976 608 1011 q 585 921 608 943 q 528 899 563 899 z "},"ϋ":{"ha":833,"x_min":138,"x_max":732,"o":"m 138 732 l 265 732 l 265 265 q 297 128 265 169 q 401 86 328 86 q 549 156 494 86 q 603 365 603 226 q 594 536 603 444 q 567 732 586 628 l 696 732 q 722 551 713 642 q 732 347 732 460 q 708 197 732 264 q 640 82 683 129 q 535 9 596 35 q 400 -17 474 -17 q 281 3 331 -17 q 199 57 231 22 q 152 140 167 92 q 138 246 138 189 l 138 732 m 272 899 q 215 921 238 899 q 192 976 192 943 q 215 1033 192 1011 q 272 1056 238 1056 q 328 1033 306 1056 q 351 976 351 1011 q 328 921 351 943 q 272 899 306 899 m 563 899 q 506 921 529 899 q 483 976 483 943 q 506 1033 483 1011 q 563 1056 529 1056 q 620 1033 597 1056 q 643 976 643 1011 q 620 921 643 943 q 563 899 597 899 z "},"ό":{"ha":833,"x_min":97,"x_max":736,"o":"m 600 367 q 555 578 600 510 q 418 646 510 646 q 280 578 326 646 q 233 365 233 510 q 279 154 233 222 q 417 86 325 86 q 554 154 508 86 q 600 367 600 222 m 97 365 q 118 521 97 450 q 179 642 139 592 q 280 721 219 693 q 418 749 340 749 q 556 722 496 749 q 656 644 615 694 q 716 524 696 594 q 736 367 736 454 q 715 211 736 282 q 654 90 694 140 q 554 11 614 39 q 417 -17 494 -17 q 279 10 339 -17 q 179 88 219 38 q 118 208 139 138 q 97 365 97 278 m 376 835 l 429 1128 l 568 1103 l 472 818 l 376 835 z "},"ύ":{"ha":833,"x_min":138,"x_max":732,"o":"m 138 732 l 265 732 l 265 265 q 297 128 265 169 q 401 86 328 86 q 549 156 494 86 q 603 365 603 226 q 594 536 603 444 q 567 732 586 628 l 696 732 q 722 551 713 642 q 732 347 732 460 q 708 197 732 264 q 640 82 683 129 q 535 9 596 35 q 400 -17 474 -17 q 281 3 331 -17 q 199 57 231 22 q 152 140 167 92 q 138 246 138 189 l 138 732 m 356 835 l 408 1128 l 547 1103 l 451 818 l 356 835 z "},"ώ":{"ha":833,"x_min":35,"x_max":799,"o":"m 475 321 q 479 224 475 268 q 494 150 483 181 q 525 103 506 119 q 574 86 544 86 q 654 158 633 86 q 675 361 675 229 q 660 527 675 440 q 608 732 644 614 l 732 732 q 777 558 756 656 q 799 332 799 460 q 745 76 799 168 q 586 -17 692 -17 q 471 26 514 -17 q 418 146 428 68 l 413 146 q 354 28 397 74 q 244 -17 311 -17 q 86 73 138 -17 q 35 332 35 163 q 56 558 35 460 q 100 732 76 656 l 222 732 q 172 527 186 615 q 158 361 158 439 q 163 244 158 296 q 178 158 167 193 q 210 104 190 122 q 260 86 229 86 q 308 105 289 86 q 339 156 328 124 q 354 231 350 189 q 358 321 358 274 l 358 493 l 475 510 l 475 321 m 349 835 l 401 1128 l 540 1103 l 444 818 l 349 835 z "},"Ё":{"ha":833,"x_min":156,"x_max":719,"o":"m 288 851 l 288 539 l 640 539 l 640 433 l 288 433 l 288 104 l 719 104 l 719 0 l 156 0 l 156 957 l 708 957 l 693 851 l 288 851 m 283 1068 q 227 1090 250 1068 q 204 1147 204 1113 q 227 1203 204 1181 q 283 1225 250 1225 q 341 1203 318 1225 q 364 1147 364 1181 q 341 1090 364 1113 q 283 1068 318 1068 m 575 1068 q 517 1090 540 1068 q 494 1147 494 1113 q 517 1203 494 1181 q 575 1225 540 1225 q 632 1203 608 1225 q 656 1147 656 1181 q 632 1090 656 1113 q 575 1068 608 1068 z "},"Ђ":{"ha":833,"x_min":-7,"x_max":789,"o":"m 343 847 l 343 547 q 430 604 381 581 q 542 628 479 628 q 728 556 668 628 q 789 343 789 483 l 789 133 q 772 6 789 60 q 724 -85 756 -47 q 646 -148 692 -122 q 543 -193 600 -174 l 510 -90 q 584 -52 556 -72 q 629 -6 613 -32 q 652 53 646 19 q 658 133 658 88 l 658 338 q 625 475 658 433 q 511 517 592 517 q 409 493 449 517 q 343 446 369 469 l 343 0 l 214 0 l 214 847 l -7 847 l -7 957 l 567 957 l 553 847 l 343 847 z "},"Ѓ":{"ha":833,"x_min":182,"x_max":758,"o":"m 758 957 l 744 843 l 314 843 l 314 0 l 182 0 l 182 957 l 758 957 m 324 1117 l 586 1268 l 651 1161 l 363 1049 l 324 1117 z "},"Є":{"ha":833,"x_min":76,"x_max":785,"o":"m 497 92 q 628 117 576 92 q 717 174 681 142 l 785 90 q 668 16 740 49 q 492 -17 596 -17 q 325 15 401 -17 q 193 110 249 47 q 107 266 138 174 q 76 479 76 358 q 110 692 76 600 q 199 847 143 785 q 331 942 256 910 q 490 974 406 974 q 649 949 585 974 q 771 879 714 924 l 699 797 q 604 851 654 833 q 499 868 554 868 q 397 851 444 868 q 310 795 349 833 q 247 696 272 757 q 215 546 222 635 l 631 546 l 631 438 l 213 438 q 240 280 217 346 q 302 172 264 214 q 390 111 340 131 q 497 92 440 92 z "},"Ѕ":{"ha":833,"x_min":56,"x_max":750,"o":"m 750 267 q 726 152 750 204 q 658 63 703 100 q 548 4 613 25 q 401 -17 483 -17 q 203 16 289 -17 q 56 107 117 49 l 132 192 q 246 118 182 144 q 397 92 310 92 q 478 102 439 92 q 547 134 517 113 q 594 188 576 156 q 613 263 613 219 q 603 322 613 296 q 570 368 593 347 q 507 407 547 389 q 407 444 467 425 q 282 491 338 465 q 188 550 226 517 q 128 626 149 583 q 108 724 108 668 q 132 825 108 779 q 197 904 156 871 q 297 956 239 938 q 424 974 354 974 q 599 944 524 974 q 733 863 675 915 l 658 779 q 549 844 607 824 q 429 865 490 865 q 356 857 390 865 q 297 832 322 849 q 258 790 272 815 q 243 729 243 764 q 254 676 243 699 q 292 633 265 653 q 361 594 318 613 q 469 557 404 576 q 578 517 526 539 q 667 463 629 496 q 728 383 706 431 q 750 267 750 335 z "},"І":{"ha":833,"x_min":139,"x_max":694,"o":"m 694 853 l 483 853 l 483 104 l 694 104 l 694 0 l 139 0 l 139 104 l 350 104 l 350 853 l 139 853 l 139 957 l 694 957 l 694 853 z "},"Ї":{"ha":833,"x_min":139,"x_max":694,"o":"m 694 853 l 483 853 l 483 104 l 694 104 l 694 0 l 139 0 l 139 104 l 350 104 l 350 853 l 139 853 l 139 957 l 694 957 l 694 853 m 269 1068 q 213 1090 236 1068 q 190 1147 190 1113 q 213 1203 190 1181 q 269 1225 236 1225 q 327 1203 304 1225 q 350 1147 350 1181 q 327 1090 350 1113 q 269 1068 304 1068 m 561 1068 q 503 1090 526 1068 q 481 1147 481 1113 q 503 1203 481 1181 q 561 1225 526 1225 q 618 1203 594 1225 q 642 1147 642 1181 q 618 1090 642 1113 q 561 1068 594 1068 z "},"Ј":{"ha":833,"x_min":150,"x_max":625,"o":"m 625 258 q 518 -14 625 103 q 182 -193 411 -131 l 150 -94 q 303 -33 239 -65 q 410 42 368 0 q 473 139 453 85 q 493 264 493 193 l 493 853 l 153 853 l 153 957 l 625 957 l 625 258 z "},"Љ":{"ha":833,"x_min":0,"x_max":833,"o":"m 494 606 q 749 535 664 606 q 833 310 833 464 q 810 168 833 226 q 744 72 788 110 q 641 17 701 35 q 504 0 581 0 l 369 0 l 369 853 l 244 853 l 214 431 q 192 228 204 304 q 160 106 179 151 q 117 34 142 60 q 58 -17 92 8 l 0 75 q 28 110 15 90 q 53 169 42 131 q 74 271 65 207 q 92 436 83 335 l 132 957 l 494 957 l 494 606 m 701 308 q 654 463 701 417 q 515 508 607 508 l 494 508 l 494 101 l 515 101 q 594 110 560 101 q 653 143 629 119 q 689 207 676 167 q 701 308 701 247 z "},"Њ":{"ha":833,"x_min":56,"x_max":833,"o":"m 369 494 l 181 494 l 181 0 l 56 0 l 56 957 l 181 957 l 181 592 l 369 592 l 369 957 l 494 957 l 494 592 q 749 524 664 592 q 833 304 833 456 q 810 163 833 221 q 744 68 788 104 q 641 16 701 32 q 504 0 581 0 l 369 0 l 369 494 m 494 494 l 494 101 l 515 101 q 594 110 560 101 q 653 140 629 118 q 689 201 676 161 q 701 303 701 240 q 654 453 701 413 q 515 494 607 494 l 494 494 z "},"Ћ":{"ha":833,"x_min":-7,"x_max":789,"o":"m 343 847 l 343 547 q 430 604 381 581 q 542 628 479 628 q 728 556 668 628 q 789 343 789 483 l 789 0 l 658 0 l 658 338 q 625 475 658 433 q 511 517 592 517 q 409 493 449 517 q 343 446 369 469 l 343 0 l 214 0 l 214 847 l -7 847 l -7 957 l 567 957 l 553 847 l 343 847 z "},"Ќ":{"ha":833,"x_min":139,"x_max":818,"o":"m 365 449 l 271 449 l 271 0 l 139 0 l 139 957 l 271 957 l 271 557 l 367 557 l 651 957 l 792 957 l 478 508 l 818 0 l 661 0 l 365 449 m 297 1117 l 560 1268 l 625 1161 l 336 1049 l 297 1117 z "},"Ў":{"ha":833,"x_min":32,"x_max":810,"o":"m 522 258 q 467 148 496 196 q 397 67 438 100 q 300 13 356 33 q 167 -17 244 -7 l 147 86 q 252 109 210 94 q 322 144 294 124 q 367 194 350 165 q 400 263 385 224 l 346 263 l 32 957 l 169 957 l 432 353 l 438 353 l 676 957 l 810 957 l 522 258 m 428 1056 q 342 1070 379 1056 q 278 1108 304 1085 q 238 1158 253 1131 q 219 1213 224 1186 l 304 1231 q 428 1153 331 1153 q 554 1231 528 1153 l 639 1213 q 619 1158 635 1186 q 578 1108 604 1131 q 515 1070 553 1085 q 428 1056 478 1056 z "},"Џ":{"ha":833,"x_min":111,"x_max":722,"o":"m 722 957 l 722 0 l 488 0 l 488 -208 l 383 -208 l 363 0 l 111 0 l 111 957 l 243 957 l 243 108 l 590 108 l 590 957 l 722 957 z "},"А":{"ha":833,"x_min":24,"x_max":810,"o":"m 597 240 l 229 240 l 156 0 l 24 0 l 333 957 l 500 957 l 810 0 l 671 0 l 597 240 m 261 347 l 565 347 l 417 838 l 411 838 l 261 347 z "},"Б":{"ha":833,"x_min":133,"x_max":757,"o":"m 663 849 l 265 849 l 265 588 l 383 588 q 540 571 471 588 q 657 519 608 554 q 731 430 706 485 q 757 300 757 375 q 729 161 757 218 q 653 68 701 104 q 535 16 604 32 q 386 0 467 0 l 133 0 l 133 957 l 675 957 l 663 849 m 617 299 q 600 385 617 350 q 554 443 583 421 q 485 475 525 465 q 397 485 444 485 l 265 485 l 265 106 l 397 106 q 485 114 444 106 q 554 144 525 122 q 600 203 583 165 q 617 299 617 240 z "},"В":{"ha":833,"x_min":128,"x_max":754,"o":"m 615 271 q 599 358 615 324 q 556 412 583 392 q 493 440 529 432 q 415 447 457 447 l 260 447 l 260 107 l 410 107 q 481 113 444 107 q 548 138 518 119 q 597 188 578 156 q 615 271 615 219 m 578 707 q 529 819 578 786 q 394 853 481 853 l 260 853 l 260 553 l 406 553 q 533 589 489 553 q 578 707 578 625 m 754 274 q 723 142 754 194 q 640 58 692 90 q 524 13 589 26 q 392 0 458 0 l 128 0 l 128 957 l 371 957 q 497 946 435 957 q 606 907 558 935 q 683 833 654 879 q 713 715 713 786 q 698 634 713 669 q 660 574 683 599 q 606 533 636 549 q 546 511 576 518 l 546 506 q 619 484 582 499 q 686 442 656 469 q 735 374 717 415 q 754 274 754 333 z "},"Г":{"ha":833,"x_min":182,"x_max":758,"o":"m 758 957 l 744 843 l 314 843 l 314 0 l 182 0 l 182 957 l 758 957 z "},"Д":{"ha":833,"x_min":-6,"x_max":782,"o":"m 53 108 q 99 172 81 136 q 131 271 117 208 q 158 431 144 333 q 190 679 171 529 l 225 957 l 711 957 l 711 108 l 782 108 l 782 -208 l 678 -208 l 657 0 l 119 0 l 99 -208 l -6 -208 l -6 108 l 53 108 m 340 849 l 321 674 q 292 437 304 532 q 264 278 279 342 q 228 176 249 214 q 176 108 208 138 l 579 108 l 579 849 l 340 849 z "},"Е":{"ha":833,"x_min":156,"x_max":719,"o":"m 288 851 l 288 539 l 640 539 l 640 433 l 288 433 l 288 104 l 719 104 l 719 0 l 156 0 l 156 957 l 708 957 l 693 851 l 288 851 z "},"Ж":{"ha":833,"x_min":22,"x_max":811,"o":"m 361 453 l 313 453 l 147 0 l 22 0 l 215 508 l 42 957 l 165 957 l 314 553 l 361 553 l 361 957 l 472 957 l 472 553 l 519 553 l 669 957 l 792 957 l 618 508 l 811 0 l 683 0 l 519 453 l 472 453 l 472 0 l 361 0 l 361 453 z "},"З":{"ha":833,"x_min":44,"x_max":754,"o":"m 754 279 q 728 163 754 217 q 655 69 703 110 q 540 6 607 29 q 388 -17 472 -17 q 193 18 283 -17 q 44 119 103 53 l 128 192 q 240 117 172 143 q 385 92 308 92 q 555 142 494 92 q 615 281 615 193 q 599 362 615 328 q 552 417 582 396 q 482 449 522 439 q 394 458 442 458 l 226 458 l 242 567 l 386 567 q 462 576 425 567 q 526 603 499 585 q 571 651 554 622 q 588 719 588 679 q 572 785 588 757 q 530 832 557 814 q 466 859 503 850 q 386 868 429 868 q 248 844 310 868 q 138 775 186 819 l 64 854 q 213 943 128 913 q 390 974 299 974 q 528 955 467 974 q 633 904 590 936 q 699 829 676 872 q 722 738 722 786 q 707 657 722 693 q 665 593 692 621 q 601 547 638 565 q 525 522 565 529 l 525 517 q 610 497 568 514 q 683 449 651 479 q 735 376 715 419 q 754 279 754 333 z "},"И":{"ha":833,"x_min":111,"x_max":722,"o":"m 111 0 l 111 957 l 240 957 l 240 490 q 239 374 240 425 q 235 282 238 324 q 229 206 232 240 q 222 140 226 171 l 228 140 l 557 957 l 722 957 l 722 0 l 593 0 l 593 467 q 599 669 593 579 q 611 813 606 760 l 606 813 l 279 0 l 111 0 z "},"Й":{"ha":833,"x_min":111,"x_max":722,"o":"m 111 0 l 111 957 l 240 957 l 240 490 q 239 374 240 425 q 235 282 238 324 q 229 206 232 240 q 222 140 226 171 l 228 140 l 557 957 l 722 957 l 722 0 l 593 0 l 593 467 q 599 669 593 579 q 611 813 606 760 l 606 813 l 279 0 l 111 0 m 415 1056 q 329 1070 367 1056 q 266 1108 292 1085 q 226 1158 240 1131 q 207 1213 211 1186 l 292 1231 q 415 1153 318 1153 q 542 1231 515 1153 l 626 1213 q 607 1158 622 1186 q 566 1108 592 1131 q 503 1070 540 1085 q 415 1056 465 1056 z "},"К":{"ha":833,"x_min":139,"x_max":818,"o":"m 365 449 l 271 449 l 271 0 l 139 0 l 139 957 l 271 957 l 271 557 l 367 557 l 651 957 l 792 957 l 478 508 l 818 0 l 661 0 l 365 449 z "},"Л":{"ha":833,"x_min":0,"x_max":722,"o":"m 0 79 q 72 146 43 111 q 120 243 100 181 q 157 408 140 306 q 194 679 174 511 l 229 957 l 722 957 l 722 0 l 590 0 l 590 846 l 344 846 l 325 674 q 299 460 311 551 q 271 299 286 368 q 238 182 256 231 q 194 97 219 133 q 136 35 169 61 q 58 -17 103 8 l 0 79 z "},"М":{"ha":833,"x_min":40,"x_max":793,"o":"m 668 0 l 640 490 q 635 631 638 560 q 633 751 633 703 q 634 789 633 774 q 635 811 635 804 l 631 811 l 479 171 l 353 171 l 194 811 l 189 811 l 189 588 q 186 490 189 536 l 163 0 l 40 0 l 94 957 l 269 957 l 417 318 l 422 318 l 563 957 l 739 957 l 793 0 l 668 0 z "},"Н":{"ha":833,"x_min":111,"x_max":722,"o":"m 590 0 l 590 449 l 243 449 l 243 0 l 111 0 l 111 957 l 243 957 l 243 557 l 590 557 l 590 957 l 722 957 l 722 0 l 590 0 z "},"О":{"ha":833,"x_min":61,"x_max":772,"o":"m 772 478 q 750 277 772 368 q 683 121 728 186 q 571 19 638 56 q 417 -17 504 -17 q 263 19 329 -17 q 151 119 196 54 q 83 274 106 183 q 61 476 61 365 q 83 677 61 586 q 151 834 106 768 q 263 937 196 900 q 417 974 329 974 q 571 938 504 974 q 683 838 638 903 q 750 681 728 772 q 772 478 772 589 m 635 478 q 584 766 635 667 q 417 865 533 865 q 249 765 300 865 q 199 476 199 665 q 251 189 199 286 q 417 92 303 92 q 584 190 533 92 q 635 478 635 288 z "},"П":{"ha":833,"x_min":111,"x_max":722,"o":"m 590 0 l 590 844 l 243 844 l 243 0 l 111 0 l 111 957 l 722 957 l 722 0 l 590 0 z "},"Р":{"ha":833,"x_min":153,"x_max":776,"o":"m 636 660 q 619 751 636 714 q 574 810 603 788 q 504 844 544 833 q 417 854 464 854 l 285 854 l 285 456 l 417 456 q 504 465 464 456 q 574 497 544 474 q 619 559 603 519 q 636 660 636 599 m 776 661 q 749 519 776 578 q 672 422 721 460 q 555 368 624 385 q 406 351 486 351 l 285 351 l 285 0 l 153 0 l 153 957 l 403 957 q 676 885 576 957 q 776 661 776 813 z "},"С":{"ha":833,"x_min":76,"x_max":785,"o":"m 497 94 q 628 119 576 94 q 717 176 681 144 l 785 90 q 668 16 740 49 q 492 -17 596 -17 q 325 15 401 -17 q 193 110 249 47 q 107 266 138 174 q 76 479 76 358 q 110 692 76 600 q 199 847 143 785 q 331 942 256 910 q 490 974 406 974 q 649 949 585 974 q 771 879 714 924 l 699 794 q 604 848 654 831 q 499 865 554 865 q 390 845 442 865 q 300 780 339 825 q 239 661 261 735 q 217 479 217 588 q 238 302 217 375 q 297 183 260 229 q 386 116 335 138 q 497 94 438 94 z "},"Т":{"ha":833,"x_min":53,"x_max":781,"o":"m 481 846 l 481 0 l 349 0 l 349 846 l 53 846 l 53 957 l 781 957 l 767 846 l 481 846 z "},"У":{"ha":833,"x_min":32,"x_max":810,"o":"m 522 258 q 467 148 496 196 q 397 67 438 100 q 300 13 356 33 q 167 -17 244 -7 l 147 86 q 252 109 210 94 q 322 144 294 124 q 367 194 350 165 q 400 263 385 224 l 346 263 l 32 957 l 169 957 l 432 353 l 438 353 l 676 957 l 810 957 l 522 258 z "},"Ф":{"ha":833,"x_min":17,"x_max":817,"o":"m 356 -42 l 356 44 q 103 160 190 51 q 17 482 17 268 q 99 796 17 689 q 356 915 182 903 l 356 999 l 478 999 l 478 915 q 734 796 651 903 q 817 482 817 689 q 729 161 817 269 q 478 44 642 53 l 478 -42 l 356 -42 m 685 482 q 672 638 685 574 q 633 741 660 701 q 568 799 607 781 q 475 821 529 818 l 475 138 q 635 228 586 147 q 685 482 685 308 m 358 821 q 265 799 304 818 q 200 741 226 781 q 161 638 174 701 q 149 482 149 574 q 198 228 149 308 q 358 138 247 147 l 358 821 z "},"Х":{"ha":833,"x_min":38,"x_max":794,"o":"m 63 957 l 213 957 l 410 601 l 415 601 l 621 957 l 763 957 l 489 517 l 794 0 l 644 0 l 413 419 l 407 419 l 179 0 l 38 0 l 332 510 l 63 957 z "},"Ц":{"ha":833,"x_min":111,"x_max":799,"o":"m 715 957 l 715 107 l 799 107 l 799 -208 l 694 -208 l 674 0 l 111 0 l 111 957 l 243 957 l 243 108 l 583 108 l 583 957 l 715 957 z "},"Ч":{"ha":833,"x_min":67,"x_max":722,"o":"m 590 0 l 590 403 q 495 350 550 371 q 369 329 440 329 q 67 649 67 329 l 67 957 l 199 957 l 199 654 q 241 491 199 540 q 386 442 283 442 q 513 465 464 442 q 590 513 561 489 l 590 957 l 722 957 l 722 0 l 590 0 z "}}}
